<?xml version="1.0" encoding="UTF-8" ?>
<!DOCTYPE svg PUBLIC "-//W3C//DTD SVG 1.1//EN" "http://www.w3.org/Graphics/SVG/1.1/DTD/svg11.dtd">
<svg width="1004pt" height="837pt" viewBox="0 0 1004 837" version="1.1" xmlns="http://www.w3.org/2000/svg">
<g id="#c29d00ff">
<path fill="#c29d00" stroke="#c29d00" stroke-width="0.09375" opacity="1.00" d=" M 577.48 0.00 L 578.28 0.00 C 578.23 1.91 580.92 1.78 581.04 0.00 L 582.00 0.00 C 582.11 1.78 584.78 1.89 584.78 0.00 L 600.10 0.00 C 600.57 1.99 603.28 1.97 603.77 0.00 L 604.52 0.00 C 614.34 2.40 624.60 3.13 634.07 6.89 C 659.70 15.19 682.72 31.50 698.87 53.09 C 704.31 59.99 708.44 67.76 712.58 75.48 C 714.01 78.16 715.07 81.02 716.09 83.89 C 716.31 84.44 716.76 85.55 716.99 86.11 C 721.29 96.54 723.87 107.58 725.08 118.78 C 726.15 134.28 725.82 150.31 720.07 164.96 C 719.80 165.49 719.27 166.56 719.01 167.09 C 713.21 182.80 701.67 195.36 690.16 207.13 C 680.03 216.35 669.70 225.34 659.51 234.49 C 648.09 244.90 637.41 256.62 630.90 270.79 C 630.68 271.34 630.23 272.45 630.01 273.01 C 629.66 273.98 629.32 274.96 628.98 275.94 C 628.71 276.49 628.18 277.58 627.92 278.12 L 628.01 279.01 C 626.41 279.24 626.17 281.43 627.76 281.88 C 625.61 287.63 625.23 293.76 624.86 299.83 C 609.92 300.26 594.95 299.86 579.99 300.00 C 572.72 299.85 565.44 300.30 558.18 299.84 C 558.00 297.25 558.12 294.65 558.16 292.06 C 559.73 290.74 559.73 288.47 558.32 287.05 C 559.65 279.00 560.50 270.85 562.95 263.03 C 563.23 262.51 563.80 261.47 564.09 260.95 L 563.99 260.11 C 564.19 259.54 564.59 258.41 564.78 257.85 C 565.62 255.15 566.67 252.52 567.92 249.99 C 568.16 249.45 568.66 248.36 568.91 247.82 C 575.38 233.10 586.54 221.02 598.39 210.41 C 603.76 205.03 610.19 200.92 615.91 195.95 C 616.43 195.67 617.46 195.10 617.98 194.81 C 624.77 188.61 632.42 183.40 639.02 176.98 C 642.11 173.80 644.59 170.09 647.83 167.04 C 648.08 166.50 648.58 165.44 648.84 164.90 C 649.14 164.68 649.75 164.22 650.06 164.00 C 650.26 163.44 650.68 162.33 650.89 161.78 C 655.11 155.26 657.36 147.71 658.27 140.05 C 659.77 139.59 659.79 137.44 658.19 137.12 C 659.74 127.31 657.34 117.28 653.85 108.13 C 653.67 107.56 653.30 106.42 653.12 105.85 C 648.61 98.01 643.99 89.93 636.95 84.05 C 628.16 75.73 616.76 70.72 605.11 67.88 C 604.01 66.65 602.31 66.44 600.86 67.08 C 600.17 67.01 598.79 66.89 598.10 66.83 C 596.26 65.30 593.77 65.29 591.87 66.70 L 591.08 66.83 C 590.58 65.33 588.47 65.30 588.03 66.85 C 583.30 67.06 578.67 68.00 574.08 69.07 C 572.73 68.50 571.67 68.83 570.89 70.05 L 570.08 69.92 C 569.54 70.17 568.45 70.66 567.91 70.91 C 560.87 74.19 553.87 77.79 548.18 83.18 C 542.92 87.25 539.02 92.65 534.98 97.87 C 534.74 98.41 534.24 99.48 534.00 100.02 C 530.87 104.95 528.93 110.46 526.97 115.92 C 525.77 116.69 525.41 117.75 525.88 119.08 L 526.03 119.88 C 524.83 120.66 524.48 121.73 524.98 123.08 C 524.92 124.71 524.86 126.35 524.82 127.98 C 523.36 128.96 523.30 131.02 524.87 131.92 C 524.67 132.46 524.25 133.55 524.05 134.09 C 503.69 133.97 483.32 134.01 462.96 134.07 C 461.00 134.01 459.08 133.66 457.17 133.29 C 457.47 126.52 457.75 119.73 459.01 113.06 C 460.32 112.05 460.60 110.32 459.84 108.88 C 460.43 105.60 461.21 102.36 461.99 99.12 C 463.22 98.38 463.57 97.34 463.04 95.99 C 464.53 90.51 466.28 85.08 468.97 80.05 C 469.18 79.49 469.61 78.37 469.82 77.82 C 471.04 75.12 472.29 72.44 473.64 69.81 C 475.45 69.40 476.36 67.62 475.91 65.87 C 486.38 48.36 500.77 33.21 517.88 22.07 C 518.37 21.75 519.37 21.09 519.86 20.77 C 524.78 17.53 529.99 14.79 535.28 12.22 C 538.16 11.12 541.04 10.01 543.95 8.98 C 544.49 8.72 545.56 8.20 546.10 7.93 C 547.36 7.60 548.63 7.26 549.90 6.93 C 550.45 6.70 551.55 6.23 552.10 5.99 L 552.94 6.09 C 553.45 5.79 554.46 5.20 554.97 4.91 C 557.69 4.31 560.41 3.71 563.11 3.02 C 567.85 1.76 572.86 1.78 577.48 0.00 Z" />
<path fill="#c29d00" stroke="#c29d00" stroke-width="0.09375" opacity="1.00" d=" M 727.49 120.25 C 727.57 120.31 727.75 120.43 727.83 120.49 C 727.75 120.43 727.57 120.31 727.49 120.25 Z" />
<path fill="#c29d00" stroke="#c29d00" stroke-width="0.09375" opacity="1.00" d=" M 733.63 125.04 C 733.71 125.11 733.88 125.26 733.96 125.33 C 733.88 125.26 733.71 125.11 733.63 125.04 Z" />
<path fill="#c29d00" stroke="#c29d00" stroke-width="0.09375" opacity="1.00" d=" M 740.69 130.92 L 740.89 131.07 C 740.84 131.03 740.74 130.96 740.69 130.92 Z" />
<path fill="#c29d00" stroke="#c29d00" stroke-width="0.09375" opacity="1.00" d=" M 470.27 226.28 C 474.66 218.53 483.04 213.29 492.01 213.01 C 500.33 213.59 508.46 217.93 512.86 225.15 C 516.52 230.16 516.62 236.77 515.67 242.65 C 511.93 252.60 498.82 256.52 497.65 267.82 C 493.78 268.27 489.85 268.11 485.97 267.90 C 486.38 264.23 487.29 260.48 489.37 257.38 C 492.31 253.65 495.91 250.51 499.70 247.67 C 503.60 244.63 506.20 239.30 504.65 234.36 C 503.47 231.21 501.46 228.24 498.60 226.41 C 493.69 223.91 487.35 224.48 483.24 228.24 C 480.59 230.36 479.82 233.78 478.61 236.78 C 474.78 237.31 470.88 237.10 467.03 236.94 C 467.73 233.29 468.69 229.66 470.27 226.28 Z" />
<path fill="#c29d00" stroke="#c29d00" stroke-width="0.09375" opacity="1.00" d=" M 712.78 264.66 C 721.44 262.32 730.61 271.13 728.93 279.87 C 727.35 286.08 718.91 288.06 718.67 294.85 C 716.79 295.16 714.88 295.11 713.00 294.93 C 711.44 287.88 719.39 285.33 722.70 280.63 C 723.18 278.01 723.75 274.50 721.30 272.68 C 719.11 270.41 715.59 269.03 712.61 270.59 C 709.85 271.57 708.94 274.49 707.57 276.77 C 705.72 277.25 703.79 277.08 701.92 276.94 C 702.40 271.18 706.97 265.67 712.78 264.66 Z" />
<path fill="#c29d00" stroke="#c29d00" stroke-width="0.09375" opacity="1.00" d=" M 486.11 276.10 C 490.03 275.83 493.97 275.83 497.89 276.11 C 498.15 280.02 498.15 283.97 497.89 287.89 C 493.97 288.14 490.02 288.14 486.10 287.89 C 485.84 283.97 485.84 280.02 486.11 276.10 Z" />
<path fill="#c29d00" stroke="#c29d00" stroke-width="0.09375" opacity="1.00" d=" M 247.29 290.28 C 254.02 283.76 263.11 279.19 272.66 279.56 C 288.97 279.57 304.09 292.74 306.01 308.99 C 306.17 313.46 306.49 318.23 304.33 322.33 C 301.50 327.86 296.66 332.00 292.14 336.12 C 286.30 340.20 281.28 346.32 280.65 353.65 C 280.42 353.96 279.97 354.56 279.74 354.87 C 274.49 355.23 269.20 355.12 263.95 354.90 C 264.25 345.71 269.03 336.81 276.53 331.51 C 280.20 328.56 284.21 325.90 287.17 322.18 C 291.23 316.41 291.17 307.88 286.62 302.37 C 283.20 297.36 276.92 295.13 271.07 295.01 C 264.47 296.06 258.18 300.32 255.67 306.64 C 254.86 308.65 255.44 311.31 253.73 312.86 C 248.48 313.18 243.20 313.08 237.95 312.89 C 238.36 304.54 241.99 296.64 247.29 290.28 Z" />
<path fill="#c29d00" stroke="#c29d00" stroke-width="0.09375" opacity="1.00" d=" M 712.09 299.09 C 714.35 298.86 716.64 298.86 718.91 299.09 C 719.13 301.35 719.13 303.64 718.91 305.91 C 716.64 306.14 714.35 306.14 712.09 305.91 C 711.85 303.64 711.85 301.35 712.09 299.09 Z" />
<path fill="#c29d00" stroke="#c29d00" stroke-width="0.09375" opacity="1.00" d=" M 557.11 334.93 C 572.05 334.33 587.04 334.86 602.00 334.68 C 609.98 334.85 617.99 334.32 625.95 334.93 C 626.40 349.94 625.99 364.97 626.11 379.99 C 625.99 387.36 626.35 394.75 625.94 402.11 C 605.64 402.18 585.31 402.36 565.00 402.39 C 562.36 402.39 559.72 402.46 557.11 402.11 C 556.91 379.72 556.90 357.31 557.11 334.93 Z" />
<path fill="#c29d00" stroke="#c29d00" stroke-width="0.09375" opacity="1.00" d=" M 264.10 365.10 C 269.69 364.89 275.30 364.88 280.90 365.10 C 281.11 370.69 281.11 376.31 280.90 381.91 C 275.30 382.12 269.69 382.12 264.09 381.90 C 263.86 376.31 263.86 370.69 264.10 365.10 Z" />
<path fill="#c29d00" stroke="#c29d00" stroke-width="0.09375" opacity="1.00" d=" M 388.09 408.14 C 392.54 405.65 397.03 402.88 402.19 402.20 C 415.41 400.33 429.80 406.84 436.32 418.67 C 440.68 425.57 442.46 434.25 440.22 442.18 C 438.15 447.85 434.29 452.90 429.34 456.36 C 423.12 462.15 415.27 468.46 415.80 477.89 C 410.19 478.14 404.56 478.11 398.95 477.89 C 399.47 471.62 400.83 465.00 405.29 460.28 C 410.87 453.20 419.76 449.17 424.07 441.06 C 427.33 432.46 422.51 421.23 413.43 418.57 C 407.25 417.07 400.06 417.66 395.26 422.26 C 391.24 425.17 390.19 430.23 389.73 434.87 C 384.16 435.20 378.56 435.09 372.98 434.91 C 373.99 424.41 379.00 413.90 388.09 408.14 Z" />
<path fill="#c29d00" stroke="#c29d00" stroke-width="0.09375" opacity="1.00" d=" M 399.09 488.09 C 404.68 487.86 410.30 487.86 415.90 488.09 C 416.12 493.35 416.11 498.64 415.90 503.91 C 410.31 504.14 404.69 504.14 399.10 503.91 C 398.86 498.64 398.86 493.36 399.09 488.09 Z" />
<path fill="#c29d00" stroke="#c29d00" stroke-width="0.09375" opacity="1.00" d=" M 813.96 604.93 C 813.42 596.44 822.80 590.11 830.65 592.32 C 835.79 594.12 840.08 598.63 841.05 604.05 C 841.87 609.03 837.28 612.14 834.23 615.23 C 832.05 616.95 831.09 619.58 829.75 621.91 C 827.82 622.14 825.88 622.10 823.96 621.98 C 824.52 615.40 831.15 612.41 834.71 607.62 C 835.67 604.39 834.84 599.96 831.40 598.58 C 828.72 597.59 825.49 597.57 822.93 598.92 C 820.64 599.98 820.57 602.78 819.60 604.79 C 817.74 605.18 815.82 605.09 813.96 604.93 Z" />
<path fill="#c29d00" stroke="#c29d00" stroke-width="0.09375" opacity="1.00" d=" M 824.07 627.06 C 826.01 626.86 827.99 626.86 829.95 627.06 C 830.13 629.01 830.13 630.98 829.94 632.94 C 827.98 633.12 826.01 633.12 824.07 632.93 C 823.87 630.98 823.87 629.00 824.07 627.06 Z" />
</g>
<g id="#003c1b74">
<path fill="#003c1b" stroke="#003c1b" stroke-width="0.09375" opacity="0.45" d=" M 578.28 0.00 L 581.04 0.00 C 580.92 1.78 578.23 1.91 578.28 0.00 Z" />
</g>
<g id="#00642dbf">
<path fill="#00642d" stroke="#00642d" stroke-width="0.09375" opacity="0.75" d=" M 582.00 0.00 L 584.78 0.00 C 584.78 1.89 582.11 1.78 582.00 0.00 Z" />
</g>
<g id="#004a228f">
<path fill="#004a22" stroke="#004a22" stroke-width="0.09375" opacity="0.56" d=" M 600.10 0.00 L 603.77 0.00 C 603.28 1.97 600.57 1.99 600.10 0.00 Z" />
</g>
<g id="#000d061a">
<path fill="#000d06" stroke="#000d06" stroke-width="0.09375" opacity="0.10" d=" M 455.59 7.62 C 482.03 2.04 509.35 5.82 535.28 12.22 C 529.99 14.79 524.78 17.53 519.86 20.77 C 519.37 21.09 518.37 21.75 517.88 22.07 C 500.77 33.21 486.38 48.36 475.91 65.87 C 474.41 66.63 473.58 68.15 473.64 69.81 C 472.29 72.44 471.04 75.12 469.82 77.82 C 469.61 78.37 469.18 79.49 468.97 80.05 C 466.28 85.08 464.53 90.51 463.04 95.99 C 461.87 96.77 461.52 97.81 461.99 99.12 C 461.21 102.36 460.43 105.60 459.84 108.88 C 458.70 109.99 458.48 111.60 459.01 113.06 C 457.75 119.73 457.47 126.52 457.17 133.29 C 457.20 133.61 457.25 134.26 457.28 134.59 C 477.86 134.97 498.46 134.50 519.05 134.81 C 520.75 134.90 522.41 134.54 524.05 134.09 C 524.25 133.55 524.67 132.46 524.87 131.92 C 525.34 130.62 525.32 129.30 524.82 127.98 C 524.86 126.35 524.92 124.71 524.98 123.08 C 526.16 122.29 526.51 121.22 526.03 119.88 L 525.88 119.08 C 527.09 118.33 527.46 117.27 526.97 115.92 C 528.93 110.46 530.87 104.95 534.00 100.02 C 534.24 99.48 534.74 98.41 534.98 97.87 C 539.02 92.65 542.92 87.25 548.18 83.18 C 553.87 77.79 560.87 74.19 567.91 70.91 C 568.45 70.66 569.54 70.17 570.08 69.92 L 570.89 70.05 C 572.20 70.53 573.26 70.21 574.08 69.07 C 578.67 68.00 583.30 67.06 588.03 66.85 C 588.79 66.85 590.32 66.84 591.08 66.83 L 591.87 66.70 C 593.90 67.23 596.03 67.28 598.10 66.83 C 598.79 66.89 600.17 67.01 600.86 67.08 C 601.95 68.28 603.63 68.50 605.11 67.88 C 616.76 70.72 628.16 75.73 636.95 84.05 C 643.99 89.93 648.61 98.01 653.12 105.85 C 653.30 106.42 653.67 107.56 653.85 108.13 C 657.34 117.28 659.74 127.31 658.19 137.12 C 658.21 137.86 658.25 139.32 658.27 140.05 C 657.36 147.71 655.11 155.26 650.89 161.78 C 650.68 162.33 650.26 163.44 650.06 164.00 C 649.75 164.22 649.14 164.68 648.84 164.90 C 648.58 165.44 648.08 166.50 647.83 167.04 C 644.59 170.09 642.11 173.80 639.02 176.98 C 632.42 183.40 624.77 188.61 617.98 194.81 C 617.46 195.10 616.43 195.67 615.91 195.95 C 610.19 200.92 603.76 205.03 598.39 210.41 C 586.54 221.02 575.38 233.10 568.91 247.82 C 568.66 248.36 568.16 249.45 567.92 249.99 C 566.67 252.52 565.62 255.15 564.78 257.85 C 564.59 258.41 564.19 259.54 563.99 260.11 L 564.09 260.95 C 563.80 261.47 563.23 262.51 562.95 263.03 C 560.50 270.85 559.65 279.00 558.32 287.05 C 557.75 288.67 557.70 290.40 558.16 292.06 C 558.12 294.65 558.00 297.25 558.18 299.84 C 565.44 300.30 572.72 299.85 579.99 300.00 C 594.95 299.86 609.92 300.26 624.86 299.83 C 625.23 293.76 625.61 287.63 627.76 281.88 C 627.82 281.16 627.95 279.73 628.01 279.01 L 627.92 278.12 C 628.18 277.58 628.71 276.49 628.98 275.94 C 629.32 274.96 629.66 273.98 630.01 273.01 C 630.23 272.45 630.68 271.34 630.90 270.79 C 637.41 256.62 648.09 244.90 659.51 234.49 C 669.70 225.34 680.03 216.35 690.16 207.13 C 701.67 195.36 713.21 182.80 719.01 167.09 C 719.27 166.56 719.80 165.49 720.07 164.96 C 725.82 150.31 726.15 134.28 725.08 118.78 C 725.68 119.15 726.88 119.89 727.49 120.25 C 727.57 120.31 727.75 120.43 727.83 120.49 C 729.85 121.89 731.77 123.44 733.63 125.04 C 733.71 125.11 733.88 125.26 733.96 125.33 C 736.19 127.19 738.23 129.31 740.69 130.92 C 740.74 130.96 740.84 131.03 740.89 131.07 C 747.28 134.35 752.03 139.93 757.26 144.74 C 766.87 152.74 775.23 162.10 784.21 170.79 C 791.23 178.09 798.84 184.84 805.38 192.59 C 848.80 239.23 887.31 290.25 922.91 343.05 C 939.25 367.40 955.35 391.98 969.02 417.96 C 974.70 427.67 978.98 438.08 983.66 448.29 C 991.41 466.68 997.95 485.72 1001.35 505.43 C 1001.88 509.56 1002.69 513.66 1004.00 517.62 L 1004.00 567.37 C 1001.41 575.38 1001.02 583.87 998.82 591.99 C 993.87 613.26 985.03 633.42 974.36 652.41 C 966.41 665.42 957.42 677.86 947.20 689.19 C 939.12 697.10 931.55 705.61 922.60 712.57 C 910.13 722.44 897.00 731.66 882.63 738.57 C 855.37 752.99 825.11 760.66 794.85 765.66 C 774.60 768.73 754.21 771.02 733.76 772.00 C 733.91 763.94 732.33 755.99 732.66 747.94 C 731.63 739.63 733.13 731.32 732.65 722.99 C 732.28 715.36 733.32 707.79 734.16 700.23 C 735.09 685.86 736.50 671.25 741.72 657.71 C 744.60 651.93 747.05 645.94 749.06 639.81 C 752.65 639.98 756.27 640.28 759.86 639.86 C 762.39 626.76 760.19 613.30 762.29 600.16 C 762.35 598.48 763.79 597.48 764.84 596.37 C 767.62 594.52 768.51 591.14 768.05 587.97 C 767.86 583.33 766.26 578.72 767.04 574.07 C 767.56 573.96 768.59 573.74 769.10 573.62 C 770.96 573.79 772.82 573.96 774.69 574.13 C 778.22 575.86 781.60 578.39 785.66 578.62 C 790.91 570.84 793.46 561.13 800.82 554.86 C 802.67 553.38 804.86 552.15 806.04 550.01 C 808.12 546.32 808.69 542.04 810.23 538.14 C 812.05 533.31 815.09 528.84 815.66 523.61 C 815.94 519.76 815.41 515.90 814.88 512.10 C 814.48 506.92 809.72 503.91 807.37 499.67 C 805.14 495.69 802.02 492.37 798.84 489.16 C 793.98 484.23 792.35 477.23 788.22 471.80 C 784.81 467.51 782.98 462.13 782.62 456.71 C 783.05 453.01 785.96 449.91 785.77 446.08 C 785.35 442.69 782.34 440.14 778.97 440.03 C 778.27 439.88 776.87 439.58 776.17 439.43 C 775.95 435.16 778.28 431.00 777.36 426.76 C 774.76 424.64 771.05 423.47 769.83 420.05 C 767.07 414.22 768.55 407.67 769.53 401.61 C 770.65 395.14 769.07 388.19 764.96 383.05 C 762.36 379.89 757.88 379.64 754.75 377.25 C 751.41 373.44 751.51 366.73 746.12 364.83 C 738.00 362.25 730.30 368.99 722.15 366.86 C 718.42 366.31 714.26 364.51 710.70 366.60 C 708.41 367.88 709.20 370.84 708.79 372.98 C 708.82 375.70 706.92 377.81 705.68 380.06 C 706.15 381.77 707.79 382.83 708.95 384.08 C 706.09 387.75 703.44 391.75 702.41 396.36 C 699.77 406.79 704.16 418.85 713.36 424.62 C 714.59 425.48 715.85 426.30 717.00 427.29 C 717.04 428.59 716.50 429.79 715.99 430.96 C 710.55 431.37 705.56 434.62 700.01 433.65 C 692.77 432.78 685.51 431.03 678.19 431.84 C 672.79 438.17 666.92 444.32 659.95 448.93 C 654.88 451.25 650.40 454.52 645.90 457.75 C 643.16 457.04 643.90 453.19 642.72 451.11 C 639.79 445.24 636.58 439.43 634.96 433.01 C 633.49 427.08 631.22 421.40 628.41 415.98 C 626.17 411.68 625.22 406.54 621.77 402.98 C 617.89 402.20 613.91 402.59 610.00 402.56 C 603.85 402.71 597.69 402.18 591.57 402.90 C 598.39 408.30 607.28 410.03 614.80 414.21 C 616.28 415.14 616.68 416.99 617.18 418.55 C 614.21 420.62 610.59 422.52 609.27 426.12 C 610.62 431.54 613.49 436.43 615.28 441.71 C 618.46 449.17 618.93 457.42 622.06 464.90 C 624.16 469.91 625.22 475.78 629.41 479.58 C 633.53 483.31 639.46 482.71 644.58 483.51 C 649.75 483.92 655.31 485.28 660.27 483.17 C 664.57 480.45 668.35 476.81 673.28 475.18 C 672.50 482.99 670.83 490.69 669.41 498.41 C 668.07 504.10 667.48 510.19 664.30 515.26 C 657.16 526.30 650.80 537.96 646.38 550.37 C 645.08 554.71 643.31 559.53 644.95 564.00 C 647.24 567.39 651.02 569.34 654.22 571.75 C 659.00 574.84 663.54 578.49 668.85 580.63 C 671.05 578.94 672.83 576.80 674.95 575.03 C 674.87 587.50 675.67 599.99 677.70 612.30 C 678.65 617.64 681.51 622.50 681.85 627.98 C 682.24 632.13 681.62 636.36 682.42 640.48 C 684.44 641.43 686.59 642.05 688.73 642.71 C 691.08 652.72 694.07 662.56 697.73 672.16 C 700.77 683.84 701.85 696.00 702.00 708.05 C 702.23 714.97 704.61 721.67 704.11 728.66 C 702.65 737.80 702.41 747.08 701.55 756.29 C 700.90 762.15 701.96 768.36 699.50 773.91 C 692.78 772.17 685.83 773.40 679.00 773.10 C 666.96 772.84 654.87 773.51 642.87 772.30 C 606.81 770.59 570.91 765.21 536.00 756.01 C 495.50 745.20 456.93 728.31 419.65 709.34 C 328.23 661.50 241.73 603.32 166.23 532.78 C 156.55 522.45 145.09 513.92 136.01 503.00 C 130.81 496.56 124.19 491.45 119.01 485.00 C 87.12 449.92 57.27 412.65 33.46 371.55 C 20.73 348.97 10.15 324.96 4.39 299.60 C 2.39 292.66 2.25 285.33 0.00 278.45 L 0.00 247.55 C 0.85 244.77 1.70 242.00 2.21 239.14 C 5.21 222.38 11.46 206.13 20.96 191.97 C 33.87 171.90 53.31 155.89 75.87 147.88 C 88.99 142.97 103.10 141.46 117.01 141.01 C 132.46 141.80 147.90 143.15 163.14 145.85 C 192.32 150.29 221.41 156.00 250.97 157.27 C 261.94 158.31 273.02 158.26 283.99 157.18 C 302.81 156.03 321.47 151.93 338.98 144.94 C 346.88 141.16 355.06 137.56 361.66 131.66 C 367.12 126.73 372.66 121.52 375.73 114.69 C 380.01 106.67 380.82 97.49 382.73 88.74 C 385.73 75.05 388.94 61.16 395.79 48.80 C 400.25 40.93 405.59 33.38 412.69 27.68 C 424.76 17.14 440.12 11.13 455.59 7.62 M 470.27 226.28 C 468.69 229.66 467.73 233.29 467.03 236.94 C 470.88 237.10 474.78 237.31 478.61 236.78 C 479.82 233.78 480.59 230.36 483.24 228.24 C 487.35 224.48 493.69 223.91 498.60 226.41 C 501.46 228.24 503.47 231.21 504.65 234.36 C 506.20 239.30 503.60 244.63 499.70 247.67 C 495.91 250.51 492.31 253.65 489.37 257.38 C 487.29 260.48 486.38 264.23 485.97 267.90 C 489.85 268.11 493.78 268.27 497.65 267.82 C 498.82 256.52 511.93 252.60 515.67 242.65 C 516.62 236.77 516.52 230.16 512.86 225.15 C 508.46 217.93 500.33 213.59 492.01 213.01 C 483.04 213.29 474.66 218.53 470.27 226.28 M 712.78 264.66 C 706.97 265.67 702.40 271.18 701.92 276.94 C 703.79 277.08 705.72 277.25 707.57 276.77 C 708.94 274.49 709.85 271.57 712.61 270.59 C 715.59 269.03 719.11 270.41 721.30 272.68 C 723.75 274.50 723.18 278.01 722.70 280.63 C 719.39 285.33 711.44 287.88 713.00 294.93 C 714.88 295.11 716.79 295.16 718.67 294.85 C 718.91 288.06 727.35 286.08 728.93 279.87 C 730.61 271.13 721.44 262.32 712.78 264.66 M 486.11 276.10 C 485.84 280.02 485.84 283.97 486.10 287.89 C 490.02 288.14 493.97 288.14 497.89 287.89 C 498.15 283.97 498.15 280.02 497.89 276.11 C 493.97 275.83 490.03 275.83 486.11 276.10 M 247.29 290.28 C 241.99 296.64 238.36 304.54 237.95 312.89 C 243.20 313.08 248.48 313.18 253.73 312.86 C 255.44 311.31 254.86 308.65 255.67 306.64 C 258.18 300.32 264.47 296.06 271.07 295.01 C 276.92 295.13 283.20 297.36 286.62 302.37 C 291.17 307.88 291.23 316.41 287.17 322.18 C 284.21 325.90 280.20 328.56 276.53 331.51 C 269.03 336.81 264.25 345.71 263.95 354.90 C 269.20 355.12 274.49 355.23 279.74 354.87 C 279.97 354.56 280.42 353.96 280.65 353.65 C 281.28 346.32 286.30 340.20 292.14 336.12 C 296.66 332.00 301.50 327.86 304.33 322.33 C 306.49 318.23 306.17 313.46 306.01 308.99 C 304.09 292.74 288.97 279.57 272.66 279.56 C 263.11 279.19 254.02 283.76 247.29 290.28 M 712.09 299.09 C 711.85 301.35 711.85 303.64 712.09 305.91 C 714.35 306.14 716.64 306.14 718.91 305.91 C 719.13 303.64 719.13 301.35 718.91 299.09 C 716.64 298.86 714.35 298.86 712.09 299.09 M 557.11 334.93 C 556.90 357.31 556.91 379.72 557.11 402.11 C 559.72 402.46 562.36 402.39 565.00 402.39 C 585.31 402.36 605.64 402.18 625.94 402.11 C 626.35 394.75 625.99 387.36 626.11 379.99 C 625.99 364.97 626.40 349.94 625.95 334.93 C 617.99 334.32 609.98 334.85 602.00 334.68 C 587.04 334.86 572.05 334.33 557.11 334.93 M 264.10 365.10 C 263.86 370.69 263.86 376.31 264.09 381.90 C 269.69 382.12 275.30 382.12 280.90 381.91 C 281.11 376.31 281.11 370.69 280.90 365.10 C 275.30 364.88 269.69 364.89 264.10 365.10 M 388.09 408.14 C 379.00 413.90 373.99 424.41 372.98 434.91 C 378.56 435.09 384.16 435.20 389.73 434.87 C 390.19 430.23 391.24 425.17 395.26 422.26 C 400.06 417.66 407.25 417.07 413.43 418.57 C 422.51 421.23 427.33 432.46 424.07 441.06 C 419.76 449.17 410.87 453.20 405.29 460.28 C 400.83 465.00 399.47 471.62 398.95 477.89 C 404.56 478.11 410.19 478.14 415.80 477.89 C 415.27 468.46 423.12 462.15 429.34 456.36 C 434.29 452.90 438.15 447.85 440.22 442.18 C 442.46 434.25 440.68 425.57 436.32 418.67 C 429.80 406.84 415.41 400.33 402.19 402.20 C 397.03 402.88 392.54 405.65 388.09 408.14 M 399.09 488.09 C 398.86 493.36 398.86 498.64 399.10 503.91 C 404.69 504.14 410.31 504.14 415.90 503.91 C 416.11 498.64 416.12 493.35 415.90 488.09 C 410.30 487.86 404.68 487.86 399.09 488.09 M 813.96 604.93 C 815.82 605.09 817.74 605.18 819.60 604.79 C 820.57 602.78 820.64 599.98 822.93 598.92 C 825.49 597.57 828.72 597.59 831.40 598.58 C 834.84 599.96 835.67 604.39 834.71 607.62 C 831.15 612.41 824.52 615.40 823.96 621.98 C 825.88 622.10 827.82 622.14 829.75 621.91 C 831.09 619.58 832.05 616.95 834.23 615.23 C 837.28 612.14 841.87 609.03 841.05 604.05 C 840.08 598.63 835.79 594.12 830.65 592.32 C 822.80 590.11 813.42 596.44 813.96 604.93 M 824.07 627.06 C 823.87 629.00 823.87 630.98 824.07 632.93 C 826.01 633.12 827.98 633.12 829.94 632.94 C 830.13 630.98 830.13 629.01 829.95 627.06 C 827.99 626.86 826.01 626.86 824.07 627.06 Z" />
<path fill="#000d06" stroke="#000d06" stroke-width="0.09375" opacity="0.10" d=" M 769.36 498.13 C 771.94 497.80 774.41 498.93 776.21 500.75 C 781.14 504.93 781.16 512.04 785.03 516.97 C 787.84 520.49 789.75 524.96 788.66 529.53 C 786.96 531.22 784.79 532.42 783.32 534.34 C 780.48 539.00 780.60 544.95 777.37 549.41 C 774.14 552.48 770.14 554.61 766.83 557.62 C 766.15 557.66 764.79 557.76 764.11 557.80 C 763.67 552.38 762.43 547.09 761.40 541.77 C 760.52 537.43 762.00 533.18 762.97 529.01 C 764.28 523.57 763.77 517.65 766.66 512.66 C 769.29 508.25 768.47 502.97 769.36 498.13 Z" />
<path fill="#000d06" stroke="#000d06" stroke-width="0.09375" opacity="0.10" d=" M 741.75 816.20 C 747.50 817.47 753.44 816.92 759.26 817.62 C 774.53 818.46 789.86 819.35 804.94 822.04 C 808.46 822.88 812.52 823.30 815.13 826.11 C 814.89 829.00 811.64 829.62 809.39 830.36 C 801.06 832.33 792.49 833.04 784.00 834.01 C 772.50 835.45 760.78 834.96 749.36 837.00 L 677.64 837.00 C 673.83 836.09 669.93 835.84 666.03 835.73 C 650.12 834.52 634.08 833.77 618.41 830.57 C 615.97 829.77 612.15 829.30 611.91 826.12 C 613.78 823.84 616.87 823.29 619.58 822.57 C 630.43 820.24 641.54 819.47 652.58 818.51 C 664.26 817.93 675.93 816.69 687.65 816.99 C 688.63 820.06 689.47 823.74 692.64 825.31 C 698.72 828.44 706.35 826.40 711.27 822.01 C 711.85 820.40 712.73 818.93 713.54 817.45 C 715.22 816.86 717.04 816.94 718.80 816.83 L 718.88 817.86 C 719.26 821.84 718.87 826.87 722.77 829.31 C 727.81 833.56 734.94 832.05 740.26 829.19 C 745.13 826.67 741.83 820.37 741.75 816.20 Z" />
</g>
<g id="#005c29af">
<path fill="#005c29" stroke="#005c29" stroke-width="0.09375" opacity="0.69" d=" M 552.94 6.09 C 553.45 5.79 554.46 5.20 554.97 4.91 C 554.46 5.20 553.45 5.79 552.94 6.09 Z" />
</g>
<g id="#00632dbd">
<path fill="#00632d" stroke="#00632d" stroke-width="0.09375" opacity="0.74" d=" M 549.90 6.93 C 550.45 6.70 551.55 6.23 552.10 5.99 C 551.55 6.23 550.45 6.70 549.90 6.93 Z" />
</g>
<g id="#00602cb8">
<path fill="#00602c" stroke="#00602c" stroke-width="0.09375" opacity="0.72" d=" M 543.95 8.98 C 544.49 8.72 545.56 8.20 546.10 7.93 C 545.56 8.20 544.49 8.72 543.95 8.98 Z" />
</g>
<g id="#00612cba">
<path fill="#00612c" stroke="#00612c" stroke-width="0.09375" opacity="0.73" d=" M 517.88 22.07 C 518.37 21.75 519.37 21.09 519.86 20.77 C 519.37 21.09 518.37 21.75 517.88 22.07 Z" />
</g>
<g id="#005326a1">
<path fill="#005326" stroke="#005326" stroke-width="0.09375" opacity="0.63" d=" M 473.64 69.81 C 473.58 68.15 474.41 66.63 475.91 65.87 C 476.36 67.62 475.45 69.40 473.64 69.81 Z" />
</g>
<g id="#00672fc6">
<path fill="#00672f" stroke="#00672f" stroke-width="0.09375" opacity="0.78" d=" M 588.03 66.85 C 588.47 65.30 590.58 65.33 591.08 66.83 C 590.32 66.84 588.79 66.85 588.03 66.85 Z" />
</g>
<g id="#006f33d7">
<path fill="#006f33" stroke="#006f33" stroke-width="0.09375" opacity="0.84" d=" M 591.87 66.70 C 593.77 65.29 596.26 65.30 598.10 66.83 C 596.03 67.28 593.90 67.23 591.87 66.70 Z" />
</g>
<g id="#00602bb7">
<path fill="#00602b" stroke="#00602b" stroke-width="0.09375" opacity="0.72" d=" M 600.86 67.08 C 602.31 66.44 604.01 66.65 605.11 67.88 C 603.63 68.50 601.95 68.28 600.86 67.08 Z" />
<path fill="#00602b" stroke="#00602b" stroke-width="0.09375" opacity="0.72" d=" M 459.01 113.06 C 458.48 111.60 458.70 109.99 459.84 108.88 C 460.60 110.32 460.32 112.05 459.01 113.06 Z" />
<path fill="#00602b" stroke="#00602b" stroke-width="0.09375" opacity="0.72" d=" M 630.01 273.01 C 630.23 272.45 630.68 271.34 630.90 270.79 C 630.68 271.34 630.23 272.45 630.01 273.01 Z" />
</g>
<g id="#005527a4">
<path fill="#005527" stroke="#005527" stroke-width="0.09375" opacity="0.64" d=" M 570.89 70.05 C 571.67 68.83 572.73 68.50 574.08 69.07 C 573.26 70.21 572.20 70.53 570.89 70.05 Z" />
</g>
<g id="#006b30ce">
<path fill="#006b30" stroke="#006b30" stroke-width="0.09375" opacity="0.81" d=" M 567.91 70.91 C 568.45 70.66 569.54 70.17 570.08 69.92 C 569.54 70.17 568.45 70.66 567.91 70.91 Z" />
</g>
<g id="#006e32d5">
<path fill="#006e32" stroke="#006e32" stroke-width="0.09375" opacity="0.84" d=" M 468.97 80.05 C 469.18 79.49 469.61 78.37 469.82 77.82 C 469.61 78.37 469.18 79.49 468.97 80.05 Z" />
</g>
<g id="#005f2bb8">
<path fill="#005f2b" stroke="#005f2b" stroke-width="0.09375" opacity="0.72" d=" M 716.09 83.89 C 716.31 84.44 716.76 85.55 716.99 86.11 C 716.76 85.55 716.31 84.44 716.09 83.89 Z" />
</g>
<g id="#005627a6">
<path fill="#005627" stroke="#005627" stroke-width="0.09375" opacity="0.65" d=" M 461.99 99.12 C 461.52 97.81 461.87 96.77 463.04 95.99 C 463.57 97.34 463.22 98.38 461.99 99.12 Z" />
</g>
<g id="#00612bb9">
<path fill="#00612b" stroke="#00612b" stroke-width="0.09375" opacity="0.73" d=" M 534.00 100.02 C 534.24 99.48 534.74 98.41 534.98 97.87 C 534.74 98.41 534.24 99.48 534.00 100.02 Z" />
</g>
<g id="#00652ec2">
<path fill="#00652e" stroke="#00652e" stroke-width="0.09375" opacity="0.76" d=" M 653.12 105.85 C 653.30 106.42 653.67 107.56 653.85 108.13 C 653.67 107.56 653.30 106.42 653.12 105.85 Z" />
</g>
<g id="#005b28af">
<path fill="#005b28" stroke="#005b28" stroke-width="0.09375" opacity="0.69" d=" M 525.88 119.08 C 525.41 117.75 525.77 116.69 526.97 115.92 C 527.46 117.27 527.09 118.33 525.88 119.08 Z" />
</g>
<g id="#00622dbd">
<path fill="#00622d" stroke="#00622d" stroke-width="0.09375" opacity="0.74" d=" M 524.98 123.08 C 524.48 121.73 524.83 120.66 526.03 119.88 C 526.51 121.22 526.16 122.29 524.98 123.08 Z" />
<path fill="#00622d" stroke="#00622d" stroke-width="0.09375" opacity="0.74" d=" M 615.91 195.95 C 616.43 195.67 617.46 195.10 617.98 194.81 C 617.46 195.10 616.43 195.67 615.91 195.95 Z" />
</g>
<g id="#0051259c">
<path fill="#005125" stroke="#005125" stroke-width="0.09375" opacity="0.61" d=" M 524.87 131.92 C 523.30 131.02 523.36 128.96 524.82 127.98 C 525.32 129.30 525.34 130.62 524.87 131.92 Z" />
</g>
<g id="#00271049">
<path fill="#002710" stroke="#002710" stroke-width="0.09375" opacity="0.29" d=" M 457.17 133.29 C 459.08 133.66 461.00 134.01 462.96 134.07 C 483.32 134.01 503.69 133.97 524.05 134.09 C 522.41 134.54 520.75 134.90 519.05 134.81 C 498.46 134.50 477.86 134.97 457.28 134.59 C 457.25 134.26 457.20 133.61 457.17 133.29 Z" />
</g>
<g id="#005526a4">
<path fill="#005526" stroke="#005526" stroke-width="0.09375" opacity="0.64" d=" M 658.19 137.12 C 659.79 137.44 659.77 139.59 658.27 140.05 C 658.25 139.32 658.21 137.86 658.19 137.12 Z" />
</g>
<g id="#00662fc4">
<path fill="#00662f" stroke="#00662f" stroke-width="0.09375" opacity="0.77" d=" M 650.06 164.00 C 650.26 163.44 650.68 162.33 650.89 161.78 C 650.68 162.33 650.26 163.44 650.06 164.00 Z" />
</g>
<g id="#00642ec2">
<path fill="#00642e" stroke="#00642e" stroke-width="0.09375" opacity="0.76" d=" M 647.83 167.04 C 648.08 166.50 648.58 165.44 648.84 164.90 C 648.58 165.44 648.08 166.50 647.83 167.04 Z" />
</g>
<g id="#00622ebc">
<path fill="#00622e" stroke="#00622e" stroke-width="0.09375" opacity="0.74" d=" M 719.01 167.09 C 719.27 166.56 719.80 165.49 720.07 164.96 C 719.80 165.49 719.27 166.56 719.01 167.09 Z" />
</g>
<g id="#006930cb">
<path fill="#006930" stroke="#006930" stroke-width="0.09375" opacity="0.80" d=" M 567.92 249.99 C 568.16 249.45 568.66 248.36 568.91 247.82 C 568.66 248.36 568.16 249.45 567.92 249.99 Z" />
</g>
<g id="#007033d4">
<path fill="#007033" stroke="#007033" stroke-width="0.09375" opacity="0.83" d=" M 563.99 260.11 C 564.19 259.54 564.59 258.41 564.78 257.85 C 564.59 258.41 564.19 259.54 563.99 260.11 Z" />
</g>
<g id="#00672fc7">
<path fill="#00672f" stroke="#00672f" stroke-width="0.09375" opacity="0.78" d=" M 562.95 263.03 C 563.23 262.51 563.80 261.47 564.09 260.95 C 563.80 261.47 563.23 262.51 562.95 263.03 Z" />
</g>
<g id="#006b30cd">
<path fill="#006b30" stroke="#006b30" stroke-width="0.09375" opacity="0.80" d=" M 627.92 278.12 C 628.18 277.58 628.71 276.49 628.98 275.94 C 628.71 276.49 628.18 277.58 627.92 278.12 Z" />
</g>
<g id="#005f2bb5">
<path fill="#005f2b" stroke="#005f2b" stroke-width="0.09375" opacity="0.71" d=" M 627.76 281.88 C 626.17 281.43 626.41 279.24 628.01 279.01 C 627.95 279.73 627.82 281.16 627.76 281.88 Z" />
</g>
<g id="#005c29b2">
<path fill="#005c29" stroke="#005c29" stroke-width="0.09375" opacity="0.70" d=" M 558.32 287.05 C 559.73 288.47 559.73 290.74 558.16 292.06 C 557.70 290.40 557.75 288.67 558.32 287.05 Z" />
</g>
<g id="#444053ff">
<path fill="#444053" stroke="#444053" stroke-width="0.09375" opacity="1.00" d=" M 722.15 366.86 C 730.30 368.99 738.00 362.25 746.12 364.83 C 751.51 366.73 751.41 373.44 754.75 377.25 C 757.88 379.64 762.36 379.89 764.96 383.05 C 769.07 388.19 770.65 395.14 769.53 401.61 C 768.55 407.67 767.07 414.22 769.83 420.05 C 771.05 423.47 774.76 424.64 777.36 426.76 C 778.28 431.00 775.95 435.16 776.17 439.43 C 776.87 439.58 778.27 439.88 778.97 440.03 C 781.09 441.25 783.28 442.95 783.49 445.60 C 784.44 449.64 782.28 453.43 780.11 456.66 C 776.93 458.42 775.01 461.43 773.55 464.64 C 772.76 466.59 770.29 466.04 768.88 465.23 C 766.53 463.51 765.47 460.58 763.29 458.70 C 757.81 457.72 752.10 458.82 746.68 457.27 C 744.25 455.01 741.31 452.99 740.00 449.83 C 739.45 446.14 741.11 442.41 740.26 438.75 C 737.60 431.29 728.84 427.96 726.72 420.21 C 725.43 413.74 727.80 406.93 725.39 400.61 C 722.78 392.89 715.93 387.69 708.95 384.08 C 707.79 382.83 706.15 381.77 705.68 380.06 C 706.92 377.81 708.82 375.70 708.79 372.98 C 709.20 370.84 708.41 367.88 710.70 366.60 C 714.26 364.51 718.42 366.31 722.15 366.86 Z" />
<path fill="#444053" stroke="#444053" stroke-width="0.09375" opacity="1.00" d=" M 699.10 527.93 C 712.44 528.59 725.79 529.02 739.10 530.08 C 740.00 530.85 741.06 531.65 740.95 533.01 C 741.38 542.26 740.47 551.57 741.38 560.81 C 742.74 571.13 748.90 579.91 755.09 587.96 C 757.87 591.21 760.44 595.22 764.84 596.37 C 763.79 597.48 762.35 598.48 762.29 600.16 C 760.19 613.30 762.39 626.76 759.86 639.86 C 756.27 640.28 752.65 639.98 749.06 639.81 C 740.43 638.93 731.75 639.10 723.09 638.94 C 716.44 639.00 709.70 638.77 703.15 640.20 C 698.37 641.18 693.56 642.04 688.73 642.71 C 686.59 642.05 684.44 641.43 682.42 640.48 C 681.62 636.36 682.24 632.13 681.85 627.98 C 681.51 622.50 678.65 617.64 677.70 612.30 C 675.67 599.99 674.87 587.50 674.95 575.03 C 682.12 570.24 686.17 562.45 689.99 554.99 C 694.19 546.42 697.60 537.39 699.10 527.93 Z" />
<path fill="#444053" stroke="#444053" stroke-width="0.09375" opacity="1.00" d=" M 693.66 786.58 C 693.95 784.02 695.30 781.81 696.84 779.81 C 697.33 786.24 693.27 791.77 692.99 798.12 C 692.61 803.60 689.88 809.07 691.21 814.56 C 697.80 816.00 704.72 816.49 711.38 815.13 C 711.38 817.42 711.40 819.71 711.27 822.01 C 706.35 826.40 698.72 828.44 692.64 825.31 C 689.47 823.74 688.63 820.06 687.65 816.99 C 691.17 807.18 691.86 796.77 693.66 786.58 Z" />
<path fill="#444053" stroke="#444053" stroke-width="0.09375" opacity="1.00" d=" M 718.88 817.86 C 719.82 819.33 720.96 821.10 723.00 820.86 C 728.93 820.89 735.19 820.79 740.58 817.99 C 742.06 821.64 742.61 825.76 740.26 829.19 C 734.94 832.05 727.81 833.56 722.77 829.31 C 718.87 826.87 719.26 821.84 718.88 817.86 Z" />
</g>
<g id="#ae6e79ff">
<path fill="#ae6e79" stroke="#ae6e79" stroke-width="0.09375" opacity="1.00" d=" M 708.95 384.08 C 715.93 387.69 722.78 392.89 725.39 400.61 C 727.80 406.93 725.43 413.74 726.72 420.21 C 728.84 427.96 737.60 431.29 740.26 438.75 C 741.11 442.41 739.45 446.14 740.00 449.83 C 741.31 452.99 744.25 455.01 746.68 457.27 L 746.79 457.99 C 739.92 460.51 734.14 465.13 728.12 469.15 C 724.28 471.97 719.74 468.76 716.36 466.69 C 713.72 465.32 711.40 462.44 708.20 462.77 C 710.35 456.36 713.02 449.94 712.89 443.06 C 712.67 438.77 714.02 434.70 715.99 430.96 C 716.50 429.79 717.04 428.59 717.00 427.29 C 715.85 426.30 714.59 425.48 713.36 424.62 C 704.16 418.85 699.77 406.79 702.41 396.36 C 703.44 391.75 706.09 387.75 708.95 384.08 Z" />
<path fill="#ae6e79" stroke="#ae6e79" stroke-width="0.09375" opacity="1.00" d=" M 591.57 402.90 C 597.69 402.18 603.85 402.71 610.00 402.56 C 613.91 402.59 617.89 402.20 621.77 402.98 C 625.22 406.54 626.17 411.68 628.41 415.98 C 627.16 420.54 623.39 423.85 619.22 425.79 C 618.40 423.41 617.88 420.95 617.18 418.55 C 616.68 416.99 616.28 415.14 614.80 414.21 C 607.28 410.03 598.39 408.30 591.57 402.90 Z" />
<path fill="#ae6e79" stroke="#ae6e79" stroke-width="0.09375" opacity="1.00" d=" M 755.85 561.82 C 757.99 559.51 761.24 558.82 764.11 557.80 C 764.79 557.76 766.15 557.66 766.83 557.62 C 772.20 561.29 776.52 566.39 779.94 571.89 C 778.68 573.39 776.42 573.46 774.69 574.13 C 772.82 573.96 770.96 573.79 769.10 573.62 C 765.01 573.04 760.84 572.07 757.39 569.72 C 754.70 568.17 754.33 564.29 755.85 561.82 Z" />
<path fill="#ae6e79" stroke="#ae6e79" stroke-width="0.09375" opacity="1.00" d=" M 703.15 640.20 C 709.70 638.77 716.44 639.00 723.09 638.94 C 724.73 642.04 725.04 645.56 725.05 649.02 C 725.17 662.53 730.16 675.49 729.95 689.03 C 729.87 693.22 728.70 697.40 729.39 701.59 C 730.02 705.47 731.04 709.28 731.43 713.21 C 731.33 722.81 731.32 732.40 731.05 742.00 C 731.07 751.69 732.28 761.34 732.20 771.04 C 732.09 774.85 733.17 778.59 735.20 781.81 C 737.21 793.00 737.24 804.51 740.07 815.58 C 740.20 816.18 740.45 817.39 740.58 817.99 C 735.19 820.79 728.93 820.89 723.00 820.86 C 720.96 821.10 719.82 819.33 718.88 817.86 L 718.80 816.83 C 719.33 810.53 719.81 804.23 720.77 797.99 C 721.87 792.88 718.91 788.12 719.24 783.02 C 719.41 777.42 717.46 772.12 715.61 766.93 C 713.67 761.03 711.32 755.25 709.83 749.21 C 707.94 742.35 706.87 735.25 704.11 728.66 C 704.61 721.67 702.23 714.97 702.00 708.05 C 701.85 696.00 700.77 683.84 697.73 672.16 C 694.07 662.56 691.08 652.72 688.73 642.71 C 693.56 642.04 698.37 641.18 703.15 640.20 Z" />
</g>
<g id="#4c4981ff">
<path fill="#4c4981" stroke="#4c4981" stroke-width="0.09375" opacity="1.00" d=" M 628.41 415.98 C 631.22 421.40 633.49 427.08 634.96 433.01 C 636.58 439.43 639.79 445.24 642.72 451.11 C 643.90 453.19 643.16 457.04 645.90 457.75 C 650.40 454.52 654.88 451.25 659.95 448.93 C 666.92 444.32 672.79 438.17 678.19 431.84 C 685.51 431.03 692.77 432.78 700.01 433.65 C 705.56 434.62 710.55 431.37 715.99 430.96 C 714.02 434.70 712.67 438.77 712.89 443.06 C 713.02 449.94 710.35 456.36 708.20 462.77 C 707.03 467.36 705.73 471.93 704.68 476.55 C 702.70 487.70 702.12 499.03 700.62 510.24 C 699.95 516.12 699.50 522.03 699.10 527.93 C 697.60 537.39 694.19 546.42 689.99 554.99 C 686.17 562.45 682.12 570.24 674.95 575.03 C 672.83 576.80 671.05 578.94 668.85 580.63 C 663.54 578.49 659.00 574.84 654.22 571.75 C 651.02 569.34 647.24 567.39 644.95 564.00 C 643.31 559.53 645.08 554.71 646.38 550.37 C 650.80 537.96 657.16 526.30 664.30 515.26 C 667.48 510.19 668.07 504.10 669.41 498.41 C 670.83 490.69 672.50 482.99 673.28 475.18 C 668.35 476.81 664.57 480.45 660.27 483.17 C 655.31 485.28 649.75 483.92 644.58 483.51 C 639.46 482.71 633.53 483.31 629.41 479.58 C 625.22 475.78 624.16 469.91 622.06 464.90 C 618.93 457.42 618.46 449.17 615.28 441.71 C 613.49 436.43 610.62 431.54 609.27 426.12 C 610.59 422.52 614.21 420.62 617.18 418.55 C 617.88 420.95 618.40 423.41 619.22 425.79 C 623.39 423.85 627.16 420.54 628.41 415.98 Z" />
<path fill="#4c4981" stroke="#4c4981" stroke-width="0.09375" opacity="1.00" d=" M 746.68 457.27 C 752.10 458.82 757.81 457.72 763.29 458.70 C 765.47 460.58 766.53 463.51 768.88 465.23 C 770.29 466.04 772.76 466.59 773.55 464.64 C 775.01 461.43 776.93 458.42 780.11 456.66 C 781.17 461.58 781.90 466.83 785.11 470.92 C 787.85 474.41 789.85 478.37 791.58 482.44 C 794.62 489.36 801.52 493.50 804.75 500.29 C 806.33 503.52 809.22 505.79 811.19 508.74 C 812.65 513.31 812.69 518.24 812.90 523.00 C 813.03 530.63 807.61 536.70 806.00 543.90 C 805.08 547.89 803.31 551.62 800.82 554.86 C 793.46 561.13 790.91 570.84 785.66 578.62 C 781.60 578.39 778.22 575.86 774.69 574.13 C 776.42 573.46 778.68 573.39 779.94 571.89 C 776.52 566.39 772.20 561.29 766.83 557.62 C 770.14 554.61 774.14 552.48 777.37 549.41 C 780.60 544.95 780.48 539.00 783.32 534.34 C 784.79 532.42 786.96 531.22 788.66 529.53 C 789.75 524.96 787.84 520.49 785.03 516.97 C 781.16 512.04 781.14 504.93 776.21 500.75 C 774.41 498.93 771.94 497.80 769.36 498.13 C 768.47 502.97 769.29 508.25 766.66 512.66 C 763.77 517.65 764.28 523.57 762.97 529.01 C 762.00 533.18 760.52 537.43 761.40 541.77 C 762.43 547.09 763.67 552.38 764.11 557.80 C 761.24 558.82 757.99 559.51 755.85 561.82 C 754.33 564.29 754.70 568.17 757.39 569.72 C 760.84 572.07 765.01 573.04 769.10 573.62 C 768.59 573.74 767.56 573.96 767.04 574.07 C 766.26 578.72 767.86 583.33 768.05 587.97 C 768.51 591.14 767.62 594.52 764.84 596.37 C 760.44 595.22 757.87 591.21 755.09 587.96 C 748.90 579.91 742.74 571.13 741.38 560.81 C 740.47 551.57 741.38 542.26 740.95 533.01 C 741.06 531.65 740.00 530.85 739.10 530.08 C 742.86 528.25 744.78 524.38 747.11 521.12 C 750.15 516.33 754.26 511.12 752.97 505.06 C 750.40 489.44 748.69 473.69 746.79 457.99 L 746.68 457.27 Z" />
</g>
<g id="#0d191334">
<path fill="#0d1913" stroke="#0d1913" stroke-width="0.09375" opacity="0.20" d=" M 778.97 440.03 C 782.34 440.14 785.35 442.69 785.77 446.08 C 785.96 449.91 783.05 453.01 782.62 456.71 C 782.98 462.13 784.81 467.51 788.22 471.80 C 792.35 477.23 793.98 484.23 798.84 489.16 C 802.02 492.37 805.14 495.69 807.37 499.67 C 809.72 503.91 814.48 506.92 814.88 512.10 C 815.41 515.90 815.94 519.76 815.66 523.61 C 815.09 528.84 812.05 533.31 810.23 538.14 C 808.69 542.04 808.12 546.32 806.04 550.01 C 804.86 552.15 802.67 553.38 800.82 554.86 C 803.31 551.62 805.08 547.89 806.00 543.90 C 807.61 536.70 813.03 530.63 812.90 523.00 C 812.69 518.24 812.65 513.31 811.19 508.74 C 809.22 505.79 806.33 503.52 804.75 500.29 C 801.52 493.50 794.62 489.36 791.58 482.44 C 789.85 478.37 787.85 474.41 785.11 470.92 C 781.90 466.83 781.17 461.58 780.11 456.66 C 782.28 453.43 784.44 449.64 783.49 445.60 C 783.28 442.95 781.09 441.25 778.97 440.03 Z" />
</g>
<g id="#ffffffff">
<path fill="#ffffff" stroke="#ffffff" stroke-width="0.09375" opacity="1.00" d=" M 728.12 469.15 C 734.14 465.13 739.92 460.51 746.79 457.99 C 748.69 473.69 750.40 489.44 752.97 505.06 C 754.26 511.12 750.15 516.33 747.11 521.12 C 744.78 524.38 742.86 528.25 739.10 530.08 C 725.79 529.02 712.44 528.59 699.10 527.93 C 699.50 522.03 699.95 516.12 700.62 510.24 C 702.12 499.03 702.70 487.70 704.68 476.55 C 705.73 471.93 707.03 467.36 708.20 462.77 C 711.40 462.44 713.72 465.32 716.36 466.69 C 719.74 468.76 724.28 471.97 728.12 469.15 Z" />
</g>
<g id="#9c636dff">
<path fill="#9c636d" stroke="#9c636d" stroke-width="0.09375" opacity="1.00" d=" M 723.09 638.94 C 731.75 639.10 740.43 638.93 749.06 639.81 C 747.05 645.94 744.60 651.93 741.72 657.71 C 736.78 664.79 736.28 673.63 734.84 681.86 C 732.79 692.21 733.60 702.87 731.43 713.21 C 731.04 709.28 730.02 705.47 729.39 701.59 C 728.70 697.40 729.87 693.22 729.95 689.03 C 730.16 675.49 725.17 662.53 725.05 649.02 C 725.04 645.56 724.73 642.04 723.09 638.94 Z" />
<path fill="#9c636d" stroke="#9c636d" stroke-width="0.09375" opacity="1.00" d=" M 704.11 728.66 C 706.87 735.25 707.94 742.35 709.83 749.21 C 711.32 755.25 713.67 761.03 715.61 766.93 C 713.09 771.96 713.46 777.58 713.00 783.01 C 709.96 793.46 711.84 804.42 711.38 815.13 C 704.72 816.49 697.80 816.00 691.21 814.56 C 689.88 809.07 692.61 803.60 692.99 798.12 C 693.27 791.77 697.33 786.24 696.84 779.81 C 697.78 777.86 698.68 775.90 699.50 773.91 C 701.96 768.36 700.90 762.15 701.55 756.29 C 702.41 747.08 702.65 737.80 704.11 728.66 Z" />
</g>
<g id="#27282657">
<path fill="#272826" stroke="#272826" stroke-width="0.09375" opacity="0.34" d=" M 734.84 681.86 C 736.28 673.63 736.78 664.79 741.72 657.71 C 736.50 671.25 735.09 685.86 734.16 700.23 C 733.32 707.79 732.28 715.36 732.65 722.99 C 733.13 731.32 731.63 739.63 732.66 747.94 C 732.33 755.99 733.91 763.94 733.76 772.00 C 732.63 779.10 739.42 783.33 741.42 789.48 C 744.57 798.14 741.37 807.33 741.75 816.20 C 741.83 820.37 745.13 826.67 740.26 829.19 C 742.61 825.76 742.06 821.64 740.58 817.99 C 740.45 817.39 740.20 816.18 740.07 815.58 C 741.41 808.45 741.07 801.17 740.97 793.96 C 740.87 789.26 738.39 785.09 735.20 781.81 C 733.17 778.59 732.09 774.85 732.20 771.04 C 732.28 761.34 731.07 751.69 731.05 742.00 C 731.32 732.40 731.33 722.81 731.43 713.21 C 733.60 702.87 732.79 692.21 734.84 681.86 Z" />
</g>
<g id="#454053ff">
<path fill="#454053" stroke="#454053" stroke-width="0.09375" opacity="1.00" d=" M 735.20 781.81 C 738.39 785.09 740.87 789.26 740.97 793.96 C 741.07 801.17 741.41 808.45 740.07 815.58 C 737.24 804.51 737.21 793.00 735.20 781.81 Z" />
</g>
</svg>
