<?xml version="1.0" encoding="UTF-8" ?>
<!DOCTYPE svg PUBLIC "-//W3C//DTD SVG 1.1//EN" "http://www.w3.org/Graphics/SVG/1.1/DTD/svg11.dtd">
<svg width="1111pt" height="590pt" viewBox="0 0 1111 590" version="1.1" xmlns="http://www.w3.org/2000/svg">
<g id="#000d061a">
<path fill="#000d06" stroke="#000d06" stroke-width="0.09375" opacity="0.10" d=" M 105.51 0.00 L 116.46 0.00 C 123.23 2.15 130.14 4.13 136.30 7.77 C 146.24 13.47 156.69 18.57 167.97 21.00 C 192.17 26.95 217.26 25.21 241.93 25.09 C 258.96 25.05 275.97 23.94 293.00 23.97 C 328.84 23.41 365.07 23.04 400.30 30.60 C 424.08 35.50 447.11 44.38 467.71 57.29 C 487.37 69.30 505.46 83.62 524.35 96.74 C 530.78 101.49 537.83 105.31 544.28 110.03 C 523.23 108.64 502.20 105.22 481.04 106.35 C 468.20 107.05 455.01 109.86 444.36 117.42 C 437.23 122.25 431.98 129.33 427.67 136.67 C 418.19 153.46 413.96 172.62 404.36 189.34 C 399.50 198.13 392.38 205.29 385.30 212.28 C 378.28 218.99 372.17 226.56 366.78 234.61 C 365.97 232.12 365.01 229.62 364.90 226.98 C 365.30 223.98 366.49 221.17 367.23 218.26 C 371.39 202.55 372.25 185.95 369.64 169.91 C 368.58 163.93 370.48 157.91 369.69 151.91 C 368.62 138.20 358.39 127.96 349.45 118.53 C 342.96 112.67 337.59 105.70 330.89 100.07 C 324.02 93.97 316.29 88.95 308.28 84.48 C 305.46 81.48 301.69 79.77 297.93 78.26 C 273.83 67.36 245.99 64.99 220.38 71.55 C 182.36 80.82 150.09 110.36 137.48 147.40 C 128.73 172.45 128.45 200.54 137.43 225.58 C 137.95 227.33 138.66 229.16 138.25 231.02 C 137.17 236.54 135.13 242.13 131.11 246.21 C 128.91 248.82 125.59 251.24 125.71 255.02 C 125.55 257.23 127.05 259.04 128.80 260.18 C 133.40 263.29 138.62 265.71 144.22 266.17 C 146.97 266.58 149.79 266.63 152.50 267.36 C 154.76 271.36 155.84 275.91 158.04 279.95 C 165.42 294.11 175.64 306.99 188.73 316.28 C 190.36 317.58 192.36 318.59 193.53 320.37 C 194.98 325.21 190.77 328.72 187.99 331.99 C 182.49 338.51 175.99 344.07 170.39 350.49 C 171.04 350.40 172.33 350.24 172.98 350.16 C 167.32 353.71 162.31 358.14 156.98 362.13 C 152.07 365.18 146.78 367.70 141.23 369.35 C 137.00 369.14 131.48 370.41 128.76 366.22 C 113.70 347.99 96.39 331.70 77.69 317.27 C 63.99 306.57 49.28 297.20 35.96 286.02 C 26.40 277.54 17.03 268.52 10.64 257.33 C 5.14 248.92 2.40 239.17 0.00 229.51 L 0.00 215.57 C 1.54 209.85 2.79 203.98 5.54 198.68 C 16.22 176.08 36.72 160.07 47.78 137.69 C 52.04 129.84 53.97 120.78 53.44 111.87 C 52.11 96.20 44.80 81.27 46.42 65.32 C 48.10 41.20 62.90 18.50 84.31 7.27 C 90.90 3.63 98.21 1.65 105.51 0.00 Z" />
<path fill="#000d06" stroke="#000d06" stroke-width="0.09375" opacity="0.10" d=" M 637.71 141.06 C 651.82 142.05 665.86 144.14 680.03 144.26 C 692.53 145.40 705.11 144.38 717.62 145.43 C 709.96 153.42 706.13 164.88 707.61 175.86 C 708.58 184.70 714.15 192.15 715.51 200.89 C 718.17 215.69 713.52 230.37 709.62 244.50 C 708.59 248.67 706.85 252.71 706.55 257.02 C 706.43 260.14 709.52 261.67 711.64 263.31 C 718.81 267.98 722.33 276.61 722.86 284.89 C 723.49 295.77 720.25 306.34 717.80 316.82 C 713.44 333.91 707.39 351.75 693.79 363.79 C 691.63 358.66 689.13 353.67 686.45 348.79 C 686.69 345.45 684.48 342.77 682.97 340.01 C 675.52 326.83 670.44 312.16 669.11 297.03 C 667.98 282.43 672.00 268.13 675.12 254.01 C 678.79 239.06 681.02 223.28 677.73 208.04 C 675.08 196.38 669.85 185.47 663.82 175.20 C 656.40 162.92 648.13 151.00 637.71 141.06 Z" />
<path fill="#000d06" stroke="#000d06" stroke-width="0.09375" opacity="0.10" d=" M 345.23 277.18 C 350.47 279.86 356.06 281.91 361.82 283.16 C 364.98 283.88 368.50 284.10 371.31 282.17 C 374.26 286.27 375.62 291.19 377.20 295.92 C 384.56 317.18 388.98 341.06 380.83 362.77 C 379.47 362.65 378.11 362.52 376.76 362.37 C 363.99 356.61 352.55 348.47 340.42 341.53 C 331.98 336.78 324.38 330.67 315.96 325.90 C 315.22 322.58 314.28 319.32 313.49 316.03 C 327.05 305.94 338.10 292.52 345.23 277.18 Z" />
<path fill="#000d06" stroke="#000d06" stroke-width="0.09375" opacity="0.10" d=" M 1037.56 396.14 C 1042.29 397.12 1046.74 399.02 1051.19 400.85 C 1065.56 406.46 1080.13 412.73 1091.74 423.15 C 1101.50 431.88 1108.27 443.66 1111.00 456.47 L 1111.00 467.51 C 1109.33 472.73 1107.85 478.13 1104.84 482.78 C 1100.73 489.19 1095.66 494.91 1090.35 500.35 C 1078.78 513.46 1065.95 525.42 1052.40 536.46 C 1037.43 548.51 1020.67 558.78 1002.09 564.13 C 982.21 570.19 960.54 568.94 941.06 562.00 C 917.11 554.06 895.94 540.04 874.06 527.84 C 855.60 517.62 836.29 508.07 815.29 504.54 C 806.65 502.68 797.79 503.18 789.03 503.04 C 782.63 502.60 776.28 503.67 770.08 505.10 C 765.18 506.23 761.22 509.51 756.98 512.02 C 751.79 515.44 745.74 517.98 741.95 523.13 C 741.08 512.48 740.07 501.85 739.19 491.21 C 755.44 491.16 771.70 491.19 787.95 491.19 C 800.27 491.75 812.61 491.48 824.94 491.54 C 898.13 491.55 971.31 491.50 1044.50 491.56 C 1049.17 484.54 1053.85 477.52 1058.54 470.52 C 1061.48 466.69 1059.73 461.70 1059.47 457.35 C 1057.11 435.60 1050.02 414.22 1037.56 396.14 Z" />
<path fill="#000d06" stroke="#000d06" stroke-width="0.09375" opacity="0.10" d=" M 194.14 491.94 C 235.06 491.84 276.00 491.76 316.92 491.99 C 314.72 504.32 311.79 516.51 309.71 528.86 C 428.47 528.87 547.24 528.87 666.00 528.87 C 689.77 529.01 713.54 528.56 737.30 529.11 C 730.91 533.14 723.64 535.83 717.97 540.97 C 712.10 546.41 705.17 550.87 700.75 557.71 C 697.85 561.27 696.96 566.28 693.10 569.05 C 682.77 576.75 671.59 583.78 659.01 587.06 C 652.96 588.84 646.60 588.84 640.44 590.00 L 639.47 590.00 C 634.68 589.10 629.79 588.99 624.97 588.36 C 611.91 586.25 599.16 582.60 586.61 578.46 C 568.74 572.86 551.47 565.53 534.64 557.36 C 528.17 554.49 524.80 547.70 518.70 544.30 C 514.23 541.80 510.05 538.71 505.30 536.75 C 499.38 535.00 493.12 534.95 487.03 534.14 C 478.55 533.01 470.25 535.49 462.02 537.13 C 453.74 538.92 446.14 543.22 440.15 549.18 C 435.91 553.78 429.52 554.84 423.88 556.81 C 389.03 567.97 352.59 574.17 316.00 575.01 C 298.95 575.27 281.80 575.05 264.96 572.12 C 249.37 569.28 233.77 564.55 220.59 555.50 C 210.54 548.81 202.01 539.12 198.52 527.39 C 194.69 515.96 196.14 503.69 194.14 491.94 Z" />
</g>
<g id="#0e1a1333">
<path fill="#0e1a13" stroke="#0e1a13" stroke-width="0.09375" opacity="0.20" d=" M 220.38 71.55 C 245.99 64.99 273.83 67.36 297.93 78.26 C 301.69 79.77 305.46 81.48 308.28 84.48 C 285.80 73.14 259.78 68.82 234.91 73.12 C 204.09 78.13 175.78 96.28 158.14 122.00 C 137.07 152.05 131.69 192.32 144.06 226.86 C 146.24 232.07 143.65 237.65 141.32 242.34 C 139.15 246.79 134.55 249.50 132.57 254.03 C 131.66 257.63 135.77 259.30 137.94 261.28 C 139.50 263.51 141.73 265.12 144.22 266.17 C 138.62 265.71 133.40 263.29 128.80 260.18 C 127.05 259.04 125.55 257.23 125.71 255.02 C 125.59 251.24 128.91 248.82 131.11 246.21 C 135.13 242.13 137.17 236.54 138.25 231.02 C 138.66 229.16 137.95 227.33 137.43 225.58 C 128.45 200.54 128.73 172.45 137.48 147.40 C 150.09 110.36 182.36 80.82 220.38 71.55 Z" />
</g>
<g id="#c3705aff">
<path fill="#c3705a" stroke="#c3705a" stroke-width="0.09375" opacity="1.00" d=" M 234.91 73.12 C 259.78 68.82 285.80 73.14 308.28 84.48 C 316.29 88.95 324.02 93.97 330.89 100.07 C 337.59 105.70 342.96 112.67 349.45 118.53 C 358.39 127.96 368.62 138.20 369.69 151.91 C 370.48 157.91 368.58 163.93 369.64 169.91 C 372.25 185.95 371.39 202.55 367.23 218.26 C 366.49 221.17 365.30 223.98 364.90 226.98 C 365.01 229.62 365.97 232.12 366.78 234.61 C 367.35 236.31 367.89 238.01 368.36 239.74 C 364.00 252.79 368.88 266.26 373.83 278.35 C 372.99 279.62 372.19 280.93 371.31 282.17 C 368.50 284.10 364.98 283.88 361.82 283.16 C 356.06 281.91 350.47 279.86 345.23 277.18 C 333.57 271.24 324.16 260.16 322.01 247.05 C 320.95 242.06 322.10 236.99 321.82 231.97 C 321.67 228.79 318.40 227.39 316.22 225.69 C 307.72 220.08 304.86 209.61 302.35 200.33 C 295.55 200.76 288.62 201.17 281.94 199.54 C 271.91 197.14 262.23 192.41 254.85 185.12 C 249.65 179.97 247.09 172.40 240.81 168.34 C 234.70 165.59 228.63 170.22 222.98 172.16 C 215.80 175.48 207.87 172.07 200.43 173.67 C 194.72 175.35 191.12 180.86 189.53 186.31 C 187.34 194.42 189.14 202.82 189.13 211.07 C 189.39 223.05 186.16 234.69 183.22 246.20 C 181.94 250.99 180.34 256.07 176.48 259.44 C 171.50 263.73 164.89 265.72 158.42 266.11 C 151.27 266.45 144.27 264.50 137.94 261.28 C 135.77 259.30 131.66 257.63 132.57 254.03 C 134.55 249.50 139.15 246.79 141.32 242.34 C 143.65 237.65 146.24 232.07 144.06 226.86 C 131.69 192.32 137.07 152.05 158.14 122.00 C 175.78 96.28 204.09 78.13 234.91 73.12 Z" />
</g>
<g id="#0e0e0e1c">
<path fill="#0e0e0e" stroke="#0e0e0e" stroke-width="0.09375" opacity="0.11" d=" M 784.38 81.41 C 797.27 76.91 811.30 77.55 824.63 79.46 C 834.14 80.66 843.48 83.02 853.02 84.04 C 863.37 85.16 873.62 82.08 883.97 82.98 C 906.51 84.90 928.12 97.47 940.13 116.76 C 945.93 126.42 949.81 137.08 953.36 147.72 C 957.54 160.47 962.07 173.43 962.20 187.00 C 962.55 203.38 955.89 218.79 954.36 234.95 C 953.15 248.51 956.08 262.38 962.58 274.34 C 968.11 285.00 977.01 294.02 980.01 305.91 C 977.81 306.02 975.61 306.13 973.43 306.24 C 970.05 293.21 960.10 283.43 954.53 271.44 C 948.39 258.60 946.47 243.86 948.89 229.85 C 951.21 215.90 956.33 202.28 955.85 187.97 C 955.36 172.73 949.79 158.33 945.02 144.04 C 940.31 130.35 934.31 116.51 923.51 106.46 C 911.54 95.01 895.58 87.92 879.12 86.30 C 868.74 85.23 858.45 88.62 848.07 87.32 C 832.06 85.34 816.25 80.94 799.99 81.57 C 792.25 81.67 784.56 83.19 777.37 86.08 C 779.29 83.98 781.62 82.24 784.38 81.41 Z" />
</g>
<g id="#f7d6c8ff">
<path fill="#f7d6c8" stroke="#f7d6c8" stroke-width="0.09375" opacity="1.00" d=" M 777.37 86.08 C 784.56 83.19 792.25 81.67 799.99 81.57 C 816.25 80.94 832.06 85.34 848.07 87.32 C 858.45 88.62 868.74 85.23 879.12 86.30 C 895.58 87.92 911.54 95.01 923.51 106.46 C 934.31 116.51 940.31 130.35 945.02 144.04 C 949.79 158.33 955.36 172.73 955.85 187.97 C 956.33 202.28 951.21 215.90 948.89 229.85 C 946.47 243.86 948.39 258.60 954.53 271.44 C 960.10 283.43 970.05 293.21 973.43 306.24 C 974.74 312.08 973.72 318.36 970.43 323.38 C 966.72 329.54 961.07 334.76 959.41 341.99 C 958.43 345.83 958.90 349.82 959.50 353.68 C 950.57 353.48 941.67 351.82 933.21 349.00 C 921.80 344.18 910.08 339.52 900.21 331.87 C 891.85 326.42 884.96 319.14 878.14 311.95 C 877.57 310.21 877.00 308.48 876.43 306.76 C 887.54 298.91 897.54 289.32 904.80 277.76 C 914.44 262.08 919.42 243.52 918.62 225.11 C 917.57 202.82 908.48 180.62 892.41 164.96 C 892.29 180.98 883.48 195.47 872.14 206.19 C 861.48 217.08 847.79 227.11 831.87 226.92 C 838.89 218.93 845.24 210.05 847.97 199.61 C 841.95 202.37 837.40 207.28 832.33 211.37 C 829.90 213.31 827.72 215.53 825.66 217.84 C 820.19 222.60 813.25 225.58 806.07 226.44 C 801.63 227.04 797.31 225.52 793.17 224.13 C 793.20 221.94 795.50 221.14 797.01 220.06 C 810.61 212.41 822.20 201.01 829.79 187.35 C 821.48 188.74 814.79 194.35 808.77 199.86 C 802.61 206.08 796.05 211.96 790.57 218.80 C 780.80 228.70 766.89 234.07 753.03 233.81 C 746.54 234.18 740.01 233.21 734.19 230.23 C 734.41 230.47 734.86 230.96 735.09 231.20 C 734.38 245.87 739.11 260.27 745.89 273.11 C 754.95 290.00 769.64 303.76 786.91 312.01 C 787.01 312.53 787.21 313.58 787.31 314.11 C 787.58 316.53 787.59 318.98 787.61 321.42 C 781.30 328.83 775.67 337.06 767.61 342.73 C 759.71 348.82 751.23 354.18 742.13 358.27 C 730.17 362.50 717.45 363.83 704.93 365.41 C 701.72 365.78 698.58 366.62 695.55 367.75 C 695.75 369.25 695.95 370.76 696.17 372.27 L 695.77 371.38 C 694.91 368.91 694.65 366.27 693.79 363.79 C 707.39 351.75 713.44 333.91 717.80 316.82 C 720.25 306.34 723.49 295.77 722.86 284.89 C 722.33 276.61 718.81 267.98 711.64 263.31 C 709.52 261.67 706.43 260.14 706.55 257.02 C 706.85 252.71 708.59 248.67 709.62 244.50 C 713.52 230.37 718.17 215.69 715.51 200.89 C 714.15 192.15 708.58 184.70 707.61 175.86 C 706.13 164.88 709.96 153.42 717.62 145.43 C 727.32 135.72 741.20 131.64 750.77 121.77 C 758.78 113.39 760.77 101.12 768.69 92.66 C 771.14 89.93 774.29 88.01 777.37 86.08 Z" />
</g>
<g id="#0d1b1332">
<path fill="#0d1b13" stroke="#0d1b13" stroke-width="0.09375" opacity="0.20" d=" M 444.36 117.42 C 455.01 109.86 468.20 107.05 481.04 106.35 C 502.20 105.22 523.23 108.64 544.28 110.03 C 545.10 110.33 545.93 110.64 546.76 110.95 C 548.30 112.02 549.78 113.17 551.33 114.24 C 535.93 112.28 520.50 110.54 505.00 109.62 C 488.79 108.78 471.89 108.38 456.57 114.55 C 446.24 118.59 437.62 126.28 431.75 135.62 C 419.95 154.20 416.28 176.70 404.21 195.15 C 393.80 211.25 375.69 221.50 368.36 239.74 C 367.89 238.01 367.35 236.31 366.78 234.61 C 372.17 226.56 378.28 218.99 385.30 212.28 C 392.38 205.29 399.50 198.13 404.36 189.34 C 413.96 172.62 418.19 153.46 427.67 136.67 C 431.98 129.33 437.23 122.25 444.36 117.42 Z" />
</g>
<g id="#463a3eff">
<path fill="#463a3e" stroke="#463a3e" stroke-width="0.09375" opacity="1.00" d=" M 456.57 114.55 C 471.89 108.38 488.79 108.78 505.00 109.62 C 520.50 110.54 535.93 112.28 551.33 114.24 C 569.62 116.93 588.28 118.64 605.72 125.19 C 615.48 128.70 624.79 133.65 632.76 140.34 C 644.63 150.33 653.59 163.22 661.67 176.34 C 670.52 191.01 677.67 207.52 677.45 224.96 C 677.18 245.08 669.38 264.07 667.43 283.98 C 665.27 307.06 674.05 329.72 686.45 348.79 C 689.13 353.67 691.63 358.66 693.79 363.79 C 694.65 366.27 694.91 368.91 695.77 371.38 L 696.17 372.27 C 698.05 376.26 699.00 380.60 700.04 384.87 C 701.18 389.85 703.10 394.77 702.73 399.98 C 702.31 405.36 703.94 410.62 703.76 416.00 C 703.65 422.28 703.81 428.57 703.68 434.85 C 702.31 447.94 699.94 460.90 698.58 473.99 C 698.43 481.34 698.64 488.70 698.51 496.06 C 698.39 506.11 702.01 515.62 703.88 525.37 C 674.59 525.35 645.31 525.37 616.02 525.36 C 604.77 525.28 593.53 525.83 582.29 525.34 C 581.29 521.26 580.62 517.08 581.80 512.96 C 581.63 505.22 583.80 497.76 586.34 490.53 C 588.75 482.64 591.34 474.79 592.58 466.61 C 593.38 460.72 595.91 454.78 594.31 448.83 C 593.72 445.02 594.33 441.12 593.44 437.35 C 591.38 429.26 589.44 421.05 585.31 413.71 C 580.82 404.15 577.09 394.16 574.54 383.90 C 572.65 375.31 572.24 366.19 574.72 357.68 C 576.66 350.90 580.18 344.73 583.52 338.56 C 585.91 334.45 583.90 329.52 585.02 325.13 C 587.86 320.27 592.45 316.41 594.24 310.95 C 595.29 303.38 591.63 296.28 588.49 289.65 C 576.79 265.64 575.58 238.06 563.93 214.03 C 558.42 202.70 550.49 191.92 539.15 185.90 C 528.02 179.67 513.58 177.83 502.09 184.16 C 491.64 189.85 485.32 200.75 481.72 211.73 C 475.64 230.84 477.09 251.66 469.29 270.33 C 461.56 290.91 447.44 309.90 447.17 332.64 C 455.48 340.29 465.06 346.49 475.42 350.99 C 475.48 359.13 475.43 367.29 474.63 375.40 C 474.54 377.21 474.19 379.07 474.59 380.87 C 475.63 383.22 477.33 385.20 478.62 387.41 C 485.57 398.60 487.38 412.79 483.49 425.38 C 480.27 436.17 472.39 444.73 468.57 455.27 C 468.26 454.90 467.65 454.17 467.34 453.80 C 464.97 464.84 462.18 475.80 459.82 486.85 C 458.84 491.57 457.04 496.06 455.25 500.52 C 454.42 503.19 453.55 505.86 452.72 508.53 C 448.90 514.07 445.13 519.65 441.56 525.35 C 415.73 525.80 389.90 525.13 364.06 525.36 C 347.10 525.27 330.13 525.55 313.17 525.22 C 315.82 513.61 317.64 501.82 320.52 490.27 C 322.14 481.43 321.88 471.77 326.92 463.93 C 332.59 453.31 339.34 443.31 346.55 433.68 C 335.70 437.13 332.18 449.35 323.28 455.44 C 325.11 449.91 327.34 444.53 329.01 438.95 C 331.24 431.23 336.32 424.85 339.84 417.73 C 341.79 414.11 343.08 410.04 345.89 406.95 C 349.97 402.67 354.20 398.51 358.88 394.88 C 366.52 387.49 373.87 379.82 381.50 372.41 C 383.34 370.79 384.44 368.57 385.26 366.30 C 384.54 366.00 383.09 365.38 382.36 365.07 C 389.65 348.02 389.17 328.68 384.77 310.95 C 382.10 299.78 378.08 289.00 373.83 278.35 C 368.88 266.26 364.00 252.79 368.36 239.74 C 375.69 221.50 393.80 211.25 404.21 195.15 C 416.28 176.70 419.95 154.20 431.75 135.62 C 437.62 126.28 446.24 118.59 456.57 114.55 Z" />
</g>
<g id="#0d0d0d1b">
<path fill="#0d0d0d" stroke="#0d0d0d" stroke-width="0.09375" opacity="0.11" d=" M 546.76 110.95 C 560.57 112.54 574.40 114.23 588.02 117.07 C 605.45 120.94 622.82 127.62 636.25 139.72 C 635.37 139.88 633.63 140.18 632.76 140.34 C 624.79 133.65 615.48 128.70 605.72 125.19 C 588.28 118.64 569.62 116.93 551.33 114.24 C 549.78 113.17 548.30 112.02 546.76 110.95 Z" />
</g>
<g id="#101c1538">
<path fill="#101c15" stroke="#101c15" stroke-width="0.09375" opacity="0.22" d=" M 632.76 140.34 C 633.63 140.18 635.37 139.88 636.25 139.72 C 636.61 140.06 637.34 140.73 637.71 141.06 C 648.13 151.00 656.40 162.92 663.82 175.20 C 669.85 185.47 675.08 196.38 677.73 208.04 C 681.02 223.28 678.79 239.06 675.12 254.01 C 672.00 268.13 667.98 282.43 669.11 297.03 C 670.44 312.16 675.52 326.83 682.97 340.01 C 684.48 342.77 686.69 345.45 686.45 348.79 C 674.05 329.72 665.27 307.06 667.43 283.98 C 669.38 264.07 677.18 245.08 677.45 224.96 C 677.67 207.52 670.52 191.01 661.67 176.34 C 653.59 163.22 644.63 150.33 632.76 140.34 Z" />
<path fill="#101c15" stroke="#101c15" stroke-width="0.09375" opacity="0.22" d=" M 137.94 261.28 C 144.27 264.50 151.27 266.45 158.42 266.11 C 165.43 287.93 180.30 306.90 199.41 319.46 C 199.30 322.36 199.15 325.28 199.50 328.18 C 199.03 326.97 198.54 325.78 198.02 324.60 C 195.28 327.68 193.13 331.27 190.07 334.07 C 187.62 336.37 184.76 338.27 182.86 341.10 C 180.22 344.76 176.72 347.68 172.98 350.16 C 172.33 350.24 171.04 350.40 170.39 350.49 C 175.99 344.07 182.49 338.51 187.99 331.99 C 190.77 328.72 194.98 325.21 193.53 320.37 C 192.36 318.59 190.36 317.58 188.73 316.28 C 175.64 306.99 165.42 294.11 158.04 279.95 C 155.84 275.91 154.76 271.36 152.50 267.36 C 149.79 266.63 146.97 266.58 144.22 266.17 C 141.73 265.12 139.50 263.51 137.94 261.28 Z" />
</g>
<g id="#efb7b9ff">
<path fill="#efb7b9" stroke="#efb7b9" stroke-width="0.09375" opacity="1.00" d=" M 892.41 164.96 C 908.48 180.62 917.57 202.82 918.62 225.11 C 919.42 243.52 914.44 262.08 904.80 277.76 C 897.54 289.32 887.54 298.91 876.43 306.76 C 877.00 308.48 877.57 310.21 878.14 311.95 C 879.65 321.18 878.66 330.63 875.64 339.47 C 870.95 352.03 864.52 363.88 857.17 375.08 C 852.41 381.69 847.72 388.63 845.66 396.61 C 843.27 406.52 841.78 416.61 839.85 426.60 C 837.31 427.85 834.70 430.74 831.66 429.46 C 830.02 417.30 827.31 405.15 821.94 394.04 C 813.54 379.90 802.46 367.42 795.42 352.46 C 790.27 343.01 787.25 332.23 787.61 321.42 C 787.59 318.98 787.58 316.53 787.31 314.11 C 812.18 326.42 842.73 325.86 867.49 313.51 C 870.72 311.76 874.65 310.53 876.45 307.05 C 871.66 308.84 867.34 311.61 862.67 313.64 C 838.71 323.95 810.41 323.27 786.91 312.01 C 769.64 303.76 754.95 290.00 745.89 273.11 C 739.11 260.27 734.38 245.87 735.09 231.20 C 742.88 234.92 751.70 234.70 760.09 233.95 C 771.46 232.42 782.98 227.65 790.57 218.80 C 796.05 211.96 802.61 206.08 808.77 199.86 C 814.79 194.35 821.48 188.74 829.79 187.35 C 822.20 201.01 810.61 212.41 797.01 220.06 C 795.50 221.14 793.20 221.94 793.17 224.13 C 797.66 226.47 802.94 227.90 807.97 226.63 C 814.42 225.26 821.14 222.89 825.66 217.84 C 827.72 215.53 829.90 213.31 832.33 211.37 C 837.40 207.28 841.95 202.37 847.97 199.61 C 845.24 210.05 838.89 218.93 831.87 226.92 C 847.79 227.11 861.48 217.08 872.14 206.19 C 883.48 195.47 892.29 180.98 892.41 164.96 Z" />
</g>
<g id="#ecb4b6ff">
<path fill="#ecb4b6" stroke="#ecb4b6" stroke-width="0.09375" opacity="1.00" d=" M 222.98 172.16 C 228.63 170.22 234.70 165.59 240.81 168.34 C 247.09 172.40 249.65 179.97 254.85 185.12 C 262.23 192.41 271.91 197.14 281.94 199.54 C 288.62 201.17 295.55 200.76 302.35 200.33 C 304.86 209.61 307.72 220.08 316.22 225.69 C 318.40 227.39 321.67 228.79 321.82 231.97 C 322.10 236.99 320.95 242.06 322.01 247.05 C 324.16 260.16 333.57 271.24 345.23 277.18 C 338.10 292.52 327.05 305.94 313.49 316.03 C 314.28 319.32 315.22 322.58 315.96 325.90 C 317.30 332.93 317.93 340.08 318.97 347.17 C 319.98 352.32 318.37 357.47 317.80 362.58 C 317.22 367.83 313.87 372.09 312.02 376.90 C 310.96 379.67 308.21 381.13 306.13 383.05 C 299.61 389.03 292.20 393.91 285.03 399.05 C 279.60 402.25 274.45 406.34 268.14 407.66 C 261.54 409.21 254.81 411.25 247.96 410.22 C 243.15 409.41 238.08 408.81 233.89 406.13 C 230.58 404.07 227.20 402.11 223.87 400.09 C 220.08 397.92 217.97 393.96 214.99 390.92 C 212.79 388.26 209.75 385.71 209.59 382.01 C 208.31 370.57 206.16 359.26 203.94 347.98 C 203.11 341.25 201.90 334.54 199.50 328.18 C 199.15 325.28 199.30 322.36 199.41 319.46 C 180.30 306.90 165.43 287.93 158.42 266.11 C 164.89 265.72 171.50 263.73 176.48 259.44 C 180.34 256.07 181.94 250.99 183.22 246.20 C 186.16 234.69 189.39 223.05 189.13 211.07 C 189.14 202.82 187.34 194.42 189.53 186.31 C 191.12 180.86 194.72 175.35 200.43 173.67 C 207.87 172.07 215.80 175.48 222.98 172.16 Z" />
</g>
<g id="#c17174ff">
<path fill="#c17174" stroke="#c17174" stroke-width="0.09375" opacity="1.00" d=" M 502.09 184.16 C 513.58 177.83 528.02 179.67 539.15 185.90 C 550.49 191.92 558.42 202.70 563.93 214.03 C 575.58 238.06 576.79 265.64 588.49 289.65 C 591.63 296.28 595.29 303.38 594.24 310.95 C 592.45 316.41 587.86 320.27 585.02 325.13 C 583.90 329.52 585.91 334.45 583.52 338.56 C 580.18 344.73 576.66 350.90 574.72 357.68 C 572.24 366.19 572.65 375.31 574.54 383.90 C 577.09 394.16 580.82 404.15 585.31 413.71 C 579.97 416.57 574.55 419.31 569.42 422.52 C 561.89 429.31 562.00 440.01 558.82 448.92 C 548.03 474.46 536.31 499.61 525.67 525.21 C 522.41 525.27 519.13 525.27 515.91 524.65 L 515.57 523.95 C 515.50 523.83 515.38 523.59 515.31 523.47 C 514.88 522.78 514.01 521.39 513.57 520.70 L 513.46 520.51 L 513.37 520.34 C 512.71 519.05 512.12 517.80 511.51 516.52 C 511.02 516.07 510.05 515.16 509.57 514.71 C 509.49 514.62 509.34 514.44 509.27 514.35 C 506.27 510.19 503.60 505.80 500.55 501.67 C 500.50 501.60 500.40 501.46 500.35 501.39 C 495.40 494.68 491.22 487.43 486.24 480.74 C 480.12 472.41 475.11 463.29 468.57 455.27 C 472.39 444.73 480.27 436.17 483.49 425.38 C 487.38 412.79 485.57 398.60 478.62 387.41 C 477.33 385.20 475.63 383.22 474.59 380.87 C 474.19 379.07 474.54 377.21 474.63 375.40 C 475.43 367.29 475.48 359.13 475.42 350.99 C 465.06 346.49 455.48 340.29 447.17 332.64 C 447.44 309.90 461.56 290.91 469.29 270.33 C 477.09 251.66 475.64 230.84 481.72 211.73 C 485.32 200.75 491.64 189.85 502.09 184.16 Z" />
<path fill="#c17174" stroke="#c17174" stroke-width="0.09375" opacity="1.00" d=" M 806.07 226.44 C 813.25 225.58 820.19 222.60 825.66 217.84 C 821.14 222.89 814.42 225.26 807.97 226.63 C 802.94 227.90 797.66 226.47 793.17 224.13 C 797.31 225.52 801.63 227.04 806.07 226.44 Z" />
<path fill="#c17174" stroke="#c17174" stroke-width="0.09375" opacity="1.00" d=" M 753.03 233.81 C 766.89 234.07 780.80 228.70 790.57 218.80 C 782.98 227.65 771.46 232.42 760.09 233.95 C 751.70 234.70 742.88 234.92 735.09 231.20 C 734.86 230.96 734.41 230.47 734.19 230.23 C 740.01 233.21 746.54 234.18 753.03 233.81 Z" />
</g>
<g id="#121e173b">
<path fill="#121e17" stroke="#121e17" stroke-width="0.09375" opacity="0.23" d=" M 373.83 278.35 C 378.08 289.00 382.10 299.78 384.77 310.95 C 389.17 328.68 389.65 348.02 382.36 365.07 C 380.46 364.24 378.61 363.31 376.76 362.37 C 378.11 362.52 379.47 362.65 380.83 362.77 C 388.98 341.06 384.56 317.18 377.20 295.92 C 375.62 291.19 374.26 286.27 371.31 282.17 C 372.19 280.93 372.99 279.62 373.83 278.35 Z" />
</g>
<g id="#13131326">
<path fill="#131313" stroke="#131313" stroke-width="0.09375" opacity="0.15" d=" M 973.43 306.24 C 975.61 306.13 977.81 306.02 980.01 305.91 C 980.75 309.89 980.99 314.08 979.72 317.98 C 977.06 326.71 968.98 332.49 966.32 341.22 C 964.89 345.48 965.37 350.02 965.66 354.42 C 963.61 354.09 961.56 353.83 959.50 353.68 C 958.90 349.82 958.43 345.83 959.41 341.99 C 961.07 334.76 966.72 329.54 970.43 323.38 C 973.72 318.36 974.74 312.08 973.43 306.24 Z" />
</g>
<g id="#daa7a9ff">
<path fill="#daa7a9" stroke="#daa7a9" stroke-width="0.09375" opacity="1.00" d=" M 862.67 313.64 C 867.34 311.61 871.66 308.84 876.45 307.05 C 874.65 310.53 870.72 311.76 867.49 313.51 C 842.73 325.86 812.18 326.42 787.31 314.11 C 787.21 313.58 787.01 312.53 786.91 312.01 C 810.41 323.27 838.71 323.95 862.67 313.64 Z" />
</g>
<g id="#ffbe00ff">
<path fill="#ffbe00" stroke="#ffbe00" stroke-width="0.09375" opacity="1.00" d=" M 878.14 311.95 C 884.96 319.14 891.85 326.42 900.21 331.87 C 910.08 339.52 921.80 344.18 933.21 349.00 C 941.67 351.82 950.57 353.48 959.50 353.68 C 961.56 353.83 963.61 354.09 965.66 354.42 C 969.65 355.10 973.66 355.68 977.66 356.40 C 982.54 357.25 986.76 360.02 991.38 361.68 C 997.49 364.67 1003.86 367.31 1009.30 371.46 C 1014.76 375.71 1019.29 380.97 1024.28 385.73 C 1027.12 388.39 1029.51 391.47 1031.81 394.61 C 1035.29 398.97 1037.69 404.04 1039.85 409.15 C 1043.74 418.22 1047.61 427.37 1050.08 436.95 C 1050.22 439.32 1050.42 441.71 1051.02 444.03 C 1051.22 446.69 1051.34 449.39 1052.00 452.00 C 1052.25 456.44 1053.18 460.81 1053.42 465.25 C 1049.88 468.97 1047.80 473.71 1045.01 477.95 C 1042.56 481.66 1040.33 485.50 1037.97 489.27 C 937.70 489.18 837.43 489.06 737.16 489.30 C 736.94 483.51 736.06 477.78 735.64 472.01 C 735.10 466.12 734.59 460.11 732.45 454.54 C 731.35 451.17 728.10 449.36 725.40 447.41 C 718.40 442.82 711.06 438.79 703.68 434.85 C 703.81 428.57 703.65 422.28 703.76 416.00 C 703.94 410.62 702.31 405.36 702.73 399.98 C 703.10 394.77 701.18 389.85 700.04 384.87 C 699.00 380.60 698.05 376.26 696.17 372.27 C 695.95 370.76 695.75 369.25 695.55 367.75 C 698.58 366.62 701.72 365.78 704.93 365.41 C 717.45 363.83 730.17 362.50 742.13 358.27 C 751.23 354.18 759.71 348.82 767.61 342.73 C 775.67 337.06 781.30 328.83 787.61 321.42 C 787.25 332.23 790.27 343.01 795.42 352.46 C 802.46 367.42 813.54 379.90 821.94 394.04 C 827.31 405.15 830.02 417.30 831.66 429.46 C 834.70 430.74 837.31 427.85 839.85 426.60 C 841.78 416.61 843.27 406.52 845.66 396.61 C 847.72 388.63 852.41 381.69 857.17 375.08 C 864.52 363.88 870.95 352.03 875.64 339.47 C 878.66 330.63 879.65 321.18 878.14 311.95 Z" />
<path fill="#ffbe00" stroke="#ffbe00" stroke-width="0.09375" opacity="1.00" d=" M 190.07 334.07 C 193.13 331.27 195.28 327.68 198.02 324.60 C 198.54 325.78 199.03 326.97 199.50 328.18 C 201.90 334.54 203.11 341.25 203.94 347.98 C 206.16 359.26 208.31 370.57 209.59 382.01 C 209.75 385.71 212.79 388.26 214.99 390.92 C 217.97 393.96 220.08 397.92 223.87 400.09 C 227.20 402.11 230.58 404.07 233.89 406.13 C 238.08 408.81 243.15 409.41 247.96 410.22 C 254.81 411.25 261.54 409.21 268.14 407.66 C 274.45 406.34 279.60 402.25 285.03 399.05 C 292.20 393.91 299.61 389.03 306.13 383.05 C 308.21 381.13 310.96 379.67 312.02 376.90 C 313.87 372.09 317.22 367.83 317.80 362.58 C 318.37 357.47 319.98 352.32 318.97 347.17 C 317.93 340.08 317.30 332.93 315.96 325.90 C 324.38 330.67 331.98 336.78 340.42 341.53 C 352.55 348.47 363.99 356.61 376.76 362.37 C 378.61 363.31 380.46 364.24 382.36 365.07 C 383.09 365.38 384.54 366.00 385.26 366.30 C 384.44 368.57 383.34 370.79 381.50 372.41 C 373.87 379.82 366.52 387.49 358.88 394.88 C 354.20 398.51 349.97 402.67 345.89 406.95 C 343.08 410.04 341.79 414.11 339.84 417.73 C 336.32 424.85 331.24 431.23 329.01 438.95 C 327.34 444.53 325.11 449.91 323.28 455.44 C 332.18 449.35 335.70 437.13 346.55 433.68 C 339.34 443.31 332.59 453.31 326.92 463.93 C 321.88 471.77 322.14 481.43 320.52 490.27 C 305.68 489.78 290.85 490.14 276.00 490.15 C 248.63 490.31 221.25 489.88 193.89 490.17 C 165.27 490.17 136.64 490.14 108.02 490.19 C 104.00 490.25 100.00 489.78 95.99 489.87 C 82.88 490.53 69.75 489.97 56.64 490.23 C 56.43 489.71 56.02 488.67 55.81 488.15 C 60.90 467.71 64.11 446.84 69.40 426.45 C 75.38 413.84 83.44 402.14 93.14 392.10 C 96.83 386.43 102.95 383.25 107.67 378.59 C 112.42 376.54 116.69 373.56 121.36 371.38 C 127.94 370.31 134.61 369.93 141.23 369.35 C 146.78 367.70 152.07 365.18 156.98 362.13 C 162.31 358.14 167.32 353.71 172.98 350.16 C 176.72 347.68 180.22 344.76 182.86 341.10 C 184.76 338.27 187.62 336.37 190.07 334.07 Z" />
</g>
<g id="#1616162c">
<path fill="#161616" stroke="#161616" stroke-width="0.09375" opacity="0.17" d=" M 1009.30 371.46 C 1011.20 371.69 1013.22 371.92 1014.78 373.18 C 1023.05 379.08 1030.39 386.27 1036.36 394.50 C 1034.83 394.53 1033.31 394.57 1031.81 394.61 C 1029.51 391.47 1027.12 388.39 1024.28 385.73 C 1019.29 380.97 1014.76 375.71 1009.30 371.46 Z" />
</g>
<g id="#1b1b1b35">
<path fill="#1b1b1b" stroke="#1b1b1b" stroke-width="0.09375" opacity="0.21" d=" M 101.57 381.63 C 103.46 380.35 105.58 379.49 107.67 378.59 C 102.95 383.25 96.83 386.43 93.14 392.10 C 83.44 402.14 75.38 413.84 69.40 426.45 C 64.11 446.84 60.90 467.71 55.81 488.15 C 56.02 488.67 56.43 489.71 56.64 490.23 C 69.75 489.97 82.88 490.53 95.99 489.87 C 100.00 489.78 104.00 490.25 108.02 490.19 C 136.64 490.14 165.27 490.17 193.89 490.17 C 193.96 490.61 194.08 491.50 194.14 491.94 C 145.98 492.08 97.81 492.01 49.65 491.99 C 52.86 474.93 56.70 458.00 59.63 440.89 C 61.01 431.90 65.61 423.89 70.21 416.20 C 78.37 402.87 88.59 390.51 101.57 381.63 Z" />
</g>
<g id="#1f292453">
<path fill="#1f2924" stroke="#1f2924" stroke-width="0.09375" opacity="0.33" d=" M 1031.81 394.61 C 1033.31 394.57 1034.83 394.53 1036.36 394.50 C 1036.66 394.91 1037.26 395.73 1037.56 396.14 C 1050.02 414.22 1057.11 435.60 1059.47 457.35 C 1059.73 461.70 1061.48 466.69 1058.54 470.52 C 1053.85 477.52 1049.17 484.54 1044.50 491.56 C 971.31 491.50 898.13 491.55 824.94 491.54 C 812.61 491.48 800.27 491.75 787.95 491.19 C 771.70 491.19 755.44 491.16 739.19 491.21 C 740.07 501.85 741.08 512.48 741.95 523.13 C 740.39 525.12 738.95 527.20 737.30 529.11 C 713.54 528.56 689.77 529.01 666.00 528.87 C 547.24 528.87 428.47 528.87 309.71 528.86 C 311.79 516.51 314.72 504.32 316.92 491.99 C 276.00 491.76 235.06 491.84 194.14 491.94 C 194.08 491.50 193.96 490.61 193.89 490.17 C 221.25 489.88 248.63 490.31 276.00 490.15 C 290.85 490.14 305.68 489.78 320.52 490.27 C 317.64 501.82 315.82 513.61 313.17 525.22 C 330.13 525.55 347.10 525.27 364.06 525.36 C 389.90 525.13 415.73 525.80 441.56 525.35 C 465.05 524.97 488.55 525.36 512.04 525.17 C 513.34 525.06 514.63 524.89 515.91 524.65 C 519.13 525.27 522.41 525.27 525.67 525.21 C 544.54 525.28 563.42 525.02 582.29 525.34 C 593.53 525.83 604.77 525.28 616.02 525.36 C 645.31 525.37 674.59 525.35 703.88 525.37 C 715.71 525.36 727.54 525.47 739.38 525.31 C 739.18 518.86 739.77 512.36 738.48 505.99 C 738.53 500.38 737.45 494.88 737.16 489.30 C 837.43 489.06 937.70 489.18 1037.97 489.27 C 1040.33 485.50 1042.56 481.66 1045.01 477.95 C 1047.80 473.71 1049.88 468.97 1053.42 465.25 C 1053.18 460.81 1052.25 456.44 1052.00 452.00 C 1051.34 449.39 1051.22 446.69 1051.02 444.03 C 1050.42 441.71 1050.22 439.32 1050.08 436.95 C 1047.61 427.37 1043.74 418.22 1039.85 409.15 C 1037.69 404.04 1035.29 398.97 1031.81 394.61 Z" />
</g>
<g id="#f7ce58ff">
<path fill="#f7ce58" stroke="#f7ce58" stroke-width="0.09375" opacity="1.00" d=" M 569.42 422.52 C 574.55 419.31 579.97 416.57 585.31 413.71 C 589.44 421.05 591.38 429.26 593.44 437.35 C 594.33 441.12 593.72 445.02 594.31 448.83 C 595.91 454.78 593.38 460.72 592.58 466.61 C 591.34 474.79 588.75 482.64 586.34 490.53 C 583.80 497.76 581.63 505.22 581.80 512.96 C 580.62 517.08 581.29 521.26 582.29 525.34 C 563.42 525.02 544.54 525.28 525.67 525.21 C 536.31 499.61 548.03 474.46 558.82 448.92 C 562.00 440.01 561.89 429.31 569.42 422.52 Z" />
<path fill="#f7ce58" stroke="#f7ce58" stroke-width="0.09375" opacity="1.00" d=" M 703.68 434.85 C 711.06 438.79 718.40 442.82 725.40 447.41 C 728.10 449.36 731.35 451.17 732.45 454.54 C 734.59 460.11 735.10 466.12 735.64 472.01 C 736.06 477.78 736.94 483.51 737.16 489.30 C 737.45 494.88 738.53 500.38 738.48 505.99 C 739.77 512.36 739.18 518.86 739.38 525.31 C 727.54 525.47 715.71 525.36 703.88 525.37 C 702.01 515.62 698.39 506.11 698.51 496.06 C 698.64 488.70 698.43 481.34 698.58 473.99 C 699.94 460.90 702.31 447.94 703.68 434.85 Z" />
<path fill="#f7ce58" stroke="#f7ce58" stroke-width="0.09375" opacity="1.00" d=" M 467.34 453.80 C 467.65 454.17 468.26 454.90 468.57 455.27 C 475.11 463.29 480.12 472.41 486.24 480.74 C 491.22 487.43 495.40 494.68 500.35 501.39 L 500.46 501.54 L 500.55 501.67 C 503.60 505.80 506.27 510.19 509.27 514.35 L 509.41 514.56 L 509.57 514.71 C 510.05 515.16 511.02 516.07 511.51 516.52 C 512.12 517.80 512.71 519.05 513.37 520.34 L 513.46 520.54 L 513.57 520.70 C 514.01 521.39 514.88 522.78 515.31 523.47 C 515.38 523.59 515.50 523.83 515.57 523.95 L 515.91 524.65 C 514.63 524.89 513.34 525.06 512.04 525.17 C 488.55 525.36 465.05 524.97 441.56 525.35 C 445.13 519.65 448.90 514.07 452.72 508.53 C 453.55 505.86 454.42 503.19 455.25 500.52 C 457.04 496.06 458.84 491.57 459.82 486.85 C 462.18 475.80 464.97 464.84 467.34 453.80 Z" />
</g>
<g id="#6f7358ff">
<path fill="#6f7358" stroke="#6f7358" stroke-width="0.09375" opacity="1.00" d=" M 500.35 501.39 C 500.40 501.46 500.50 501.60 500.55 501.67 L 500.46 501.54 L 500.35 501.39 Z" />
</g>
<g id="#737259ff">
<path fill="#737259" stroke="#737259" stroke-width="0.09375" opacity="1.00" d=" M 509.27 514.35 C 509.34 514.44 509.49 514.62 509.57 514.71 L 509.41 514.56 L 509.27 514.35 Z" />
</g>
<g id="#5a7653ff">
<path fill="#5a7653" stroke="#5a7653" stroke-width="0.09375" opacity="1.00" d=" M 513.37 520.34 L 513.46 520.51 L 513.57 520.70 L 513.46 520.54 L 513.37 520.34 Z" />
</g>
<g id="#4e784fff">
<path fill="#4e784f" stroke="#4e784f" stroke-width="0.09375" opacity="1.00" d=" M 515.31 523.47 C 515.38 523.59 515.50 523.83 515.57 523.95 C 515.50 523.83 515.38 523.59 515.31 523.47 Z" />
</g>
</svg>
