<?xml version="1.0" encoding="UTF-8" ?>
<!DOCTYPE svg PUBLIC "-//W3C//DTD SVG 1.1//EN" "http://www.w3.org/Graphics/SVG/1.1/DTD/svg11.dtd">
<svg width="1050pt" height="679pt" viewBox="0 0 1050 679" version="1.1" xmlns="http://www.w3.org/2000/svg">
<g id="#7eb964fc">
<path fill="#7eb964" stroke="#7eb964" stroke-width="0.09375" opacity="1.00" d=" M 746.42 0.00 L 747.96 0.00 C 760.93 26.08 774.31 51.97 786.87 78.25 C 782.79 77.66 779.59 74.96 776.17 72.94 C 774.46 78.73 775.67 85.11 777.19 90.87 C 778.82 94.73 781.91 97.89 783.17 101.95 C 781.58 105.34 781.89 107.67 784.10 108.92 L 784.99 109.15 C 779.08 111.58 784.73 118.58 783.95 123.00 C 787.40 129.77 782.93 127.18 780.40 127.13 C 776.00 117.91 772.95 107.92 766.99 99.54 C 767.55 97.81 768.02 96.05 768.28 94.24 C 768.69 90.16 769.93 85.68 768.35 81.70 C 764.96 74.14 756.63 70.21 751.10 64.22 C 752.22 63.46 750.95 62.12 750.84 61.17 C 745.15 48.80 740.01 36.12 733.82 24.03 C 694.73 36.48 656.36 51.63 619.14 68.98 C 618.82 68.76 618.20 68.31 617.88 68.09 C 614.86 64.08 612.92 56.22 606.23 58.12 C 601.28 64.25 592.19 70.59 595.94 79.71 C 566.91 94.23 538.43 110.06 512.07 129.10 C 504.92 133.92 498.44 139.72 491.11 144.26 C 491.91 138.46 489.27 133.23 486.73 128.27 C 484.49 125.38 480.26 125.48 477.68 122.99 C 485.38 115.77 494.28 109.91 502.99 103.99 C 544.16 75.93 589.67 55.09 635.89 36.84 C 672.07 22.64 709.20 11.07 746.42 0.00 Z" />
</g>
<g id="#8dd070ff">
<path fill="#8dd070" stroke="#8dd070" stroke-width="0.09375" opacity="1.00" d=" M 619.14 68.98 C 656.36 51.63 694.73 36.48 733.82 24.03 C 740.01 36.12 745.15 48.80 750.84 61.17 C 750.95 62.12 752.22 63.46 751.10 64.22 C 743.40 63.03 735.68 65.27 729.00 69.00 C 726.39 69.82 724.03 72.46 721.15 71.86 C 719.51 71.15 718.05 69.88 716.18 69.95 C 715.99 71.28 715.82 72.60 715.67 73.93 C 714.23 76.34 714.10 78.71 715.30 81.05 C 712.88 83.86 710.18 88.06 714.13 90.92 C 713.14 93.59 713.32 95.97 714.66 98.08 C 716.22 102.41 717.47 106.95 720.38 110.61 C 722.10 112.23 724.23 113.41 725.69 115.30 C 728.18 119.46 727.83 124.45 728.21 129.11 L 727.97 130.00 C 724.20 129.99 720.51 130.00 716.76 130.22 C 711.63 129.53 706.83 127.59 701.98 126.01 C 696.64 126.72 695.18 133.39 691.77 136.87 C 689.24 136.96 686.72 136.96 684.22 136.85 C 680.83 136.30 677.50 136.01 674.09 135.87 C 672.64 134.11 670.53 133.09 668.33 132.67 C 661.06 131.55 655.22 126.72 648.22 124.74 C 638.55 115.66 630.65 104.84 623.03 94.05 C 623.39 91.75 622.04 90.18 620.11 89.20 C 618.32 86.52 616.77 83.42 618.18 80.23 C 618.78 76.50 619.10 72.75 619.14 68.98 Z" />
<path fill="#8dd070" stroke="#8dd070" stroke-width="0.09375" opacity="1.00" d=" M 512.07 129.10 C 538.43 110.06 566.91 94.23 595.94 79.71 C 599.73 85.41 607.84 88.04 608.05 95.93 C 607.34 97.21 607.19 98.58 607.76 99.94 C 603.87 101.67 605.53 106.04 607.11 108.92 C 614.22 118.74 620.73 128.98 626.16 139.83 C 644.74 150.87 663.54 161.92 683.96 169.15 C 683.59 175.07 682.35 180.88 681.76 186.78 C 681.20 190.57 681.03 194.39 681.24 198.23 C 680.11 208.08 678.82 217.95 676.54 227.62 C 675.76 230.72 673.97 233.52 673.74 236.76 C 672.87 240.87 673.11 245.06 673.19 249.23 C 672.40 254.81 670.76 260.23 669.73 265.76 C 668.63 271.18 669.15 276.71 669.13 282.20 C 667.77 284.93 667.30 289.16 671.06 289.98 C 676.95 288.28 682.19 284.12 688.74 284.63 C 692.12 284.77 695.61 284.93 699.03 285.06 C 699.00 285.76 698.96 287.16 698.93 287.86 C 679.07 296.47 660.54 307.79 641.07 317.15 C 640.48 309.05 642.05 300.70 640.35 292.72 C 640.20 292.05 639.92 290.72 639.77 290.05 C 640.15 288.32 640.48 286.39 639.43 284.83 C 635.99 272.32 623.59 263.31 610.64 263.46 C 587.73 264.54 564.79 263.65 541.88 264.13 C 541.31 263.04 540.84 261.90 540.36 260.78 C 532.66 239.50 520.24 219.81 503.75 204.26 C 500.27 200.92 496.38 198.01 492.05 195.89 C 490.74 191.80 489.96 187.53 490.14 183.22 C 490.47 180.40 490.89 177.62 490.84 174.78 C 490.96 173.59 491.10 172.41 491.24 171.23 C 491.95 163.84 493.00 156.02 491.26 148.73 C 491.15 147.24 491.10 145.75 491.11 144.26 C 498.44 139.72 504.92 133.92 512.07 129.10 Z" />
<path fill="#8dd070" stroke="#8dd070" stroke-width="0.09375" opacity="1.00" d=" M 457.15 174.12 C 460.34 172.59 463.12 167.24 467.00 168.88 C 467.94 170.26 469.09 171.49 469.90 172.96 C 469.35 174.35 468.63 175.65 468.10 177.04 C 468.82 179.04 471.36 179.98 471.82 182.07 C 471.29 184.67 470.71 187.37 472.17 189.79 C 470.29 190.79 468.34 191.64 466.41 192.52 C 458.67 196.45 454.60 205.44 453.77 213.77 C 453.37 216.56 453.07 219.40 453.18 222.22 C 453.20 223.85 453.25 227.10 453.27 228.73 C 453.15 231.90 452.68 235.18 453.64 238.27 C 454.78 246.61 457.05 254.72 458.86 262.92 C 452.81 264.32 446.58 264.00 440.43 264.00 C 437.83 263.75 432.62 263.25 430.01 262.99 C 382.36 262.97 334.72 263.05 287.07 262.97 C 287.28 262.45 287.70 261.39 287.91 260.87 C 347.48 238.93 406.23 212.52 457.15 174.12 Z" />
<path fill="#8dd070" stroke="#8dd070" stroke-width="0.09375" opacity="1.00" d=" M 788.96 294.17 C 809.58 285.30 830.27 276.57 851.03 268.04 C 851.10 268.54 851.26 269.55 851.34 270.06 C 852.01 273.30 852.14 276.65 853.15 279.83 C 853.12 282.63 852.88 285.52 853.68 288.26 C 855.52 303.81 856.89 319.42 859.05 334.92 C 857.81 337.84 858.08 340.24 859.87 342.12 C 859.94 342.56 860.06 343.44 860.12 343.88 C 858.81 346.79 859.05 349.20 860.85 351.10 C 861.33 357.36 861.73 363.72 863.16 369.84 C 863.16 372.63 863.19 375.43 863.26 378.23 C 862.98 379.34 862.57 380.40 862.04 381.42 C 857.26 379.17 851.47 381.04 846.99 378.01 C 843.34 376.44 840.19 373.16 835.90 374.01 C 834.54 369.18 836.21 363.71 833.74 359.22 C 831.97 355.61 828.95 352.49 828.67 348.32 C 828.22 343.37 827.69 335.51 821.34 334.63 C 811.25 333.47 802.54 327.77 793.13 324.81 C 793.50 314.41 791.85 304.12 788.96 294.17 Z" />
<path fill="#8dd070" stroke="#8dd070" stroke-width="0.09375" opacity="1.00" d=" M 641.63 363.35 C 661.36 354.49 680.20 343.74 699.92 334.87 C 701.57 348.85 702.90 362.88 705.20 376.77 C 705.05 383.84 704.89 390.92 705.03 397.99 C 705.05 400.70 705.08 403.42 705.13 406.15 L 705.01 407.00 C 684.54 409.42 664.13 413.28 644.09 418.11 C 643.34 418.06 641.85 417.96 641.10 417.91 C 641.08 399.73 640.39 381.48 641.63 363.35 Z" />
</g>
<g id="#464252fa">
<path fill="#464252" stroke="#464252" stroke-width="0.09375" opacity="0.98" d=" M 344.62 45.54 C 355.88 42.16 365.64 51.01 376.68 51.37 C 379.98 53.26 380.17 57.51 379.91 60.89 C 377.95 62.70 377.62 66.54 379.94 68.06 C 382.47 71.50 383.22 75.51 382.17 79.68 L 381.36 80.05 C 380.81 76.84 379.31 72.53 375.20 74.10 C 374.24 76.34 374.14 78.90 372.85 81.00 C 368.93 81.95 367.27 76.94 366.87 74.05 C 367.37 70.50 364.26 69.54 362.41 67.59 C 360.70 65.18 359.35 62.53 357.79 60.02 C 354.92 59.73 353.24 62.77 350.86 63.83 C 348.45 63.66 343.61 63.33 341.19 63.16 C 338.39 65.97 339.46 70.20 338.76 73.77 C 337.41 75.31 335.58 76.26 333.87 77.30 C 330.32 77.13 328.09 74.31 330.40 70.39 C 329.82 60.42 334.23 48.58 344.62 45.54 Z" />
</g>
<g id="#feccd1fe">
<path fill="#feccd1" stroke="#feccd1" stroke-width="0.09375" opacity="1.00" d=" M 606.23 58.12 C 612.92 56.22 614.86 64.08 617.88 68.09 C 618.00 72.13 618.10 76.18 618.18 80.23 C 616.77 83.42 618.32 86.52 620.11 89.20 C 616.05 91.33 611.18 92.38 608.05 95.93 C 607.84 88.04 599.73 85.41 595.94 79.71 C 592.19 70.59 601.28 64.25 606.23 58.12 Z" />
</g>
<g id="#9e6068fc">
<path fill="#9e6068" stroke="#9e6068" stroke-width="0.09375" opacity="1.00" d=" M 350.86 63.83 C 353.24 62.77 354.92 59.73 357.79 60.02 C 359.35 62.53 360.70 65.18 362.41 67.59 C 364.26 69.54 367.37 70.50 366.87 74.05 C 367.27 76.94 368.93 81.95 372.85 81.00 C 374.14 78.90 374.24 76.34 375.20 74.10 C 379.31 72.53 380.81 76.84 381.36 80.05 C 372.76 86.95 372.28 99.03 365.25 107.21 C 363.39 108.63 361.47 109.04 360.03 106.86 C 359.77 106.56 359.25 105.96 358.99 105.66 C 354.57 100.50 347.55 99.53 342.19 95.81 C 337.26 90.97 334.20 84.21 333.87 77.30 C 335.58 76.26 337.41 75.31 338.76 73.77 C 339.46 70.20 338.39 65.97 341.19 63.16 C 343.61 63.33 348.45 63.66 350.86 63.83 Z" />
</g>
<g id="#34313dc0">
<path fill="#34313d" stroke="#34313d" stroke-width="0.09375" opacity="0.75" d=" M 379.94 68.06 C 377.62 66.54 377.95 62.70 379.91 60.89 C 379.92 62.68 379.93 66.27 379.94 68.06 Z" />
</g>
<g id="#2e2a3dfd">
<path fill="#2e2a3d" stroke="#2e2a3d" stroke-width="0.09375" opacity="1.00" d=" M 729.00 69.00 C 735.68 65.27 743.40 63.03 751.10 64.22 C 756.63 70.21 764.96 74.14 768.35 81.70 C 768.20 85.88 768.18 90.06 768.28 94.24 C 768.02 96.05 767.55 97.81 766.99 99.54 C 763.70 104.86 762.26 111.03 759.67 116.67 C 757.32 118.14 754.66 118.93 751.99 119.56 C 750.74 119.83 749.50 120.09 748.27 120.35 C 744.08 120.22 739.91 120.19 735.75 120.28 C 735.11 120.16 733.83 119.92 733.19 119.79 C 730.02 114.04 729.68 106.92 725.22 101.85 C 723.62 99.02 718.66 102.85 717.39 99.65 C 717.13 96.97 717.15 93.88 715.10 91.86 C 714.85 91.62 714.37 91.15 714.13 90.92 C 710.18 88.06 712.88 83.86 715.30 81.05 C 716.75 78.65 716.87 76.27 715.67 73.93 C 715.82 72.60 715.99 71.28 716.18 69.95 C 718.05 69.88 719.51 71.15 721.15 71.86 C 724.03 72.46 726.39 69.82 729.00 69.00 Z" />
</g>
<g id="#969f7ac7">
<path fill="#969f7a" stroke="#969f7a" stroke-width="0.09375" opacity="0.78" d=" M 617.88 68.09 C 618.20 68.31 618.82 68.76 619.14 68.98 C 619.10 72.75 618.78 76.50 618.18 80.23 C 618.10 76.18 618.00 72.13 617.88 68.09 Z" />
</g>
<g id="#fbcad0fc">
<path fill="#fbcad0" stroke="#fbcad0" stroke-width="0.09375" opacity="1.00" d=" M 776.17 72.94 C 779.59 74.96 782.79 77.66 786.87 78.25 C 793.26 79.90 796.38 87.66 793.93 93.53 C 793.66 95.13 793.12 98.33 792.85 99.93 C 790.11 100.17 787.04 99.05 784.86 100.90 C 784.57 101.13 784.00 101.60 783.72 101.84 L 783.17 101.95 C 781.91 97.89 778.82 94.73 777.19 90.87 C 775.67 85.11 774.46 78.73 776.17 72.94 Z" />
</g>
<g id="#3e4f3dc5">
<path fill="#3e4f3d" stroke="#3e4f3d" stroke-width="0.09375" opacity="0.77" d=" M 715.30 81.05 C 714.10 78.71 714.23 76.34 715.67 73.93 C 716.87 76.27 716.75 78.65 715.30 81.05 Z" />
</g>
<g id="#fdbc00fe">
<path fill="#fdbc00" stroke="#fdbc00" stroke-width="0.09375" opacity="1.00" d=" M 381.36 80.05 L 382.17 79.68 C 386.61 81.34 392.02 84.15 393.62 88.83 C 390.72 93.03 389.00 97.88 387.62 102.76 C 387.04 104.78 386.34 106.80 386.12 108.90 C 389.14 113.51 390.61 118.88 391.73 124.23 C 392.21 128.95 394.76 133.05 396.52 137.36 C 397.79 141.57 398.47 145.93 399.55 150.19 C 400.02 154.12 402.01 157.69 401.96 161.72 C 395.82 162.71 389.78 164.29 383.83 166.09 C 382.62 166.38 381.42 166.72 380.19 166.93 C 378.59 157.00 376.73 147.11 374.81 137.25 C 370.96 139.17 366.72 139.42 363.15 136.71 C 363.19 134.53 364.14 132.42 363.86 130.23 C 361.63 127.09 357.42 127.70 354.04 127.00 C 352.35 126.49 350.37 126.25 349.25 124.75 C 346.83 117.26 352.68 109.15 358.99 105.66 C 359.25 105.96 359.77 106.56 360.03 106.86 C 360.68 108.59 360.74 111.43 362.87 111.98 C 363.82 110.47 364.52 108.83 365.25 107.21 C 372.28 99.03 372.76 86.95 381.36 80.05 Z" />
<path fill="#fdbc00" stroke="#fdbc00" stroke-width="0.09375" opacity="1.00" d=" M 536.34 457.42 C 544.24 455.38 552.50 459.48 557.20 465.78 C 564.36 475.43 561.06 490.74 550.35 496.40 C 537.29 504.33 519.97 493.49 519.02 478.94 C 519.11 468.94 526.16 459.02 536.34 457.42 Z" />
</g>
<g id="#333d37ca">
<path fill="#333d37" stroke="#333d37" stroke-width="0.09375" opacity="0.79" d=" M 768.35 81.70 C 769.93 85.68 768.69 90.16 768.28 94.24 C 768.18 90.06 768.20 85.88 768.35 81.70 Z" />
</g>
<g id="#464352fd">
<path fill="#464352" stroke="#464352" stroke-width="0.09375" opacity="1.00" d=" M 387.62 102.76 C 389.00 97.88 390.72 93.03 393.62 88.83 C 393.77 89.59 394.09 91.11 394.24 91.87 C 400.61 93.05 408.29 89.93 413.81 94.19 C 418.15 97.56 424.15 93.58 428.93 96.09 C 434.19 98.70 441.07 101.23 442.47 107.65 C 453.97 113.23 468.17 113.74 477.68 122.99 C 480.26 125.48 484.49 125.38 486.73 128.27 C 489.27 133.23 491.91 138.46 491.11 144.26 C 491.10 145.75 491.15 147.24 491.26 148.73 C 490.93 156.22 490.96 163.73 491.24 171.23 C 491.10 172.41 490.96 173.59 490.84 174.78 C 490.39 177.56 490.04 180.39 490.14 183.22 C 489.96 187.53 490.74 191.80 492.05 195.89 C 492.03 197.70 492.00 201.32 491.98 203.13 C 490.66 203.51 489.35 203.92 488.04 204.28 C 483.15 203.56 477.69 200.57 473.00 203.07 C 472.19 200.78 471.40 198.47 471.05 196.07 C 471.41 193.82 475.42 191.36 472.17 189.79 C 470.71 187.37 471.29 184.67 471.82 182.07 C 471.36 179.98 468.82 179.04 468.10 177.04 C 468.63 175.65 469.35 174.35 469.90 172.96 C 469.09 171.49 467.94 170.26 467.00 168.88 C 466.07 164.98 464.88 161.14 463.63 157.33 C 462.74 155.28 464.21 152.97 463.06 150.99 C 461.74 147.20 459.14 144.08 457.04 140.72 C 454.86 139.37 451.22 136.40 449.11 139.23 C 448.48 141.70 450.39 143.80 452.03 145.39 C 439.72 155.38 426.77 164.63 413.32 173.04 C 411.92 169.50 409.57 166.44 408.17 162.91 C 408.31 160.50 408.61 155.68 408.75 153.27 C 406.66 150.51 403.40 148.89 400.13 147.99 C 399.99 148.54 399.69 149.64 399.55 150.19 C 398.47 145.93 397.79 141.57 396.52 137.36 C 394.76 133.05 392.21 128.95 391.73 124.23 C 391.64 116.93 394.17 107.99 387.62 102.76 Z" />
</g>
<g id="#f5ba11fd">
<path fill="#f5ba11" stroke="#f5ba11" stroke-width="0.09375" opacity="1.00" d=" M 620.11 89.20 C 622.04 90.18 623.39 91.75 623.03 94.05 C 617.86 95.85 612.64 97.46 607.76 99.94 C 607.19 98.58 607.34 97.21 608.05 95.93 C 611.18 92.38 616.05 91.33 620.11 89.20 Z" />
</g>
<g id="#8ab06fdd">
<path fill="#8ab06f" stroke="#8ab06f" stroke-width="0.09375" opacity="0.87" d=" M 714.13 90.92 C 714.37 91.15 714.85 91.62 715.10 91.86 C 715.40 93.94 715.20 96.06 714.66 98.08 C 713.32 95.97 713.14 93.59 714.13 90.92 Z" />
</g>
<g id="#f7c7cdfa">
<path fill="#f7c7cd" stroke="#f7c7cd" stroke-width="0.09375" opacity="0.98" d=" M 715.10 91.86 C 717.15 93.88 717.13 96.97 717.39 99.65 C 718.66 102.85 723.62 99.02 725.22 101.85 C 729.68 106.92 730.02 114.04 733.19 119.79 C 733.83 119.92 735.11 120.16 735.75 120.28 C 739.82 120.91 744.21 121.62 748.27 120.35 C 749.50 120.09 750.74 119.83 751.99 119.56 C 752.66 121.03 753.91 122.68 753.18 124.35 C 744.87 119.81 735.39 124.16 728.21 129.11 C 727.83 124.45 728.18 119.46 725.69 115.30 C 724.23 113.41 722.10 112.23 720.38 110.61 C 717.47 106.95 716.22 102.41 714.66 98.08 C 715.20 96.06 715.40 93.94 715.10 91.86 Z" />
</g>
<g id="#3f3d56fe">
<path fill="#3f3d56" stroke="#3f3d56" stroke-width="0.09375" opacity="1.00" d=" M 607.76 99.94 C 612.64 97.46 617.86 95.85 623.03 94.05 C 630.65 104.84 638.55 115.66 648.22 124.74 C 655.22 126.72 661.06 131.55 668.33 132.67 C 670.53 133.09 672.64 134.11 674.09 135.87 C 676.84 137.80 680.96 136.67 684.22 136.85 C 686.72 136.96 689.24 136.96 691.77 136.87 C 695.18 133.39 696.64 126.72 701.98 126.01 C 706.83 127.59 711.63 129.53 716.76 130.22 C 719.58 129.78 726.39 133.26 727.97 130.00 L 728.21 129.11 C 735.39 124.16 744.87 119.81 753.18 124.35 C 757.88 127.83 761.49 132.54 766.00 136.23 C 767.58 134.36 768.70 132.16 770.27 130.29 C 773.59 129.14 777.09 128.42 780.40 127.13 C 782.93 127.18 787.40 129.77 783.95 123.00 C 784.73 118.58 779.08 111.58 784.99 109.15 C 785.98 108.41 786.94 107.60 787.92 106.82 C 790.93 108.22 793.34 107.97 795.14 106.05 L 796.07 106.02 C 797.76 106.63 799.63 108.68 801.36 107.11 C 803.04 109.80 804.28 112.75 805.35 115.74 C 803.96 122.44 803.68 129.22 805.22 135.89 C 803.72 138.97 803.97 141.36 805.97 143.08 C 806.28 151.23 804.36 160.50 797.63 165.78 C 793.68 167.46 791.42 171.57 791.71 175.89 C 790.89 182.21 787.13 187.60 785.74 193.75 C 784.83 199.49 784.31 205.56 785.63 211.28 C 787.54 221.35 789.98 231.72 796.11 240.17 C 800.94 249.91 803.76 260.50 806.16 271.07 C 806.15 272.63 807.92 275.02 805.65 275.63 C 799.79 276.43 793.98 277.50 788.10 277.98 C 785.90 277.66 784.62 278.89 783.97 280.84 C 770.72 283.09 757.34 284.63 744.06 286.66 C 741.71 285.44 738.40 284.38 736.91 287.00 C 731.45 288.86 725.68 286.56 720.19 285.89 C 717.33 285.14 714.47 284.54 711.73 285.72 C 707.91 285.33 703.43 287.10 699.91 285.10 C 696.38 283.32 692.41 284.08 688.74 284.63 C 682.19 284.12 676.95 288.28 671.06 289.98 C 667.30 289.16 667.77 284.93 669.13 282.20 C 670.65 276.83 669.71 271.22 669.73 265.76 C 670.76 260.23 672.40 254.81 673.19 249.23 C 674.15 245.11 673.88 240.93 673.74 236.76 C 673.97 233.52 675.76 230.72 676.54 227.62 C 678.82 217.95 680.11 208.08 681.24 198.23 C 681.76 194.42 681.94 190.61 681.76 186.78 C 682.35 180.88 683.59 175.07 683.96 169.15 C 663.54 161.92 644.74 150.87 626.16 139.83 C 620.73 128.98 614.22 118.74 607.11 108.92 C 605.53 106.04 603.87 101.67 607.76 99.94 M 610.93 105.85 C 611.53 106.98 612.85 108.22 613.87 108.75 C 613.75 111.71 617.59 112.76 617.24 115.90 C 619.45 116.58 620.80 115.68 619.75 113.38 C 616.71 112.39 618.04 106.25 614.06 107.11 C 613.49 106.08 610.59 102.59 610.93 105.85 Z" />
</g>
<g id="#7cac63f2">
<path fill="#7cac63" stroke="#7cac63" stroke-width="0.09375" opacity="0.95" d=" M 792.85 99.93 C 793.12 98.33 793.66 95.13 793.93 93.53 C 797.66 97.26 798.24 102.93 801.36 107.11 C 799.63 108.68 797.76 106.63 796.07 106.02 C 796.29 103.71 794.85 102.12 793.17 100.80 L 792.85 99.93 Z" />
</g>
<g id="#8ccd6ffd">
<path fill="#8ccd6f" stroke="#8ccd6f" stroke-width="0.09375" opacity="1.00" d=" M 759.67 116.67 C 762.26 111.03 763.70 104.86 766.99 99.54 C 772.95 107.92 776.00 117.91 780.40 127.13 C 777.09 128.42 773.59 129.14 770.27 130.29 C 768.70 132.16 767.58 134.36 766.00 136.23 C 761.49 132.54 757.88 127.83 753.18 124.35 C 753.91 122.68 752.66 121.03 751.99 119.56 C 754.66 118.93 757.32 118.14 759.67 116.67 Z" />
</g>
<g id="#fec489ff">
<path fill="#fec489" stroke="#fec489" stroke-width="0.09375" opacity="1.00" d=" M 784.86 100.90 C 787.04 99.05 790.11 100.17 792.85 99.93 L 793.17 100.80 C 790.38 100.85 787.61 100.88 784.86 100.90 Z" />
</g>
<g id="#fbbd07ff">
<path fill="#fbbd07" stroke="#fbbd07" stroke-width="0.09375" opacity="1.00" d=" M 783.72 101.84 C 784.00 101.60 784.57 101.13 784.86 100.90 C 787.61 100.88 790.38 100.85 793.17 100.80 C 794.85 102.12 796.29 103.71 796.07 106.02 L 795.14 106.05 C 792.24 104.90 789.83 105.16 787.92 106.82 C 786.94 107.60 785.98 108.41 784.99 109.15 L 784.10 108.92 C 784.00 107.15 783.81 103.61 783.72 101.84 Z" />
</g>
<g id="#d1b33bf4">
<path fill="#d1b33b" stroke="#d1b33b" stroke-width="0.09375" opacity="0.96" d=" M 783.17 101.95 L 783.72 101.84 C 783.81 103.61 784.00 107.15 784.10 108.92 C 781.89 107.67 781.58 105.34 783.17 101.95 Z" />
</g>
<g id="#4f4f6aeb">
<path fill="#4f4f6a" stroke="#4f4f6a" stroke-width="0.09375" opacity="0.92" d=" M 386.12 108.90 C 386.34 106.80 387.04 104.78 387.62 102.76 C 394.17 107.99 391.64 116.93 391.73 124.23 C 390.61 118.88 389.14 113.51 386.12 108.90 Z" />
</g>
<g id="#3e3e5ecd">
<path fill="#3e3e5e" stroke="#3e3e5e" stroke-width="0.09375" opacity="0.80" d=" M 610.93 105.85 C 610.59 102.59 613.49 106.08 614.06 107.11 C 614.01 107.52 613.91 108.34 613.87 108.75 C 612.85 108.22 611.53 106.98 610.93 105.85 Z" />
</g>
<g id="#d09e34fe">
<path fill="#d09e34" stroke="#d09e34" stroke-width="0.09375" opacity="1.00" d=" M 787.92 106.82 C 789.83 105.16 792.24 104.90 795.14 106.05 C 793.34 107.97 790.93 108.22 787.92 106.82 Z" />
</g>
<g id="#256f2fd2">
<path fill="#256f2f" stroke="#256f2f" stroke-width="0.09375" opacity="0.82" d=" M 360.03 106.86 C 361.47 109.04 363.39 108.63 365.25 107.21 C 364.52 108.83 363.82 110.47 362.87 111.98 C 360.74 111.43 360.68 108.59 360.03 106.86 Z" />
</g>
<g id="#494a70e6">
<path fill="#494a70" stroke="#494a70" stroke-width="0.09375" opacity="0.90" d=" M 614.06 107.11 C 618.04 106.25 616.71 112.39 619.75 113.38 C 620.80 115.68 619.45 116.58 617.24 115.90 C 617.59 112.76 613.75 111.71 613.87 108.75 C 613.91 108.34 614.01 107.52 614.06 107.11 Z" />
</g>
<g id="#7eba64fd">
<path fill="#7eba64" stroke="#7eba64" stroke-width="0.09375" opacity="1.00" d=" M 805.35 115.74 C 809.98 124.78 814.37 133.94 818.97 143.00 C 822.23 144.09 825.92 144.43 830.03 144.00 C 831.80 143.95 835.33 143.85 837.10 143.80 C 844.84 144.55 853.76 143.06 860.77 146.26 C 869.65 206.62 878.71 266.96 887.66 327.31 C 890.94 351.90 895.50 376.32 898.05 401.00 C 886.89 392.99 874.49 387.09 862.04 381.42 C 862.57 380.40 862.98 379.34 863.26 378.23 C 863.93 375.45 864.59 372.45 863.16 369.84 C 861.73 363.72 861.33 357.36 860.85 351.10 C 862.13 348.13 861.89 345.73 860.12 343.88 C 860.06 343.44 859.94 342.56 859.87 342.12 C 861.17 339.10 860.89 336.70 859.05 334.92 C 856.89 319.42 855.52 303.81 853.68 288.26 C 853.66 285.40 854.46 282.47 853.15 279.83 C 852.14 276.65 852.01 273.30 851.34 270.06 C 851.91 268.70 852.19 266.97 853.96 266.78 C 860.28 264.07 866.96 262.12 873.01 258.84 C 871.93 255.01 869.99 251.38 867.82 248.07 C 860.39 248.60 853.64 252.86 846.77 255.59 C 835.01 259.95 823.53 265.03 811.99 269.94 C 810.20 271.05 808.14 270.92 806.16 271.07 C 803.76 260.50 800.94 249.91 796.11 240.17 C 805.96 236.70 814.99 231.18 824.88 227.72 C 825.25 225.60 823.80 223.83 823.06 221.98 C 814.68 203.20 806.36 184.39 797.63 165.78 C 804.36 160.50 806.28 151.23 805.97 143.08 C 807.04 140.25 806.79 137.86 805.22 135.89 C 803.68 129.22 803.96 122.44 805.35 115.74 M 829.89 163.06 C 832.89 171.80 837.72 179.72 841.33 188.19 C 840.03 189.39 843.39 192.39 842.97 190.08 C 842.27 187.98 845.36 181.36 842.04 182.04 C 841.94 181.61 841.75 180.74 841.65 180.30 C 841.53 177.86 843.34 172.78 840.89 171.99 C 839.95 169.12 841.08 165.37 838.81 163.13 C 835.91 162.78 832.70 163.08 829.89 163.06 Z" />
<path fill="#7eba64" stroke="#7eba64" stroke-width="0.09375" opacity="1.00" d=" M 452.03 145.39 C 453.71 143.84 455.31 142.21 457.04 140.72 C 459.14 144.08 461.74 147.20 463.06 150.99 C 464.21 152.97 462.74 155.28 463.63 157.33 C 464.88 161.14 466.07 164.98 467.00 168.88 C 463.12 167.24 460.34 172.59 457.15 174.12 C 406.23 212.52 347.48 238.93 287.91 260.87 C 286.37 261.39 284.84 262.00 283.57 263.02 C 281.83 265.52 283.30 266.18 287.97 265.01 C 336.32 265.01 384.66 264.96 433.01 265.03 C 435.67 265.54 438.14 265.20 440.43 264.00 C 446.58 264.00 452.81 264.32 458.86 262.92 C 457.05 254.72 454.78 246.61 453.64 238.27 C 453.73 235.07 454.47 231.79 453.27 228.73 C 453.25 227.10 453.20 223.85 453.18 222.22 C 453.50 219.40 453.91 216.61 453.77 213.77 C 454.60 205.44 458.67 196.45 466.41 192.52 C 468.34 191.64 470.29 190.79 472.17 189.79 C 475.42 191.36 471.41 193.82 471.05 196.07 C 471.40 198.47 472.19 200.78 473.00 203.07 C 469.43 207.18 463.85 211.68 465.13 217.79 C 468.86 223.06 472.37 210.67 475.30 215.71 C 477.40 218.98 472.65 221.67 471.66 224.66 C 470.01 226.22 472.59 226.77 473.76 227.24 C 476.42 228.01 479.64 228.60 482.26 227.27 C 485.66 225.12 490.94 224.68 492.76 220.68 C 493.30 216.06 492.96 211.41 491.90 206.91 C 491.98 205.65 492.00 204.39 491.98 203.13 C 492.00 201.32 492.03 197.70 492.05 195.89 C 496.38 198.01 500.27 200.92 503.75 204.26 C 520.24 219.81 532.66 239.50 540.36 260.78 C 540.22 261.57 539.96 263.14 539.83 263.92 C 514.22 264.17 488.61 263.87 463.00 264.01 C 460.51 263.41 460.62 266.39 459.82 267.94 C 396.47 267.94 333.12 268.22 269.77 267.81 C 272.21 266.46 274.87 265.57 277.32 264.23 C 258.22 263.59 239.11 264.36 220.01 263.87 C 209.78 262.07 199.52 263.83 189.27 264.29 C 186.40 264.21 183.53 264.18 180.67 264.22 C 180.51 263.71 180.17 262.70 180.00 262.19 C 194.43 259.61 208.64 255.82 222.68 251.62 C 228.20 249.82 234.30 249.36 239.27 246.16 C 241.65 244.84 241.03 240.46 239.09 238.93 C 239.05 237.62 239.02 236.31 238.98 235.00 L 238.97 234.00 C 239.02 229.36 238.94 224.71 239.07 220.08 C 256.58 221.94 274.18 222.81 291.78 223.22 C 297.18 223.91 302.92 224.72 308.29 223.35 C 331.06 214.76 353.46 205.11 375.16 194.08 C 380.54 192.19 385.31 188.97 390.27 186.21 C 398.35 182.57 405.99 178.00 413.32 173.04 C 426.77 164.63 439.72 155.38 452.03 145.39 Z" />
</g>
<g id="#a9898fc8">
<path fill="#a9898f" stroke="#a9898f" stroke-width="0.09375" opacity="0.78" d=" M 735.75 120.28 C 739.91 120.19 744.08 120.22 748.27 120.35 C 744.21 121.62 739.82 120.91 735.75 120.28 Z" />
</g>
<g id="#464351f9">
<path fill="#464351" stroke="#464351" stroke-width="0.09375" opacity="0.98" d=" M 354.04 127.00 C 357.42 127.70 361.63 127.09 363.86 130.23 C 364.14 132.42 363.19 134.53 363.15 136.71 C 366.72 139.42 370.96 139.17 374.81 137.25 C 376.73 147.11 378.59 157.00 380.19 166.93 C 381.42 166.72 382.62 166.38 383.83 166.09 C 385.98 172.79 388.27 179.45 390.27 186.21 C 385.31 188.97 380.54 192.19 375.16 194.08 C 370.32 180.03 365.61 165.89 363.90 151.08 C 359.90 143.35 354.49 136.11 354.04 127.00 Z" />
</g>
<g id="#3e4847c8">
<path fill="#3e4847" stroke="#3e4847" stroke-width="0.09375" opacity="0.78" d=" M 716.76 130.22 C 720.51 130.00 724.20 129.99 727.97 130.00 C 726.39 133.26 719.58 129.78 716.76 130.22 Z" />
</g>
<g id="#3e4749ce">
<path fill="#3e4749" stroke="#3e4749" stroke-width="0.09375" opacity="0.81" d=" M 674.09 135.87 C 677.50 136.01 680.83 136.30 684.22 136.85 C 680.96 136.67 676.84 137.80 674.09 135.87 Z" />
</g>
<g id="#4d664acc">
<path fill="#4d664a" stroke="#4d664a" stroke-width="0.09375" opacity="0.80" d=" M 805.22 135.89 C 806.79 137.86 807.04 140.25 805.97 143.08 C 803.97 141.36 803.72 138.97 805.22 135.89 Z" />
</g>
<g id="#05060612">
<path fill="#050606" stroke="#050606" stroke-width="0.09375" opacity="0.07" d=" M 449.11 139.23 C 451.22 136.40 454.86 139.37 457.04 140.72 C 455.31 142.21 453.71 143.84 452.03 145.39 C 450.39 143.80 448.48 141.70 449.11 139.23 Z" />
</g>
<g id="#2a3e2156">
<path fill="#2a3e21" stroke="#2a3e21" stroke-width="0.09375" opacity="0.34" d=" M 818.97 143.00 C 822.67 143.03 826.30 143.05 830.04 143.15 L 830.03 144.00 C 825.92 144.43 822.23 144.09 818.97 143.00 Z" />
</g>
<g id="#151f112c">
<path fill="#151f11" stroke="#151f11" stroke-width="0.09375" opacity="0.17" d=" M 830.04 143.15 C 832.31 142.15 834.67 142.36 837.10 143.80 C 835.33 143.85 831.80 143.95 830.03 144.00 L 830.04 143.15 Z" />
</g>
<g id="#514e7cfb">
<path fill="#514e7c" stroke="#514e7c" stroke-width="0.09375" opacity="1.00" d=" M 400.13 147.99 C 403.40 148.89 406.66 150.51 408.75 153.27 C 408.61 155.68 408.31 160.50 408.17 162.91 C 409.57 166.44 411.92 169.50 413.32 173.04 C 405.99 178.00 398.35 182.57 390.27 186.21 C 388.27 179.45 385.98 172.79 383.83 166.09 C 389.78 164.29 395.82 162.71 401.96 161.72 C 402.01 157.69 400.02 154.12 399.55 150.19 C 399.69 149.64 399.99 148.54 400.13 147.99 Z" />
</g>
<g id="#689258d8">
<path fill="#689258" stroke="#689258" stroke-width="0.09375" opacity="0.85" d=" M 491.26 148.73 C 493.00 156.02 491.95 163.84 491.24 171.23 C 490.96 163.73 490.93 156.22 491.26 148.73 Z" />
</g>
<g id="#8cce6fff">
<path fill="#8cce6f" stroke="#8cce6f" stroke-width="0.09375" opacity="1.00" d=" M 829.89 163.06 C 832.70 163.08 835.91 162.78 838.81 163.13 C 841.08 165.37 839.95 169.12 840.89 171.99 C 840.99 174.75 840.84 177.61 841.65 180.30 C 841.75 180.74 841.94 181.61 842.04 182.04 C 841.86 183.58 841.51 186.66 841.33 188.19 C 837.72 179.72 832.89 171.80 829.89 163.06 Z" />
</g>
<g id="#8dcf70fe">
<path fill="#8dcf70" stroke="#8dcf70" stroke-width="0.09375" opacity="1.00" d=" M 791.71 175.89 C 791.42 171.57 793.68 167.46 797.63 165.78 C 806.36 184.39 814.68 203.20 823.06 221.98 C 823.80 223.83 825.25 225.60 824.88 227.72 C 814.99 231.18 805.96 236.70 796.11 240.17 C 789.98 231.72 787.54 221.35 785.63 211.28 C 785.97 205.44 785.94 199.59 785.74 193.75 C 787.13 187.60 790.89 182.21 791.71 175.89 Z" />
</g>
<g id="#6da056cf">
<path fill="#6da056" stroke="#6da056" stroke-width="0.09375" opacity="0.81" d=" M 840.89 171.99 C 843.34 172.78 841.53 177.86 841.65 180.30 C 840.84 177.61 840.99 174.75 840.89 171.99 Z" />
<path fill="#6da056" stroke="#6da056" stroke-width="0.09375" opacity="0.81" d=" M 853.15 279.83 C 854.46 282.47 853.66 285.40 853.68 288.26 C 852.88 285.52 853.12 282.63 853.15 279.83 Z" />
</g>
<g id="#475548cd">
<path fill="#475548" stroke="#475548" stroke-width="0.09375" opacity="0.80" d=" M 490.14 183.22 C 490.04 180.39 490.39 177.56 490.84 174.78 C 490.89 177.62 490.47 180.40 490.14 183.22 Z" />
</g>
<g id="#6da156ce">
<path fill="#6da156" stroke="#6da156" stroke-width="0.09375" opacity="0.81" d=" M 842.04 182.04 C 845.36 181.36 842.27 187.98 842.97 190.08 C 843.39 192.39 840.03 189.39 841.33 188.19 C 841.51 186.66 841.86 183.58 842.04 182.04 Z" />
<path fill="#6da156" stroke="#6da156" stroke-width="0.09375" opacity="0.81" d=" M 860.12 343.88 C 861.89 345.73 862.13 348.13 860.85 351.10 C 859.05 349.20 858.81 346.79 860.12 343.88 Z" />
</g>
<g id="#587851ce">
<path fill="#587851" stroke="#587851" stroke-width="0.09375" opacity="0.81" d=" M 681.24 198.23 C 681.03 194.39 681.20 190.57 681.76 186.78 C 681.94 190.61 681.76 194.42 681.24 198.23 Z" />
</g>
<g id="#57794fc5">
<path fill="#57794f" stroke="#57794f" stroke-width="0.09375" opacity="0.77" d=" M 785.63 211.28 C 784.31 205.56 784.83 199.49 785.74 193.75 C 785.94 199.59 785.97 205.44 785.63 211.28 Z" />
</g>
<g id="#9d6168fa">
<path fill="#9d6168" stroke="#9d6168" stroke-width="0.09375" opacity="0.98" d=" M 473.00 203.07 C 477.69 200.57 483.15 203.56 488.04 204.28 C 489.42 205.01 490.78 205.79 491.90 206.91 C 492.96 211.41 493.30 216.06 492.76 220.68 C 490.94 224.68 485.66 225.12 482.26 227.27 C 479.41 227.24 476.58 227.23 473.76 227.24 C 472.59 226.77 470.01 226.22 471.66 224.66 C 472.65 221.67 477.40 218.98 475.30 215.71 C 472.37 210.67 468.86 223.06 465.13 217.79 C 463.85 211.68 469.43 207.18 473.00 203.07 Z" />
</g>
<g id="#67504dc9">
<path fill="#67504d" stroke="#67504d" stroke-width="0.09375" opacity="0.79" d=" M 488.04 204.28 C 489.35 203.92 490.66 203.51 491.98 203.13 C 492.00 204.39 491.98 205.65 491.90 206.91 C 490.78 205.79 489.42 205.01 488.04 204.28 Z" />
</g>
<g id="#6ca056d1">
<path fill="#6ca056" stroke="#6ca056" stroke-width="0.09375" opacity="0.82" d=" M 453.18 222.22 C 453.07 219.40 453.37 216.56 453.77 213.77 C 453.91 216.61 453.50 219.40 453.18 222.22 Z" />
</g>
<g id="#4a6e3b97">
<path fill="#4a6e3b" stroke="#4a6e3b" stroke-width="0.09375" opacity="0.59" d=" M 291.78 223.22 C 297.28 222.81 302.78 223.12 308.29 223.35 C 302.92 224.72 297.18 223.91 291.78 223.22 Z" />
</g>
<g id="#795f53cc">
<path fill="#795f53" stroke="#795f53" stroke-width="0.09375" opacity="0.80" d=" M 473.76 227.24 C 476.58 227.23 479.41 227.24 482.26 227.27 C 479.64 228.60 476.42 228.01 473.76 227.24 Z" />
</g>
<g id="#6ca056cf">
<path fill="#6ca056" stroke="#6ca056" stroke-width="0.09375" opacity="0.81" d=" M 453.27 228.73 C 454.47 231.79 453.73 235.07 453.64 238.27 C 452.68 235.18 453.15 231.90 453.27 228.73 Z" />
</g>
<g id="#11101458">
<path fill="#111014" stroke="#111014" stroke-width="0.09375" opacity="0.35" d=" M 99.73 234.64 C 102.42 233.90 105.20 233.79 107.99 233.96 C 151.65 234.04 195.31 233.98 238.97 234.00 L 238.98 235.00 C 192.57 234.75 146.13 235.50 99.73 234.64 Z" />
</g>
<g id="#33323dfe">
<path fill="#33323d" stroke="#33323d" stroke-width="0.09375" opacity="1.00" d=" M 68.09 263.84 C 70.98 248.59 83.99 235.92 99.73 234.64 C 146.13 235.50 192.57 234.75 238.98 235.00 C 239.02 236.31 239.05 237.62 239.09 238.93 C 239.14 240.74 239.23 244.35 239.27 246.16 C 234.30 249.36 228.20 249.82 222.68 251.62 C 208.64 255.82 194.43 259.61 180.00 262.19 C 180.17 262.70 180.51 263.71 180.67 264.22 L 180.96 265.14 C 181.04 265.63 181.18 266.63 181.26 267.12 C 180.98 267.38 180.43 267.88 180.15 268.14 C 147.69 268.01 115.22 267.71 82.76 268.30 C 77.64 267.76 73.00 265.22 68.09 263.84 Z" />
<path fill="#33323d" stroke="#33323d" stroke-width="0.09375" opacity="1.00" d=" M 479.04 479.93 C 476.90 451.00 501.94 423.78 530.73 422.67 C 567.13 423.45 603.57 422.76 639.99 423.01 C 640.57 444.06 638.90 465.36 640.75 486.27 C 641.01 496.42 641.30 506.62 640.80 516.78 C 639.83 522.12 640.02 527.57 639.97 532.99 C 603.24 533.21 566.50 532.61 529.78 533.26 C 504.96 532.09 483.21 511.60 479.76 487.13 C 481.24 484.02 481.00 481.62 479.04 479.93 M 536.34 457.42 C 526.16 459.02 519.11 468.94 519.02 478.94 C 519.97 493.49 537.29 504.33 550.35 496.40 C 561.06 490.74 564.36 475.43 557.20 465.78 C 552.50 459.48 544.24 455.38 536.34 457.42 Z" />
</g>
<g id="#465749c5">
<path fill="#465749" stroke="#465749" stroke-width="0.09375" opacity="0.77" d=" M 673.19 249.23 C 673.11 245.06 672.87 240.87 673.74 236.76 C 673.88 240.93 674.15 245.11 673.19 249.23 Z" />
</g>
<g id="#6d9f58eb">
<path fill="#6d9f58" stroke="#6d9f58" stroke-width="0.09375" opacity="0.92" d=" M 239.09 238.93 C 241.03 240.46 241.65 244.84 239.27 246.16 C 239.23 244.35 239.14 240.74 239.09 238.93 Z" />
</g>
<g id="#64934ff7">
<path fill="#64934f" stroke="#64934f" stroke-width="0.09375" opacity="0.97" d=" M 846.77 255.59 C 853.64 252.86 860.39 248.60 867.82 248.07 C 869.99 251.38 871.93 255.01 873.01 258.84 C 866.96 262.12 860.28 264.07 853.96 266.78 C 852.92 265.86 851.94 264.90 851.00 263.90 C 850.12 260.58 851.63 255.05 846.77 255.59 Z" />
</g>
<g id="#70a459fa">
<path fill="#70a459" stroke="#70a459" stroke-width="0.09375" opacity="0.98" d=" M 811.99 269.94 C 823.53 265.03 835.01 259.95 846.77 255.59 C 851.63 255.05 850.12 260.58 851.00 263.90 C 851.01 265.28 851.01 266.66 851.03 268.04 C 830.27 276.57 809.58 285.30 788.96 294.17 C 787.76 290.53 787.06 286.75 785.81 283.12 C 785.90 281.11 785.98 278.89 788.10 277.98 C 793.98 277.50 799.79 276.43 805.65 275.63 C 807.92 275.02 806.15 272.63 806.16 271.07 C 808.14 270.92 810.20 271.05 811.99 269.94 Z" />
</g>
<g id="#88c86cfd">
<path fill="#88c86c" stroke="#88c86c" stroke-width="0.09375" opacity="1.00" d=" M 283.57 263.02 C 284.84 262.00 286.37 261.39 287.91 260.87 C 287.70 261.39 287.28 262.45 287.07 262.97 C 334.72 263.05 382.36 262.97 430.01 262.99 C 432.62 263.25 437.83 263.75 440.43 264.00 C 389.96 263.90 339.48 264.19 289.01 263.87 C 287.65 263.66 284.93 263.23 283.57 263.02 Z" />
</g>
<g id="#73a95bfe">
<path fill="#73a95b" stroke="#73a95b" stroke-width="0.09375" opacity="1.00" d=" M 540.36 260.78 C 540.84 261.90 541.31 263.04 541.88 264.13 C 542.08 264.61 542.48 265.57 542.68 266.05 C 541.69 268.27 539.79 268.91 537.00 267.95 C 511.62 268.08 486.24 267.98 460.86 267.98 L 459.82 267.94 C 460.62 266.39 460.51 263.41 463.00 264.01 C 488.61 263.87 514.22 264.17 539.83 263.92 C 539.96 263.14 540.22 261.57 540.36 260.78 Z" />
</g>
<g id="#72a85bfd">
<path fill="#72a85b" stroke="#72a85b" stroke-width="0.09375" opacity="1.00" d=" M 189.27 264.29 C 199.52 263.83 209.78 262.07 220.01 263.87 C 239.11 264.36 258.22 263.59 277.32 264.23 C 274.87 265.57 272.21 266.46 269.77 267.81 C 269.33 267.86 268.44 267.95 267.99 268.00 C 239.61 268.08 211.23 267.84 182.86 268.11 C 182.46 267.86 181.66 267.37 181.26 267.12 C 181.18 266.63 181.04 265.63 180.96 265.14 C 183.73 264.96 186.58 265.13 189.27 264.29 Z" />
</g>
<g id="#83c068fe">
<path fill="#83c068" stroke="#83c068" stroke-width="0.09375" opacity="1.00" d=" M 287.97 265.01 C 283.30 266.18 281.83 265.52 283.57 263.02 C 284.93 263.23 287.65 263.66 289.01 263.87 C 339.48 264.19 389.96 263.90 440.43 264.00 C 438.14 265.20 435.67 265.54 433.01 265.03 C 384.66 264.96 336.32 265.01 287.97 265.01 Z" />
</g>
<g id="#7eb964fa">
<path fill="#7eb964" stroke="#7eb964" stroke-width="0.09375" opacity="0.98" d=" M 541.88 264.13 C 564.79 263.65 587.73 264.54 610.64 263.46 C 623.59 263.31 635.99 272.32 639.43 284.83 C 639.09 285.12 638.42 285.71 638.08 286.00 C 634.19 277.17 625.75 270.37 616.24 268.73 C 594.56 267.08 572.73 268.41 550.99 268.05 C 549.20 266.47 543.09 270.06 542.68 266.05 C 542.48 265.57 542.08 264.61 541.88 264.13 Z" />
</g>
<g id="#504f60ff">
<path fill="#504f60" stroke="#504f60" stroke-width="0.09375" opacity="1.00" d=" M 68.09 263.84 C 73.00 265.22 77.64 267.76 82.76 268.30 C 114.74 269.86 146.86 268.66 178.88 268.93 C 179.20 268.73 179.83 268.34 180.15 268.14 C 180.43 267.88 180.98 267.38 181.26 267.12 C 181.66 267.37 182.46 267.86 182.86 268.11 C 189.31 269.83 196.33 268.68 203.00 269.02 C 224.66 268.95 246.33 269.05 267.99 268.98 C 332.34 269.02 396.69 269.01 461.05 268.99 C 512.78 268.83 564.52 269.37 616.24 268.73 C 625.75 270.37 634.19 277.17 638.08 286.00 C 637.75 287.61 638.86 288.87 639.77 290.05 C 639.92 290.72 640.20 292.05 640.35 292.72 C 639.91 301.47 639.94 310.24 640.02 319.00 C 639.96 353.34 640.05 387.67 639.98 422.01 C 607.98 421.96 575.99 422.05 544.00 421.96 C 539.58 422.23 535.01 421.33 530.73 422.67 C 501.94 423.78 476.90 451.00 479.04 479.93 C 477.94 482.70 478.18 485.10 479.76 487.13 C 483.21 511.60 504.96 532.09 529.78 533.26 C 566.42 535.02 603.20 533.42 639.90 534.06 C 639.95 536.70 640.00 539.34 640.03 542.00 C 640.16 577.41 639.64 612.84 640.25 648.25 C 638.38 658.09 631.62 666.35 622.81 670.91 C 617.76 672.73 612.33 673.14 607.01 673.02 C 438.67 672.98 270.33 672.98 101.99 673.02 C 96.65 673.12 91.23 672.77 86.20 670.87 C 76.39 666.33 69.35 656.73 67.99 646.02 C 68.07 518.63 67.88 391.23 68.09 263.84 Z" />
</g>
<g id="#62914edd">
<path fill="#62914e" stroke="#62914e" stroke-width="0.09375" opacity="0.87" d=" M 180.67 264.22 C 183.53 264.18 186.40 264.21 189.27 264.29 C 186.58 265.13 183.73 264.96 180.96 265.14 L 180.67 264.22 Z" />
</g>
<g id="#5c8849cd">
<path fill="#5c8849" stroke="#5c8849" stroke-width="0.09375" opacity="0.80" d=" M 851.00 263.90 C 851.94 264.90 852.92 265.86 853.96 266.78 C 852.19 266.97 851.91 268.70 851.34 270.06 C 851.26 269.55 851.10 268.54 851.03 268.04 C 851.01 266.66 851.01 265.28 851.00 263.90 Z" />
</g>
<g id="#4c6348c3">
<path fill="#4c6348" stroke="#4c6348" stroke-width="0.09375" opacity="0.76" d=" M 537.00 267.95 C 539.79 268.91 541.69 268.27 542.68 266.05 C 543.09 270.06 549.20 266.47 550.99 268.05 C 572.73 268.41 594.56 267.08 616.24 268.73 C 564.52 269.37 512.78 268.83 461.05 268.99 L 460.86 267.98 C 486.24 267.98 511.62 268.08 537.00 267.95 Z" />
</g>
<g id="#4a5f4ac5">
<path fill="#4a5f4a" stroke="#4a5f4a" stroke-width="0.09375" opacity="0.77" d=" M 669.13 282.20 C 669.15 276.71 668.63 271.18 669.73 265.76 C 669.71 271.22 670.65 276.83 669.13 282.20 Z" />
</g>
<g id="#373643c3">
<path fill="#373643" stroke="#373643" stroke-width="0.09375" opacity="0.76" d=" M 82.76 268.30 C 115.22 267.71 147.69 268.01 180.15 268.14 C 179.83 268.34 179.20 268.73 178.88 268.93 C 146.86 268.66 114.74 269.86 82.76 268.30 Z" />
</g>
<g id="#495e46c4">
<path fill="#495e46" stroke="#495e46" stroke-width="0.09375" opacity="0.77" d=" M 182.86 268.11 C 211.23 267.84 239.61 268.08 267.99 268.00 L 267.99 268.98 C 246.33 269.05 224.66 268.95 203.00 269.02 C 196.33 268.68 189.31 269.83 182.86 268.11 Z" />
</g>
<g id="#444c49c3">
<path fill="#444c49" stroke="#444c49" stroke-width="0.09375" opacity="0.76" d=" M 267.99 268.00 C 268.44 267.95 269.33 267.86 269.77 267.81 C 333.12 268.22 396.47 267.94 459.82 267.94 L 460.86 267.98 L 461.05 268.99 C 396.69 269.01 332.34 269.02 267.99 268.98 L 267.99 268.00 Z" />
</g>
<g id="#485d44ca">
<path fill="#485d44" stroke="#485d44" stroke-width="0.09375" opacity="0.79" d=" M 783.97 280.84 C 784.62 278.89 785.90 277.66 788.10 277.98 C 785.98 278.89 785.90 281.11 785.81 283.12 C 785.20 282.35 784.59 281.59 783.97 280.84 Z" />
</g>
<g id="#464353fe">
<path fill="#464353" stroke="#464353" stroke-width="0.09375" opacity="1.00" d=" M 744.06 286.66 C 757.34 284.63 770.72 283.09 783.97 280.84 C 784.59 281.59 785.20 282.35 785.81 283.12 C 787.06 286.75 787.76 290.53 788.96 294.17 C 791.85 304.12 793.50 314.41 793.13 324.81 C 802.54 327.77 811.25 333.47 821.34 334.63 C 827.69 335.51 828.22 343.37 828.67 348.32 C 828.95 352.49 831.97 355.61 833.74 359.22 C 836.21 363.71 834.54 369.18 835.90 374.01 C 835.00 374.36 834.10 374.71 833.21 375.04 C 831.34 373.17 829.95 370.31 827.09 369.87 C 824.83 371.93 823.61 376.24 819.29 373.81 C 812.24 366.20 802.91 355.26 791.12 360.22 C 793.00 370.48 799.12 379.99 796.64 390.87 C 794.32 403.09 802.80 413.43 805.25 424.96 C 806.75 431.61 809.47 437.95 810.27 444.76 C 810.13 450.24 809.64 455.79 810.72 461.24 C 811.45 466.00 812.24 470.93 814.60 475.21 C 815.18 477.72 815.91 480.20 816.26 482.76 C 816.16 486.93 816.16 491.11 816.25 495.30 C 810.52 504.31 804.72 513.30 798.39 521.90 C 794.86 520.31 790.89 519.89 787.10 520.53 C 786.05 518.79 785.28 516.52 783.23 515.75 C 784.70 512.56 781.05 509.49 782.28 506.30 C 784.45 502.81 787.44 499.83 789.07 496.01 C 785.46 492.97 780.48 490.97 779.02 486.00 C 775.94 479.58 776.35 471.96 778.17 465.23 C 779.33 461.44 778.98 457.55 778.38 453.74 C 778.56 444.65 774.66 436.35 772.30 427.78 C 771.72 424.06 771.43 420.04 769.08 416.93 C 765.42 411.98 764.58 405.74 763.04 399.94 C 763.24 397.45 762.99 395.06 762.28 392.77 C 756.32 378.79 752.82 363.89 746.69 349.96 C 744.09 352.07 743.55 355.69 742.76 358.76 C 741.51 367.50 741.56 376.50 742.68 385.26 C 743.70 390.14 743.70 395.19 744.96 400.03 C 741.42 406.16 742.00 413.10 743.22 419.78 C 743.20 422.53 743.17 428.04 743.15 430.79 L 744.15 431.00 L 745.12 431.20 C 744.82 431.40 744.24 431.81 743.95 432.01 C 742.23 436.01 742.56 441.68 743.64 446.26 C 743.74 446.93 743.94 448.27 744.04 448.94 C 743.61 455.94 745.15 463.30 742.63 470.04 C 741.59 472.16 741.15 474.86 742.48 476.91 C 742.79 478.49 743.79 479.77 744.92 480.87 C 745.58 486.18 749.77 491.54 746.79 496.72 C 746.53 498.56 744.70 503.31 746.89 503.91 C 747.68 503.98 749.25 504.13 750.04 504.21 C 748.58 508.38 746.72 512.43 745.69 516.76 C 745.30 518.08 745.01 519.42 744.65 520.76 C 737.05 520.94 729.54 522.11 722.06 523.29 C 717.96 519.53 715.12 513.75 715.02 508.15 C 716.85 507.08 718.93 506.57 720.88 505.72 C 721.16 502.49 716.41 502.24 715.59 499.37 C 712.78 493.15 721.95 488.29 718.96 482.09 C 717.33 473.52 716.79 464.76 714.66 456.27 C 714.55 452.11 715.49 447.77 714.34 443.71 C 713.63 440.93 712.67 438.19 711.19 435.72 C 711.05 434.18 710.96 432.63 710.88 431.10 C 712.03 428.26 711.81 425.85 710.23 423.87 C 708.27 418.33 705.06 413.02 705.01 407.00 L 705.13 406.15 C 705.49 403.41 706.04 400.75 706.04 398.01 C 705.94 390.93 706.48 383.77 705.20 376.77 C 702.90 362.88 701.57 348.85 699.92 334.87 C 699.89 334.21 699.83 332.88 699.80 332.22 C 699.86 328.06 699.96 323.90 699.44 319.78 C 698.65 309.16 699.11 298.50 698.93 287.86 C 698.96 287.16 699.00 285.76 699.03 285.06 L 699.91 285.10 C 703.43 287.10 707.91 285.33 711.73 285.72 C 714.53 285.76 717.35 285.82 720.19 285.89 C 725.68 286.56 731.45 288.86 736.91 287.00 C 738.70 286.92 742.27 286.75 744.06 286.66 Z" />
<path fill="#464353" stroke="#464353" stroke-width="0.09375" opacity="1.00" d=" M 951.26 459.97 C 953.24 461.55 955.59 462.76 957.20 464.78 C 956.99 470.92 956.98 477.08 957.27 483.23 C 956.85 490.24 951.75 495.53 948.05 501.04 C 944.91 505.72 939.79 508.30 935.15 511.20 C 931.01 519.14 927.67 527.74 921.20 534.20 C 916.15 539.71 909.16 542.75 903.41 547.30 C 903.10 550.51 900.88 552.99 899.98 555.94 C 901.72 559.07 905.44 561.15 906.12 564.89 C 907.25 570.11 908.72 575.29 909.57 580.58 C 910.68 586.33 909.12 592.35 911.11 598.00 C 912.20 601.51 912.75 605.07 912.80 608.76 C 911.94 612.53 911.85 616.45 912.66 620.26 C 912.87 621.75 913.08 623.26 913.27 624.77 C 913.40 631.80 911.96 639.37 913.89 646.13 C 916.68 649.78 920.45 653.65 918.94 658.77 C 918.05 659.99 916.57 659.88 915.25 659.92 C 907.38 658.48 901.93 652.37 894.97 649.04 C 891.20 648.59 886.70 645.22 883.23 648.09 C 880.94 650.58 879.18 653.52 876.71 655.84 C 869.33 656.86 863.29 652.11 857.04 649.13 C 854.61 647.49 852.81 645.13 851.35 642.63 C 849.61 638.64 853.79 636.51 853.97 633.00 C 855.15 622.04 857.10 611.19 858.22 600.23 C 858.85 595.45 859.72 590.45 858.37 585.73 C 856.54 575.77 854.45 565.83 851.90 556.03 C 850.23 549.89 845.50 544.66 846.00 538.00 C 845.66 533.60 847.35 529.41 850.01 526.03 C 860.78 510.18 873.55 495.83 884.91 480.42 C 887.98 480.86 891.83 481.71 893.31 478.27 C 899.45 470.55 909.46 476.21 917.63 474.61 C 926.02 471.56 933.89 467.00 942.92 465.85 C 945.87 464.39 950.48 463.58 951.26 459.97 Z" />
</g>
<g id="#393d46ce">
<path fill="#393d46" stroke="#393d46" stroke-width="0.09375" opacity="0.81" d=" M 688.74 284.63 C 692.41 284.08 696.38 283.32 699.91 285.10 L 699.03 285.06 C 695.61 284.93 692.12 284.77 688.74 284.63 Z" />
</g>
<g id="#5d844fc6">
<path fill="#5d844f" stroke="#5d844f" stroke-width="0.09375" opacity="0.78" d=" M 639.43 284.83 C 640.48 286.39 640.15 288.32 639.77 290.05 C 638.86 288.87 637.75 287.61 638.08 286.00 C 638.42 285.71 639.09 285.12 639.43 284.83 Z" />
</g>
<g id="#37354ade">
<path fill="#37354a" stroke="#37354a" stroke-width="0.09375" opacity="0.87" d=" M 711.73 285.72 C 714.47 284.54 717.33 285.14 720.19 285.89 C 717.35 285.82 714.53 285.76 711.73 285.72 Z" />
</g>
<g id="#363343ce">
<path fill="#363343" stroke="#363343" stroke-width="0.09375" opacity="0.81" d=" M 736.91 287.00 C 738.40 284.38 741.71 285.44 744.06 286.66 C 742.27 286.75 738.70 286.92 736.91 287.00 Z" />
</g>
<g id="#7eba64fe">
<path fill="#7eba64" stroke="#7eba64" stroke-width="0.09375" opacity="1.00" d=" M 641.07 317.15 C 660.54 307.79 679.07 296.47 698.93 287.86 C 699.11 298.50 698.65 309.16 699.44 319.78 C 699.13 320.09 698.50 320.70 698.19 321.01 C 679.80 330.43 660.44 338.04 642.83 348.94 C 642.40 348.90 641.54 348.84 641.10 348.80 C 640.84 338.87 641.03 328.94 641.00 319.01 C 641.01 318.55 641.05 317.62 641.07 317.15 Z" />
</g>
<g id="#464e4dcb">
<path fill="#464e4d" stroke="#464e4d" stroke-width="0.09375" opacity="0.80" d=" M 640.35 292.72 C 642.05 300.70 640.48 309.05 641.07 317.15 C 641.05 317.62 641.01 318.55 641.00 319.01 L 640.02 319.00 C 639.94 310.24 639.91 301.47 640.35 292.72 Z" />
</g>
<g id="#4f624fcc">
<path fill="#4f624f" stroke="#4f624f" stroke-width="0.09375" opacity="0.80" d=" M 640.02 319.00 L 641.00 319.01 C 641.03 328.94 640.84 338.87 641.10 348.80 C 641.54 348.84 642.40 348.90 642.83 348.94 C 639.48 352.56 640.72 358.75 641.63 363.35 C 640.39 381.48 641.08 399.73 641.10 417.91 C 641.85 417.96 643.34 418.06 644.09 418.11 C 641.44 418.53 640.61 420.44 640.94 422.96 L 639.99 423.01 L 639.98 422.01 C 640.05 387.67 639.96 353.34 640.02 319.00 Z" />
</g>
<g id="#4b6245cd">
<path fill="#4b6245" stroke="#4b6245" stroke-width="0.09375" opacity="0.80" d=" M 699.44 319.78 C 699.96 323.90 699.86 328.06 699.80 332.22 C 699.21 328.47 698.77 324.73 698.19 321.01 C 698.50 320.70 699.13 320.09 699.44 319.78 Z" />
</g>
<g id="#6fa459f9">
<path fill="#6fa459" stroke="#6fa459" stroke-width="0.09375" opacity="0.98" d=" M 642.83 348.94 C 660.44 338.04 679.80 330.43 698.19 321.01 C 698.77 324.73 699.21 328.47 699.80 332.22 C 699.83 332.88 699.89 334.21 699.92 334.87 C 680.20 343.74 661.36 354.49 641.63 363.35 C 640.72 358.75 639.48 352.56 642.83 348.94 Z" />
</g>
<g id="#6da156cd">
<path fill="#6da156" stroke="#6da156" stroke-width="0.09375" opacity="0.80" d=" M 859.05 334.92 C 860.89 336.70 861.17 339.10 859.87 342.12 C 858.08 340.24 857.81 337.84 859.05 334.92 Z" />
</g>
<g id="#8cce6ffd">
<path fill="#8cce6f" stroke="#8cce6f" stroke-width="0.09375" opacity="1.00" d=" M 742.76 358.76 C 743.55 355.69 744.09 352.07 746.69 349.96 C 752.82 363.89 756.32 378.79 762.28 392.77 C 762.15 394.43 762.05 396.10 761.80 397.75 C 760.46 398.06 759.13 398.31 757.81 398.61 C 753.46 398.77 749.28 399.84 744.96 400.03 C 743.70 395.19 743.70 390.14 742.68 385.26 C 742.98 376.43 743.30 367.58 742.76 358.76 Z" />
</g>
<g id="#5d814fc5">
<path fill="#5d814f" stroke="#5d814f" stroke-width="0.09375" opacity="0.77" d=" M 742.68 385.26 C 741.56 376.50 741.51 367.50 742.76 358.76 C 743.30 367.58 742.98 376.43 742.68 385.26 Z" />
</g>
<g id="#f6bbbbfc">
<path fill="#f6bbbb" stroke="#f6bbbb" stroke-width="0.09375" opacity="1.00" d=" M 791.12 360.22 C 802.91 355.26 812.24 366.20 819.29 373.81 C 823.61 376.24 824.83 371.93 827.09 369.87 C 829.95 370.31 831.34 373.17 833.21 375.04 C 829.77 385.05 830.71 395.77 828.84 406.03 C 826.82 405.53 824.97 404.52 823.08 403.71 C 818.47 400.48 815.07 395.67 809.89 393.25 C 805.59 392.89 799.43 395.21 796.64 390.87 C 799.12 379.99 793.00 370.48 791.12 360.22 Z" />
</g>
<g id="#6ea257d0">
<path fill="#6ea257" stroke="#6ea257" stroke-width="0.09375" opacity="0.82" d=" M 863.16 369.84 C 864.59 372.45 863.93 375.45 863.26 378.23 C 863.19 375.43 863.16 372.63 863.16 369.84 Z" />
</g>
<g id="#febc00fe">
<path fill="#febc00" stroke="#febc00" stroke-width="0.09375" opacity="1.00" d=" M 833.21 375.04 C 834.10 374.71 835.00 374.36 835.90 374.01 C 840.19 373.16 843.34 376.44 846.99 378.01 C 851.47 381.04 857.26 379.17 862.04 381.42 C 874.49 387.09 886.89 392.99 898.05 401.00 C 910.01 411.86 924.55 419.52 935.42 431.60 C 941.59 439.37 946.11 448.25 951.23 456.70 C 951.82 457.68 951.17 458.89 951.26 459.97 C 950.48 463.58 945.87 464.39 942.92 465.85 C 933.89 467.00 926.02 471.56 917.63 474.61 C 909.46 476.21 899.45 470.55 893.31 478.27 C 891.83 481.71 887.98 480.86 884.91 480.42 C 884.62 478.88 884.04 475.81 883.75 474.27 C 874.36 472.56 864.52 470.18 857.68 463.02 C 863.77 454.28 870.28 444.48 867.90 433.17 C 863.56 429.85 857.58 429.56 852.40 430.37 C 847.01 434.11 841.21 437.18 834.95 439.12 C 831.15 437.61 827.11 436.99 823.05 437.02 C 819.32 437.65 822.43 434.11 822.51 432.23 C 821.35 429.45 819.99 426.77 818.87 424.00 C 819.84 419.04 820.08 413.95 819.09 408.97 C 818.66 406.42 821.61 405.28 823.08 403.71 C 824.97 404.52 826.82 405.53 828.84 406.03 C 830.71 395.77 829.77 385.05 833.21 375.04 Z" />
</g>
<g id="#58794dc3">
<path fill="#58794d" stroke="#58794d" stroke-width="0.09375" opacity="0.76" d=" M 705.20 376.77 C 706.48 383.77 705.94 390.93 706.04 398.01 L 705.03 397.99 C 704.89 390.92 705.05 383.84 705.20 376.77 Z" />
</g>
<g id="#7eb864fb">
<path fill="#7eb864" stroke="#7eb864" stroke-width="0.09375" opacity="1.00" d=" M 805.25 424.96 C 802.80 413.43 794.32 403.09 796.64 390.87 C 799.43 395.21 805.59 392.89 809.89 393.25 C 815.07 395.67 818.47 400.48 823.08 403.71 C 821.61 405.28 818.66 406.42 819.09 408.97 C 820.08 413.95 819.84 419.04 818.87 424.00 C 816.98 424.01 815.10 424.04 813.23 424.14 C 810.53 424.00 807.88 424.45 805.25 424.96 Z" />
</g>
<g id="#608a4fc5">
<path fill="#608a4f" stroke="#608a4f" stroke-width="0.09375" opacity="0.77" d=" M 762.28 392.77 C 762.99 395.06 763.24 397.45 763.04 399.94 C 761.35 399.28 759.57 398.90 757.81 398.61 C 759.13 398.31 760.46 398.06 761.80 397.75 C 762.05 396.10 762.15 394.43 762.28 392.77 Z" />
</g>
<g id="#4b5b4bd1">
<path fill="#4b5b4b" stroke="#4b5b4b" stroke-width="0.09375" opacity="0.82" d=" M 705.03 397.99 L 706.04 398.01 C 706.04 400.75 705.49 403.41 705.13 406.15 C 705.08 403.42 705.05 400.70 705.03 397.99 Z" />
</g>
<g id="#7eb964fd">
<path fill="#7eb964" stroke="#7eb964" stroke-width="0.09375" opacity="1.00" d=" M 744.96 400.03 C 749.28 399.84 753.46 398.77 757.81 398.61 C 759.57 398.90 761.35 399.28 763.04 399.94 C 764.58 405.74 765.42 411.98 769.08 416.93 C 771.43 420.04 771.72 424.06 772.30 427.78 C 763.34 429.58 754.17 430.10 745.12 431.20 L 744.15 431.00 C 744.00 427.24 743.69 423.49 743.22 419.78 C 742.00 413.10 741.42 406.16 744.96 400.03 Z" />
<path fill="#7eb964" stroke="#7eb964" stroke-width="0.09375" opacity="1.00" d=" M 644.09 418.11 C 664.13 413.28 684.54 409.42 705.01 407.00 C 705.06 413.02 708.27 418.33 710.23 423.87 C 708.75 426.85 708.97 429.27 710.88 431.10 C 710.96 432.63 711.05 434.18 711.19 435.72 C 687.74 439.04 664.18 442.04 641.03 447.04 C 640.96 439.01 641.03 430.98 640.94 422.96 C 640.61 420.44 641.44 418.53 644.09 418.11 Z" />
</g>
<g id="#506948c8">
<path fill="#506948" stroke="#506948" stroke-width="0.09375" opacity="0.78" d=" M 743.22 419.78 C 743.69 423.49 744.00 427.24 744.15 431.00 L 743.15 430.79 C 743.17 428.04 743.20 422.53 743.22 419.78 Z" />
</g>
<g id="#3c3b48d6">
<path fill="#3c3b48" stroke="#3c3b48" stroke-width="0.09375" opacity="0.84" d=" M 530.73 422.67 C 535.01 421.33 539.58 422.23 544.00 421.96 C 575.99 422.05 607.98 421.96 639.98 422.01 L 639.99 423.01 C 603.57 422.76 567.13 423.45 530.73 422.67 Z" />
</g>
<g id="#2e2e37e8">
<path fill="#2e2e37" stroke="#2e2e37" stroke-width="0.09375" opacity="0.91" d=" M 639.99 423.01 L 640.94 422.96 C 641.03 430.98 640.96 439.01 641.03 447.04 C 640.82 460.11 641.32 473.20 640.75 486.27 C 638.90 465.36 640.57 444.06 639.99 423.01 Z" />
</g>
<g id="#53704acb">
<path fill="#53704a" stroke="#53704a" stroke-width="0.09375" opacity="0.80" d=" M 710.23 423.87 C 711.81 425.85 712.03 428.26 710.88 431.10 C 708.97 429.27 708.75 426.85 710.23 423.87 Z" />
</g>
<g id="#08080839">
<path fill="#080808" stroke="#080808" stroke-width="0.09375" opacity="0.22" d=" M 805.25 424.96 C 807.88 424.45 810.53 424.00 813.23 424.14 C 811.85 424.56 810.45 424.90 809.09 425.31 C 809.20 431.96 813.07 437.98 813.39 444.68 C 814.11 453.03 812.54 461.74 816.24 469.71 C 816.68 469.87 817.58 470.19 818.03 470.35 C 817.65 471.05 817.29 471.77 816.95 472.50 C 816.15 473.39 815.36 474.29 814.60 475.21 C 812.24 470.93 811.45 466.00 810.72 461.24 C 810.83 455.74 811.36 450.19 810.27 444.76 C 809.47 437.95 806.75 431.61 805.25 424.96 Z" />
</g>
<g id="#f9bdbcfd">
<path fill="#f9bdbc" stroke="#f9bdbc" stroke-width="0.09375" opacity="1.00" d=" M 852.40 430.37 C 857.58 429.56 863.56 429.85 867.90 433.17 C 870.28 444.48 863.77 454.28 857.68 463.02 C 853.45 469.29 855.87 477.99 851.04 484.03 C 846.69 491.18 841.78 497.97 836.42 504.40 C 831.57 511.20 824.17 515.45 818.80 521.78 C 817.50 523.02 816.19 524.24 815.01 525.59 C 811.40 529.65 808.31 534.12 804.69 538.17 C 803.63 539.47 802.63 540.81 801.58 542.12 C 801.00 542.70 800.42 543.29 799.86 543.90 C 792.79 549.29 783.29 554.35 774.31 550.66 C 771.89 550.13 770.88 547.78 769.66 545.91 C 771.27 543.54 775.69 542.81 774.90 539.35 C 771.40 538.30 766.89 537.75 765.03 534.22 C 769.13 530.99 774.06 529.12 779.12 527.96 C 785.77 527.30 793.36 526.78 798.39 521.90 C 804.72 513.30 810.52 504.31 816.25 495.30 C 816.49 495.00 816.98 494.41 817.22 494.11 C 818.95 492.01 820.58 489.81 822.08 487.54 C 826.48 482.23 830.11 476.33 832.93 470.05 C 832.88 468.27 832.79 464.72 832.75 462.94 C 832.25 460.91 831.56 458.94 830.55 457.11 C 831.82 451.09 832.77 444.90 834.95 439.12 C 841.21 437.18 847.01 434.11 852.40 430.37 Z" />
</g>
<g id="#33303cc6">
<path fill="#33303c" stroke="#33303c" stroke-width="0.09375" opacity="0.78" d=" M 743.64 446.26 C 742.56 441.68 742.23 436.01 743.95 432.01 C 744.05 432.44 744.24 433.29 744.34 433.72 C 744.10 437.89 743.87 442.07 743.64 446.26 Z" />
</g>
<g id="#0606063a">
<path fill="#060606" stroke="#060606" stroke-width="0.09375" opacity="0.23" d=" M 744.34 433.72 C 745.78 438.70 744.67 443.95 744.99 449.06 L 744.04 448.94 C 743.94 448.27 743.74 446.93 743.64 446.26 C 743.87 442.07 744.10 437.89 744.34 433.72 Z" />
</g>
<g id="#e9b0b0f9">
<path fill="#e9b0b0" stroke="#e9b0b0" stroke-width="0.09375" opacity="0.98" d=" M 823.05 437.02 C 827.11 436.99 831.15 437.61 834.95 439.12 C 832.77 444.90 831.82 451.09 830.55 457.11 C 831.56 458.94 832.25 460.91 832.75 462.94 C 831.82 464.97 830.35 468.60 832.93 470.05 C 830.11 476.33 826.48 482.23 822.08 487.54 C 819.52 482.82 819.71 477.14 816.95 472.50 C 817.29 471.77 817.65 471.05 818.03 470.35 C 819.95 467.09 822.35 464.04 823.47 460.38 C 824.91 456.60 823.18 452.57 822.22 448.88 C 821.51 444.93 822.84 440.97 823.05 437.02 Z" />
</g>
<g id="#2a28329d">
<path fill="#2a2832" stroke="#2a2832" stroke-width="0.09375" opacity="0.62" d=" M 714.34 443.71 C 715.49 447.77 714.55 452.11 714.66 456.27 C 713.74 452.14 714.21 447.86 714.34 443.71 Z" />
</g>
<g id="#17161a6d">
<path fill="#17161a" stroke="#17161a" stroke-width="0.09375" opacity="0.43" d=" M 810.27 444.76 C 811.36 450.19 810.83 455.74 810.72 461.24 C 809.64 455.79 810.13 450.24 810.27 444.76 Z" />
</g>
<g id="#0f0f125d">
<path fill="#0f0f12" stroke="#0f0f12" stroke-width="0.09375" opacity="0.36" d=" M 744.04 448.94 L 744.99 449.06 C 745.07 449.73 745.23 451.06 745.31 451.73 C 745.18 455.89 745.17 460.06 745.27 464.24 C 744.91 466.89 744.13 469.46 743.39 472.04 C 743.20 471.54 742.82 470.54 742.63 470.04 C 745.15 463.30 743.61 455.94 744.04 448.94 Z" />
</g>
<g id="#03030424">
<path fill="#030304" stroke="#030304" stroke-width="0.09375" opacity="0.14" d=" M 745.31 451.73 C 746.71 455.74 745.82 460.14 745.27 464.24 C 745.17 460.06 745.18 455.89 745.31 451.73 Z" />
</g>
<g id="#33313dbe">
<path fill="#33313d" stroke="#33313d" stroke-width="0.09375" opacity="0.75" d=" M 778.38 453.74 C 778.98 457.55 779.33 461.44 778.17 465.23 C 777.97 461.41 778.10 457.54 778.38 453.74 Z" />
</g>
<g id="#be8f8fcb">
<path fill="#be8f8f" stroke="#be8f8f" stroke-width="0.09375" opacity="0.80" d=" M 832.93 470.05 C 830.35 468.60 831.82 464.97 832.75 462.94 C 832.79 464.72 832.88 468.27 832.93 470.05 Z" />
</g>
<g id="#2220287f">
<path fill="#222028" stroke="#222028" stroke-width="0.09375" opacity="0.50" d=" M 957.20 464.78 C 959.66 470.36 957.43 477.31 957.27 483.23 C 956.98 477.08 956.99 470.92 957.20 464.78 Z" />
</g>
<g id="#21202793">
<path fill="#212027" stroke="#212027" stroke-width="0.09375" opacity="0.58" d=" M 742.48 476.91 C 741.15 474.86 741.59 472.16 742.63 470.04 C 742.82 470.54 743.20 471.54 743.39 472.04 C 743.38 472.82 743.35 474.39 743.34 475.18 C 743.13 475.61 742.69 476.48 742.48 476.91 Z" />
</g>
<g id="#cda0a0f0">
<path fill="#cda0a0" stroke="#cda0a0" stroke-width="0.09375" opacity="0.94" d=" M 814.60 475.21 C 815.36 474.29 816.15 473.39 816.95 472.50 C 819.71 477.14 819.52 482.82 822.08 487.54 C 820.58 489.81 818.95 492.01 817.22 494.11 C 817.10 490.30 816.78 486.51 816.26 482.76 C 815.91 480.20 815.18 477.72 814.60 475.21 Z" />
</g>
<g id="#0e0d1056">
<path fill="#0e0d10" stroke="#0e0d10" stroke-width="0.09375" opacity="0.34" d=" M 743.34 475.18 C 744.36 476.90 745.28 478.80 744.92 480.87 C 743.79 479.77 742.79 478.49 742.48 476.91 C 742.69 476.48 743.13 475.61 743.34 475.18 Z" />
</g>
<g id="#2f2e39ce">
<path fill="#2f2e39" stroke="#2f2e39" stroke-width="0.09375" opacity="0.81" d=" M 479.04 479.93 C 481.00 481.62 481.24 484.02 479.76 487.13 C 478.18 485.10 477.94 482.70 479.04 479.93 Z" />
</g>
<g id="#0d0c0f55">
<path fill="#0d0c0f" stroke="#0d0c0f" stroke-width="0.09375" opacity="0.33" d=" M 744.92 480.87 C 747.02 483.50 748.51 486.67 749.00 490.01 C 749.45 494.82 746.84 499.15 746.89 503.91 C 744.70 503.31 746.53 498.56 746.79 496.72 C 749.77 491.54 745.58 486.18 744.92 480.87 Z" />
</g>
<g id="#6f5c62c8">
<path fill="#6f5c62" stroke="#6f5c62" stroke-width="0.09375" opacity="0.78" d=" M 816.26 482.76 C 816.78 486.51 817.10 490.30 817.22 494.11 C 816.98 494.41 816.49 495.00 816.25 495.30 C 816.16 491.11 816.16 486.93 816.26 482.76 Z" />
</g>
<g id="#e9b0b0fa">
<path fill="#e9b0b0" stroke="#e9b0b0" stroke-width="0.09375" opacity="0.98" d=" M 757.79 523.39 C 764.88 517.52 774.55 517.34 783.23 515.75 C 785.28 516.52 786.05 518.79 787.10 520.53 C 783.84 521.53 780.84 523.17 777.98 525.00 C 774.34 524.96 770.81 525.06 767.21 524.84 C 764.02 524.33 760.91 524.10 757.79 523.39 Z" />
</g>
<g id="#2b2a33d9">
<path fill="#2b2a33" stroke="#2b2a33" stroke-width="0.09375" opacity="0.85" d=" M 639.97 532.99 C 640.02 527.57 639.83 522.12 640.80 516.78 C 641.11 522.19 640.98 527.58 640.99 533.01 L 639.97 532.99 Z" />
</g>
<g id="#2d293dfa">
<path fill="#2d293d" stroke="#2d293d" stroke-width="0.09375" opacity="0.98" d=" M 744.65 520.76 C 745.01 519.42 745.30 518.08 745.69 516.76 C 745.79 518.57 745.98 522.19 746.07 524.00 L 746.18 524.97 C 746.55 529.61 747.62 534.17 748.30 538.78 C 749.27 543.13 747.74 545.48 743.77 545.88 C 737.93 545.83 731.86 546.64 726.22 544.82 C 724.54 544.23 722.83 543.78 721.12 543.38 C 717.20 542.46 713.44 540.87 709.95 538.92 C 707.36 532.38 713.23 529.11 717.96 526.94 C 719.87 526.15 722.53 526.03 722.06 523.29 C 729.54 522.11 737.05 520.94 744.65 520.76 Z" />
</g>
<g id="#342e40ee">
<path fill="#342e40" stroke="#342e40" stroke-width="0.09375" opacity="0.93" d=" M 787.10 520.53 C 790.89 519.89 794.86 520.31 798.39 521.90 C 793.36 526.78 785.77 527.30 779.12 527.96 C 778.75 526.96 778.37 525.97 777.98 525.00 C 780.84 523.17 783.84 521.53 787.10 520.53 Z" />
</g>
<g id="#0a090a43">
<path fill="#0a090a" stroke="#0a090a" stroke-width="0.09375" opacity="0.26" d=" M 815.01 525.59 C 816.19 524.24 817.50 523.02 818.80 521.78 C 818.79 523.66 818.76 527.41 818.75 529.29 C 818.14 529.17 816.92 528.92 816.31 528.80 C 815.90 527.70 815.47 526.63 815.01 525.59 Z" />
</g>
<g id="#b58b8dda">
<path fill="#b58b8d" stroke="#b58b8d" stroke-width="0.09375" opacity="0.85" d=" M 756.61 524.28 C 756.91 524.06 757.50 523.62 757.79 523.39 C 760.91 524.10 764.02 524.33 767.21 524.84 C 763.63 524.79 760.03 525.50 756.61 524.28 Z" />
</g>
<g id="#0c0c0f2a">
<path fill="#0c0c0f" stroke="#0c0c0f" stroke-width="0.09375" opacity="0.16" d=" M 746.07 524.00 C 749.41 524.03 752.65 524.14 756.03 524.31 C 752.72 524.72 749.49 525.08 746.18 524.97 L 746.07 524.00 Z" />
</g>
<g id="#504f60fc">
<path fill="#504f60" stroke="#504f60" stroke-width="0.09375" opacity="1.00" d=" M 756.03 524.31 L 756.61 524.28 C 760.03 525.50 763.63 524.79 767.21 524.84 C 770.81 525.06 774.34 524.96 777.98 525.00 C 778.37 525.97 778.75 526.96 779.12 527.96 C 774.06 529.12 769.13 530.99 765.03 534.22 C 766.89 537.75 771.40 538.30 774.90 539.35 C 775.69 542.81 771.27 543.54 769.66 545.91 C 762.86 545.74 755.96 546.73 749.24 545.45 C 749.01 543.78 748.54 540.45 748.30 538.78 C 747.62 534.17 746.55 529.61 746.18 524.97 C 749.49 525.08 752.72 524.72 756.03 524.31 Z" />
</g>
<g id="#302b3ef4">
<path fill="#302b3e" stroke="#302b3e" stroke-width="0.09375" opacity="0.96" d=" M 804.69 538.17 C 808.31 534.12 811.40 529.65 815.01 525.59 C 815.47 526.63 815.90 527.70 816.31 528.80 C 816.67 531.77 817.18 534.80 816.91 537.83 C 813.11 539.65 808.63 538.88 804.69 538.17 Z" />
</g>
<g id="#4e4d5efb">
<path fill="#4e4d5e" stroke="#4e4d5e" stroke-width="0.09375" opacity="1.00" d=" M 684.20 534.23 C 694.21 528.20 706.49 527.12 717.96 526.94 C 713.23 529.11 707.36 532.38 709.95 538.92 C 713.44 540.87 717.20 542.46 721.12 543.38 C 719.54 543.57 716.40 543.96 714.82 544.16 C 705.34 543.12 696.12 540.34 686.68 539.28 C 685.38 538.19 681.64 535.47 684.20 534.23 Z" />
</g>
<g id="#4e4d5ef9">
<path fill="#4e4d5e" stroke="#4e4d5e" stroke-width="0.09375" opacity="0.98" d=" M 816.31 528.80 C 816.92 528.92 818.14 529.17 818.75 529.29 C 823.23 530.90 828.67 531.15 831.83 535.18 C 831.44 537.13 830.14 538.58 828.29 539.26 C 821.85 540.18 815.43 541.37 809.22 543.30 C 806.54 543.37 803.99 542.97 801.58 542.12 C 802.63 540.81 803.63 539.47 804.69 538.17 C 808.63 538.88 813.11 539.65 816.91 537.83 C 817.18 534.80 816.67 531.77 816.31 528.80 Z" />
</g>
<g id="#353440c8">
<path fill="#353440" stroke="#353440" stroke-width="0.09375" opacity="0.78" d=" M 529.78 533.26 C 566.50 532.61 603.24 533.21 639.97 532.99 L 640.99 533.01 C 641.03 536.01 640.96 538.96 641.00 542.00 L 640.03 542.00 C 640.00 539.34 639.95 536.70 639.90 534.06 C 603.20 533.42 566.42 535.02 529.78 533.26 Z" />
</g>
<g id="#3f3e4cf9">
<path fill="#3f3e4c" stroke="#3f3e4c" stroke-width="0.09375" opacity="0.98" d=" M 686.68 539.28 C 696.12 540.34 705.34 543.12 714.82 544.16 C 718.57 544.83 722.37 545.05 726.22 544.82 C 731.86 546.64 737.93 545.83 743.77 545.88 C 745.59 545.88 747.44 545.84 749.24 545.45 C 755.96 546.73 762.86 545.74 769.66 545.91 C 770.88 547.78 771.89 550.13 774.31 550.66 C 783.29 554.35 792.79 549.29 799.86 543.90 C 802.91 543.79 806.24 544.46 809.22 543.30 C 815.43 541.37 821.85 540.18 828.29 539.26 C 826.72 540.76 825.11 542.28 823.03 543.06 C 805.56 552.34 785.88 556.96 766.23 558.29 C 759.40 558.04 752.58 557.78 745.77 558.24 C 725.18 556.09 703.45 552.18 686.68 539.28 Z" />
</g>
<g id="#312f3ecc">
<path fill="#312f3e" stroke="#312f3e" stroke-width="0.09375" opacity="0.80" d=" M 748.30 538.78 C 748.54 540.45 749.01 543.78 749.24 545.45 C 747.44 545.84 745.59 545.88 743.77 545.88 C 747.74 545.48 749.27 543.13 748.30 538.78 Z" />
</g>
<g id="#363541ae">
<path fill="#363541" stroke="#363541" stroke-width="0.09375" opacity="0.68" d=" M 640.03 542.00 L 641.00 542.00 C 640.50 577.40 642.00 612.92 640.25 648.25 C 639.64 612.84 640.16 577.41 640.03 542.00 Z" />
</g>
<g id="#3a3845cc">
<path fill="#3a3845" stroke="#3a3845" stroke-width="0.09375" opacity="0.80" d=" M 799.86 543.90 C 800.42 543.29 801.00 542.70 801.58 542.12 C 803.99 542.97 806.54 543.37 809.22 543.30 C 806.24 544.46 802.91 543.79 799.86 543.90 Z" />
</g>
<g id="#32313dc6">
<path fill="#32313d" stroke="#32313d" stroke-width="0.09375" opacity="0.78" d=" M 721.12 543.38 C 722.83 543.78 724.54 544.23 726.22 544.82 C 722.37 545.05 718.57 544.83 714.82 544.16 C 716.40 543.96 719.54 543.57 721.12 543.38 Z" />
</g>
<g id="#1d1d2378">
<path fill="#1d1d23" stroke="#1d1d23" stroke-width="0.09375" opacity="0.47" d=" M 745.77 558.24 C 752.58 557.78 759.40 558.04 766.23 558.29 C 759.44 559.25 752.52 559.36 745.77 558.24 Z" />
</g>
<g id="#1b1a2065">
<path fill="#1b1a20" stroke="#1b1a20" stroke-width="0.09375" opacity="0.40" d=" M 858.37 585.73 C 859.72 590.45 858.85 595.45 858.22 600.23 C 857.98 595.40 858.09 590.54 858.37 585.73 Z" />
</g>
<g id="#26242d8d">
<path fill="#26242d" stroke="#26242d" stroke-width="0.09375" opacity="0.55" d=" M 912.66 620.26 C 911.85 616.45 911.94 612.53 912.80 608.76 C 913.13 612.60 912.80 616.40 912.66 620.26 Z" />
</g>
<g id="#1f1d2574">
<path fill="#1f1d25" stroke="#1f1d25" stroke-width="0.09375" opacity="0.45" d=" M 913.27 624.77 C 914.42 631.83 913.87 639.00 913.89 646.13 C 911.96 639.37 913.40 631.80 913.27 624.77 Z" />
</g>
<g id="#3e3c55fc">
<path fill="#3e3c55" stroke="#3e3c55" stroke-width="0.09375" opacity="1.00" d=" M 883.23 648.09 C 886.70 645.22 891.20 648.59 894.97 649.04 C 901.93 652.37 907.38 658.48 915.25 659.92 C 915.99 663.63 916.12 667.35 916.29 671.15 C 916.01 671.66 915.45 672.68 915.17 673.18 C 910.02 673.36 904.72 672.13 899.73 673.69 C 896.96 674.41 894.03 674.83 891.27 675.37 C 888.34 675.24 885.51 674.80 882.73 675.67 C 881.23 675.89 879.74 676.09 878.27 676.33 C 873.73 676.12 869.25 676.11 864.76 676.22 C 861.46 675.41 858.52 673.57 855.25 672.77 C 850.47 671.62 845.59 671.96 840.76 672.25 C 838.15 671.82 835.69 671.55 833.22 670.85 C 830.23 669.14 826.79 668.13 824.29 665.70 C 823.73 664.50 822.17 662.83 824.23 662.24 C 830.28 661.35 836.83 662.95 842.68 660.64 C 848.61 658.49 852.01 652.66 857.04 649.13 C 863.29 652.11 869.33 656.86 876.71 655.84 C 879.18 653.52 880.94 650.58 883.23 648.09 Z" />
</g>
<g id="#0707070e">
<path fill="#070707" stroke="#070707" stroke-width="0.09375" opacity="0.05" d=" M 0.00 670.00 C 25.73 670.49 51.55 668.99 77.22 670.79 C 51.48 671.25 25.74 670.88 0.00 671.00 L 0.00 670.00 Z" />
</g>
<g id="#08080811">
<path fill="#080808" stroke="#080808" stroke-width="0.09375" opacity="0.07" d=" M 632.73 670.72 C 638.06 669.61 643.57 670.08 649.00 669.97 C 699.00 670.03 749.00 670.01 799.00 669.97 C 805.73 670.03 812.52 669.66 819.22 670.79 C 757.06 671.06 694.87 671.27 632.73 670.72 Z" />
</g>
<g id="#0606070d">
<path fill="#060607" stroke="#060607" stroke-width="0.09375" opacity="0.05" d=" M 920.73 670.69 C 947.74 669.08 974.92 670.45 1002.00 670.00 C 1017.06 670.37 1032.21 669.13 1047.22 670.75 C 1005.06 671.08 962.87 671.31 920.73 670.69 Z" />
</g>
<g id="#85848bff">
<path fill="#85848b" stroke="#85848b" stroke-width="0.09375" opacity="1.00" d=" M 0.00 671.00 C 25.74 670.88 51.48 671.25 77.22 670.79 C 80.21 670.96 83.20 670.79 86.20 670.87 C 91.23 672.77 96.65 673.12 101.99 673.02 C 270.33 672.98 438.67 672.98 607.01 673.02 C 612.33 673.14 617.76 672.73 622.81 670.91 C 626.13 670.97 629.38 670.83 632.73 670.72 C 694.87 671.27 757.06 671.06 819.22 670.79 C 823.87 671.07 828.52 670.83 833.22 670.85 C 835.69 671.55 838.15 671.82 840.76 672.25 C 845.51 673.15 850.42 673.07 855.25 672.77 C 858.52 673.57 861.46 675.41 864.76 676.22 C 869.12 677.05 873.90 677.71 878.27 676.33 C 879.74 676.09 881.23 675.89 882.73 675.67 C 885.51 675.65 888.49 676.14 891.27 675.37 C 894.03 674.83 896.96 674.41 899.73 673.69 C 904.56 673.06 910.86 675.53 915.17 673.18 C 915.45 672.68 916.01 671.66 916.29 671.15 C 917.76 670.99 919.24 670.86 920.73 670.69 C 962.87 671.31 1005.06 671.08 1047.22 670.75 C 1047.91 670.82 1049.30 670.97 1050.00 671.05 L 1050.00 679.00 L 0.00 679.00 L 0.00 671.00 Z" />
</g>
<g id="#4e4c59cc">
<path fill="#4e4c59" stroke="#4e4c59" stroke-width="0.09375" opacity="0.80" d=" M 840.76 672.25 C 845.59 671.96 850.47 671.62 855.25 672.77 C 850.42 673.07 845.51 673.15 840.76 672.25 Z" />
</g>
<g id="#4e4c58c5">
<path fill="#4e4c58" stroke="#4e4c58" stroke-width="0.09375" opacity="0.77" d=" M 899.73 673.69 C 904.72 672.13 910.02 673.36 915.17 673.18 C 910.86 675.53 904.56 673.06 899.73 673.69 Z" />
</g>
<g id="#52515ccb">
<path fill="#52515c" stroke="#52515c" stroke-width="0.09375" opacity="0.80" d=" M 882.73 675.67 C 885.51 674.80 888.34 675.24 891.27 675.37 C 888.49 676.14 885.51 675.65 882.73 675.67 Z" />
</g>
<g id="#606067cb">
<path fill="#606067" stroke="#606067" stroke-width="0.09375" opacity="0.80" d=" M 864.76 676.22 C 869.25 676.11 873.73 676.12 878.27 676.33 C 873.90 677.71 869.12 677.05 864.76 676.22 Z" />
</g>
</svg>
