<?xml version="1.0" encoding="UTF-8" ?>
<!DOCTYPE svg PUBLIC "-//W3C//DTD SVG 1.1//EN" "http://www.w3.org/Graphics/SVG/1.1/DTD/svg11.dtd">
<svg width="844pt" height="897pt" viewBox="0 0 844 897" version="1.1" xmlns="http://www.w3.org/2000/svg">
<g id="#fefefefe">
<path fill="#fefefe" stroke="#fefefe" stroke-width="0.09375" opacity="1.00" d=" M 401.43 75.47 C 414.05 74.95 427.16 74.46 439.30 78.63 C 452.94 82.80 465.55 89.68 477.44 97.45 C 496.68 107.09 515.09 118.25 533.46 129.42 C 549.81 137.72 565.37 147.45 580.97 157.03 C 601.16 167.05 619.41 180.45 639.57 190.52 C 649.44 195.36 657.97 202.49 667.89 207.23 C 686.91 217.87 706.26 228.15 723.66 241.38 C 733.09 248.69 738.54 259.40 744.43 269.47 C 753.41 286.90 750.61 307.12 751.95 325.99 C 751.82 405.94 752.48 485.90 751.61 565.84 C 749.17 588.39 755.16 612.45 745.77 633.90 C 743.91 639.77 739.99 644.61 736.59 649.62 C 731.86 655.41 727.57 662.05 720.83 665.73 C 703.99 675.91 687.15 686.11 670.40 696.43 C 650.96 706.16 633.20 718.83 613.96 728.91 C 605.99 733.08 598.32 737.79 590.84 742.78 C 574.30 753.14 556.32 761.08 540.32 772.31 C 527.33 779.74 514.11 786.78 501.10 794.19 C 484.15 805.74 465.69 815.02 446.69 822.74 C 438.43 826.89 429.09 828.18 419.97 828.81 C 406.48 829.53 392.36 828.95 379.88 823.29 C 365.53 817.04 351.21 810.50 338.12 801.86 C 324.40 792.66 310.15 784.27 295.68 776.32 C 280.29 766.05 264.23 756.82 247.99 747.97 C 239.97 743.82 233.04 737.88 224.92 733.93 C 213.01 726.83 200.31 721.06 188.88 713.17 C 179.70 706.98 169.38 702.82 159.93 697.10 C 147.02 690.20 134.97 681.84 122.13 674.84 C 109.49 667.72 98.93 657.29 90.08 645.93 C 82.01 632.72 75.60 617.94 74.60 602.33 C 72.52 565.26 72.81 528.11 73.18 490.99 C 75.36 445.70 72.68 400.31 74.79 355.01 C 75.60 331.45 73.73 307.71 77.33 284.31 C 81.88 263.07 97.97 246.24 115.69 234.70 C 123.54 229.92 130.96 224.47 138.95 219.92 C 148.19 214.37 158.08 209.98 167.16 204.13 C 181.28 194.54 196.72 187.11 211.36 178.39 C 230.81 165.00 252.84 155.88 272.09 142.19 C 286.40 134.34 300.58 126.20 314.25 117.26 C 325.24 110.05 337.29 104.64 348.04 97.05 C 363.67 85.64 381.99 77.20 401.43 75.47 M 374.53 122.48 C 361.68 131.19 347.52 137.80 334.95 146.94 C 318.52 157.36 300.82 165.67 284.83 176.76 C 280.30 179.98 274.69 181.58 270.77 185.65 L 271.40 185.03 C 260.15 190.59 249.12 196.64 238.77 203.77 C 227.07 210.56 214.96 216.62 203.59 223.99 C 194.56 228.54 186.51 234.77 177.55 239.46 C 168.29 244.35 159.10 249.43 150.51 255.44 C 140.29 262.17 129.17 267.73 120.32 276.33 C 114.42 283.60 110.82 292.78 110.31 302.15 C 109.53 318.89 110.39 335.67 109.49 352.42 C 108.01 397.26 110.15 442.16 108.16 486.99 C 107.81 515.33 108.00 543.67 108.04 572.01 C 108.64 586.28 108.17 601.09 113.35 614.66 C 120.47 630.08 133.97 641.57 148.80 649.28 C 159.86 654.95 170.11 662.01 181.01 667.96 C 193.37 675.34 206.55 681.33 218.40 689.57 C 229.41 696.38 241.07 702.06 252.18 708.72 C 260.76 712.83 267.96 719.20 276.48 723.42 C 297.24 734.28 316.40 747.85 337.00 759.01 C 356.29 770.20 373.89 785.55 396.10 790.69 C 410.05 794.90 425.56 793.84 438.82 787.79 C 450.96 781.89 463.33 776.28 474.42 768.49 C 488.01 761.09 501.51 753.54 514.98 745.93 C 533.63 733.11 554.52 723.96 573.25 711.28 C 586.73 702.96 601.19 696.35 614.32 687.44 C 629.76 677.66 646.43 669.98 661.41 659.47 C 672.07 653.53 682.40 647.03 692.95 640.89 C 697.78 637.92 702.99 635.05 706.08 630.07 C 710.30 624.11 716.13 617.98 715.01 610.04 C 715.24 589.72 714.92 569.40 714.92 549.09 C 715.59 518.03 716.52 486.97 715.91 455.89 C 715.96 455.55 716.05 454.87 716.10 454.53 C 715.89 408.01 716.00 361.50 716.08 314.99 C 716.12 304.63 715.59 294.01 711.88 284.23 C 707.83 274.62 699.77 267.33 690.99 262.06 C 682.40 257.06 674.62 250.74 665.58 246.52 C 644.70 236.19 625.72 222.60 605.03 211.95 C 593.56 205.56 582.48 198.52 571.20 191.82 C 563.30 187.35 555.12 183.36 547.41 178.55 C 532.45 168.44 516.12 160.62 500.65 151.37 C 482.55 139.31 462.47 130.63 444.18 118.89 C 422.92 106.22 394.17 107.09 374.53 122.48 Z" />
</g>
<g id="#5d3a0afe">
<path fill="#5d3a0a" stroke="#5d3a0a" stroke-width="0.09375" opacity="1.00" d=" M 374.53 122.48 C 394.17 107.09 422.92 106.22 444.18 118.89 C 462.47 130.63 482.55 139.31 500.65 151.37 C 516.12 160.62 532.45 168.44 547.41 178.55 C 555.12 183.36 563.30 187.35 571.20 191.82 C 582.48 198.52 593.56 205.56 605.03 211.95 C 625.72 222.60 644.70 236.19 665.58 246.52 C 674.62 250.74 682.40 257.06 690.99 262.06 C 699.77 267.33 707.83 274.62 711.88 284.23 C 715.59 294.01 716.12 304.63 716.08 314.99 C 716.00 361.50 715.89 408.01 716.10 454.53 C 715.22 453.80 714.25 453.24 713.19 452.86 C 696.94 444.49 681.82 434.09 665.89 425.14 C 566.28 365.73 466.61 306.43 367.03 246.98 C 339.08 230.60 311.59 213.43 283.23 197.74 C 280.72 196.27 278.22 194.79 275.74 193.29 C 273.15 191.66 270.58 190.00 267.99 188.39 C 268.91 187.47 269.83 186.55 270.77 185.65 C 274.69 181.58 280.30 179.98 284.83 176.76 C 300.82 165.67 318.52 157.36 334.95 146.94 C 347.52 137.80 361.68 131.19 374.53 122.48 M 385.99 159.98 C 369.09 169.52 352.79 180.08 336.22 190.15 C 424.59 243.09 513.33 295.40 601.80 348.18 C 628.61 363.72 654.89 380.20 681.89 395.42 C 682.06 377.61 682.03 359.80 682.06 342.00 C 681.84 330.63 682.58 318.75 677.98 308.05 C 673.67 297.28 663.38 291.00 654.20 284.82 C 584.12 244.75 514.74 203.44 444.53 163.57 C 434.88 158.79 425.04 153.36 414.00 153.07 C 404.22 152.62 394.35 154.86 385.99 159.98 Z" />
</g>
<g id="#160d013f">
<path fill="#160d01" stroke="#160d01" stroke-width="0.09375" opacity="0.25" d=" M 275.74 193.29 C 278.22 194.79 280.72 196.27 283.23 197.74 C 280.70 196.29 278.20 194.82 275.74 193.29 Z" />
</g>
<g id="#bd9323fe">
<path fill="#bd9323" stroke="#bd9323" stroke-width="0.09375" opacity="1.00" d=" M 177.55 239.46 C 186.51 234.77 194.56 228.54 203.59 223.99 C 235.98 244.65 268.30 265.43 300.89 285.79 C 301.03 287.17 301.79 287.99 303.17 288.24 C 306.25 289.65 309.31 291.10 312.41 292.50 C 311.95 293.84 312.44 294.76 313.86 295.27 C 315.73 296.26 317.61 297.22 319.50 298.16 C 320.00 299.51 320.97 300.08 322.40 299.87 C 439.06 373.69 555.40 448.03 671.92 522.08 C 686.27 531.04 701.28 539.01 714.92 549.09 C 714.92 569.40 715.24 589.72 715.01 610.04 C 716.13 617.98 710.30 624.11 706.08 630.07 C 702.99 635.05 697.78 637.92 692.95 640.89 C 682.40 647.03 672.07 653.53 661.41 659.47 C 646.43 669.98 629.76 677.66 614.32 687.44 C 601.19 696.35 586.73 702.96 573.25 711.28 C 554.52 723.96 533.63 733.11 514.98 745.93 C 501.51 753.54 488.01 761.09 474.42 768.49 C 463.33 776.28 450.96 781.89 438.82 787.79 C 425.56 793.84 410.05 794.90 396.10 790.69 C 373.89 785.55 356.29 770.20 337.00 759.01 C 316.40 747.85 297.24 734.28 276.48 723.42 C 267.96 719.20 260.76 712.83 252.18 708.72 C 241.07 702.06 229.41 696.38 218.40 689.57 C 206.55 681.33 193.37 675.34 181.01 667.96 C 170.11 662.01 159.86 654.95 148.80 649.28 C 133.97 641.57 120.47 630.08 113.35 614.66 C 108.17 601.09 108.64 586.28 108.04 572.01 C 108.00 543.67 107.81 515.33 108.16 486.99 C 110.15 442.16 108.01 397.26 109.49 352.42 C 110.39 335.67 109.53 318.89 110.31 302.15 C 110.82 292.78 114.42 283.60 120.32 276.33 C 129.17 267.73 140.29 262.17 150.51 255.44 C 159.10 249.43 168.29 244.35 177.55 239.46 M 194.77 266.79 C 182.72 274.85 169.89 281.70 158.08 290.13 C 150.74 296.96 143.93 305.99 144.43 316.56 C 143.11 362.03 142.75 407.51 143.00 453.00 C 141.57 485.65 142.04 518.33 141.97 551.00 C 142.22 564.89 142.16 579.01 145.45 592.60 C 147.62 600.66 153.12 607.24 158.80 613.14 C 169.62 622.87 182.90 629.14 195.19 636.71 C 212.38 646.09 229.10 656.30 246.24 665.74 C 272.15 680.37 297.22 696.40 323.21 710.88 C 340.78 721.96 358.58 732.66 376.23 743.62 C 388.16 749.90 401.15 756.09 415.02 755.00 C 434.63 754.37 450.22 741.15 467.22 733.11 C 481.74 724.61 496.11 715.83 510.91 707.80 C 525.47 699.09 539.98 690.28 554.87 682.15 C 560.43 681.08 564.94 677.50 569.09 673.86 C 583.41 665.12 597.93 656.72 612.49 648.37 C 631.48 636.26 651.53 625.83 670.10 613.05 C 674.31 608.54 677.91 603.23 680.50 597.63 C 681.72 587.22 680.92 576.64 680.92 566.18 C 520.72 466.09 360.60 365.82 200.48 265.60 C 198.55 264.41 196.48 265.90 194.77 266.79 Z" />
</g>
<g id="#382b0a4c">
<path fill="#382b0a" stroke="#382b0a" stroke-width="0.09375" opacity="0.30" d=" M 300.89 285.79 C 302.33 285.97 303.09 286.79 303.17 288.24 C 301.79 287.99 301.03 287.17 300.89 285.79 Z" />
</g>
<g id="#3a2d0a4f">
<path fill="#3a2d0a" stroke="#3a2d0a" stroke-width="0.09375" opacity="0.31" d=" M 312.41 292.50 C 313.63 292.98 314.12 293.90 313.86 295.27 C 312.44 294.76 311.95 293.84 312.41 292.50 Z" />
</g>
<g id="#886919b9">
<path fill="#886919" stroke="#886919" stroke-width="0.09375" opacity="0.73" d=" M 319.50 298.16 C 320.90 297.99 321.87 298.56 322.40 299.87 C 320.97 300.08 320.00 299.51 319.50 298.16 Z" />
</g>
<g id="#3e2605af">
<path fill="#3e2605" stroke="#3e2605" stroke-width="0.09375" opacity="0.69" d=" M 713.19 452.86 C 714.25 453.24 715.22 453.80 716.10 454.53 C 716.05 454.87 715.96 455.55 715.91 455.89 C 714.21 456.00 713.25 454.34 713.19 452.86 Z" />
</g>
<g id="#785311ff">
<path fill="#785311" stroke="#785311" stroke-width="0.09375" opacity="1.00" d=" M 554.87 682.15 C 559.53 679.25 564.18 676.33 569.09 673.86 C 564.94 677.50 560.43 681.08 554.87 682.15 Z" />
</g>
</svg>
