<?xml version="1.0" encoding="UTF-8" ?>
<!DOCTYPE svg PUBLIC "-//W3C//DTD SVG 1.1//EN" "http://www.w3.org/Graphics/SVG/1.1/DTD/svg11.dtd">
<svg width="1095pt" height="789pt" viewBox="0 0 1095 789" version="1.1" xmlns="http://www.w3.org/2000/svg">
<g id="#2f2e41ff">
<path fill="#2f2e41" stroke="#2f2e41" stroke-width="0.09375" opacity="1.00" d=" M 743.63 1.71 C 746.85 0.54 750.57 -0.64 753.87 0.97 C 758.72 3.27 761.26 8.40 765.66 11.29 C 768.57 13.31 772.09 14.98 773.63 18.39 C 775.15 21.60 776.54 24.90 777.46 28.34 C 777.98 30.66 778.47 33.65 776.29 35.31 C 772.47 39.26 766.64 36.76 761.88 37.83 C 757.69 39.10 754.17 41.83 750.67 44.33 C 750.57 44.40 750.37 44.54 750.28 44.61 C 746.52 47.23 742.46 49.65 737.87 50.42 C 733.75 51.27 729.59 49.99 725.74 48.60 C 722.30 47.30 718.70 45.88 714.94 46.29 C 712.75 46.54 710.95 47.93 708.99 48.80 C 707.56 48.85 706.86 49.58 706.89 51.02 C 704.62 53.17 702.16 55.28 699.10 56.18 C 694.43 57.16 688.71 58.83 684.68 55.34 C 680.21 50.78 677.38 44.94 674.02 39.58 C 685.27 39.48 694.45 32.26 703.32 26.25 C 716.21 17.25 728.85 7.45 743.63 1.71 Z" />
<path fill="#2f2e41" stroke="#2f2e41" stroke-width="0.09375" opacity="1.00" d=" M 104.55 145.71 C 107.17 144.44 110.15 144.71 112.98 144.64 C 273.65 144.63 434.32 144.63 594.99 144.64 C 643.45 144.77 691.92 144.30 740.37 144.97 C 740.40 250.98 740.40 357.00 740.39 463.01 C 740.28 476.74 740.63 490.47 740.25 504.20 C 634.16 504.48 528.06 504.22 421.97 504.31 C 316.93 504.32 211.89 504.33 106.85 504.29 C 106.50 504.11 105.80 503.75 105.44 503.57 C 104.35 502.25 104.75 500.50 104.66 498.95 C 104.72 417.30 104.68 335.64 104.67 253.99 C 104.60 217.90 104.85 181.80 104.55 145.71 Z" />
<path fill="#2f2e41" stroke="#2f2e41" stroke-width="0.09375" opacity="1.00" d=" M 912.18 415.06 C 914.72 414.44 917.24 413.11 919.93 413.57 C 923.85 414.25 927.07 416.77 930.68 418.29 C 933.49 419.63 936.76 420.50 938.81 423.02 C 938.93 426.49 936.92 429.85 934.09 431.77 C 931.54 433.05 928.87 434.05 926.40 435.46 C 925.00 437.15 924.52 439.46 922.95 441.01 C 920.79 441.13 919.51 439.08 917.96 437.96 C 917.37 436.52 916.69 436.47 915.92 437.79 C 915.08 439.39 914.39 441.07 913.79 442.77 C 913.63 443.37 913.31 444.56 913.15 445.16 C 912.14 447.43 910.78 449.56 908.76 451.06 L 907.89 451.15 C 905.56 450.94 903.06 450.48 901.34 448.79 C 897.55 445.19 894.53 440.32 894.67 434.93 C 894.77 429.43 896.45 423.95 899.19 419.21 C 902.90 416.35 907.84 416.36 912.18 415.06 Z" />
<path fill="#2f2e41" stroke="#2f2e41" stroke-width="0.09375" opacity="1.00" d=" M 845.89 671.76 C 846.89 668.93 848.60 666.44 850.67 664.28 C 855.58 667.53 860.30 671.15 865.96 673.05 C 866.93 674.38 868.63 674.41 870.06 673.81 C 870.55 673.91 871.53 674.11 872.03 674.21 C 873.50 675.29 875.37 675.38 877.08 674.75 L 878.66 675.55 C 873.60 685.27 869.66 695.58 863.91 704.94 C 861.24 708.88 861.65 714.07 863.73 718.17 C 867.34 724.14 873.93 727.04 880.01 729.82 C 881.76 730.25 882.49 732.27 881.71 733.84 C 880.35 737.25 876.18 738.11 872.91 737.71 C 860.68 736.56 848.60 733.51 837.41 728.45 C 836.45 727.97 835.45 727.78 834.42 727.89 C 831.05 725.44 828.44 722.10 827.85 717.88 C 833.33 715.30 836.20 709.39 837.76 703.83 C 839.47 696.92 840.07 689.80 841.29 682.81 C 842.31 678.92 844.27 675.41 845.89 671.76 Z" />
<path fill="#2f2e41" stroke="#2f2e41" stroke-width="0.09375" opacity="1.00" d=" M 917.00 667.80 C 918.58 667.34 920.15 666.88 921.76 666.48 C 924.77 668.18 924.57 671.97 924.77 674.96 C 925.03 685.65 924.60 696.61 927.89 706.94 C 928.50 709.04 929.51 711.29 931.63 712.27 C 938.75 715.73 946.88 715.14 954.56 715.59 C 958.06 715.81 960.11 720.53 957.38 723.04 C 952.59 724.82 947.82 726.71 943.40 729.28 C 936.45 733.67 927.90 733.29 920.15 735.14 C 915.72 735.64 909.90 737.50 906.63 733.40 C 904.48 729.30 905.88 724.50 905.97 720.12 C 905.96 717.75 905.78 715.38 905.18 713.10 C 901.86 700.67 895.82 688.93 894.28 676.07 C 893.69 673.71 895.66 672.04 896.95 670.38 C 899.61 670.90 902.38 671.15 905.02 670.34 C 906.45 671.75 908.66 671.45 910.05 670.11 L 910.86 669.94 C 912.18 670.43 913.24 670.11 914.03 668.96 L 914.94 669.04 C 915.45 668.73 916.49 668.11 917.00 667.80 Z" />
</g>
<g id="#fbbebeff">
<path fill="#fbbebe" stroke="#fbbebe" stroke-width="0.09375" opacity="1.00" d=" M 750.67 44.33 C 754.17 41.83 757.69 39.10 761.88 37.83 C 765.60 37.67 769.33 37.81 773.07 37.71 C 772.43 43.54 769.92 49.47 764.90 52.83 C 759.40 56.86 751.90 57.03 745.74 54.51 C 744.13 55.52 742.52 56.52 741.02 57.66 C 740.21 58.46 739.52 59.34 738.93 60.30 C 738.41 60.47 737.37 60.81 736.85 60.98 L 736.19 61.31 C 735.31 60.52 734.41 59.76 733.50 59.02 C 731.64 57.12 729.78 55.24 727.83 53.45 C 727.13 51.83 726.43 50.21 725.74 48.60 C 729.59 49.99 733.75 51.27 737.87 50.42 C 742.46 49.65 746.52 47.23 750.28 44.61 C 750.37 44.54 750.57 44.40 750.67 44.33 Z" />
<path fill="#fbbebe" stroke="#fbbebe" stroke-width="0.09375" opacity="1.00" d=" M 805.14 70.15 C 809.45 68.92 814.20 67.06 818.52 69.35 C 823.27 70.83 825.09 75.71 827.41 79.61 C 828.82 81.55 827.38 83.84 826.66 85.72 C 826.28 85.28 825.53 84.40 825.16 83.96 C 824.79 82.69 824.02 82.02 822.85 81.96 L 822.01 81.95 C 818.81 83.43 815.63 85.13 812.01 85.18 C 811.38 83.90 810.36 83.50 808.96 83.97 C 805.06 82.66 801.02 81.90 796.96 81.39 C 796.80 79.50 796.66 77.60 796.26 75.73 C 796.18 75.34 796.01 74.56 795.93 74.17 C 795.78 73.51 795.50 72.19 795.35 71.53 C 798.65 71.40 801.95 71.03 805.14 70.15 Z" />
<path fill="#fbbebe" stroke="#fbbebe" stroke-width="0.09375" opacity="1.00" d=" M 799.28 86.11 C 804.18 85.37 809.16 87.04 813.18 89.81 C 809.04 88.41 804.78 87.14 800.37 87.26 C 800.10 86.97 799.55 86.39 799.28 86.11 Z" />
<path fill="#fbbebe" stroke="#fbbebe" stroke-width="0.09375" opacity="1.00" d=" M 926.40 435.46 C 928.87 434.05 931.54 433.05 934.09 431.77 C 934.54 431.60 935.44 431.26 935.89 431.09 C 936.84 435.18 937.57 439.54 936.30 443.66 C 934.74 446.97 932.74 450.18 929.71 452.34 C 929.61 452.41 929.41 452.56 929.31 452.63 C 927.63 453.80 925.82 454.74 923.90 455.42 C 921.62 455.87 919.25 455.97 917.04 455.23 C 916.28 455.18 914.76 455.09 914.00 455.05 C 913.77 454.88 913.32 454.54 913.09 454.37 C 912.12 453.52 911.02 453.11 909.77 453.13 C 909.52 452.61 909.01 451.58 908.76 451.06 C 910.78 449.56 912.14 447.43 913.15 445.16 C 913.31 444.56 913.63 443.37 913.79 442.77 C 914.39 441.07 915.08 439.39 915.92 437.79 C 916.43 437.83 917.45 437.91 917.96 437.96 C 919.51 439.08 920.79 441.13 922.95 441.01 C 924.52 439.46 925.00 437.15 926.40 435.46 Z" />
<path fill="#fbbebe" stroke="#fbbebe" stroke-width="0.09375" opacity="1.00" d=" M 988.89 504.90 C 989.37 504.88 990.34 504.84 990.83 504.82 C 993.25 504.67 995.70 504.59 998.13 504.90 C 1003.94 506.09 1007.85 515.42 1001.99 518.90 C 996.95 519.45 991.79 520.07 986.76 519.18 C 984.82 518.29 982.85 517.49 980.88 516.75 C 980.63 515.83 980.38 514.92 980.13 514.03 C 979.82 513.51 979.21 512.46 978.90 511.94 L 979.01 510.90 C 978.73 510.43 978.17 509.48 977.89 509.01 C 978.37 508.18 979.06 507.55 979.96 507.14 L 980.84 506.90 C 981.41 506.71 982.57 506.35 983.14 506.16 C 983.62 506.12 984.57 506.04 985.05 505.99 C 986.33 506.32 988.47 506.63 988.89 504.90 Z" />
</g>
<g id="#a98184c6">
<path fill="#a98184" stroke="#a98184" stroke-width="0.09375" opacity="0.78" d=" M 750.28 44.61 C 750.37 44.54 750.57 44.40 750.67 44.33 C 750.57 44.40 750.37 44.54 750.28 44.61 Z" />
</g>
<g id="#f86d70ff">
<path fill="#f86d70" stroke="#f86d70" stroke-width="0.09375" opacity="1.00" d=" M 708.99 48.80 C 710.95 47.93 712.75 46.54 714.94 46.29 C 718.70 45.88 722.30 47.30 725.74 48.60 C 726.43 50.21 727.13 51.83 727.83 53.45 C 728.41 56.33 730.63 58.47 733.50 59.02 C 734.41 59.76 735.31 60.52 736.19 61.31 C 736.69 62.62 737.51 62.88 738.65 62.09 C 740.81 64.78 743.43 67.34 746.86 68.26 C 757.92 71.30 769.58 71.24 780.95 70.76 C 785.63 70.91 790.33 71.42 795.00 70.75 C 795.30 71.89 795.61 73.03 795.93 74.17 C 796.01 74.56 796.18 75.34 796.26 75.73 C 797.07 79.43 796.25 83.08 793.96 86.07 C 789.51 85.24 784.99 84.92 780.48 84.88 C 773.97 84.46 767.45 84.72 761.00 85.67 L 759.89 85.78 C 759.45 85.91 758.56 86.16 758.12 86.29 C 757.82 86.44 757.23 86.75 756.93 86.91 C 756.17 86.97 754.64 87.10 753.87 87.16 C 753.45 87.20 752.60 87.26 752.18 87.29 C 750.27 87.35 748.38 87.39 746.49 87.44 C 746.26 89.45 746.63 91.69 745.35 93.42 C 742.18 98.32 735.55 99.69 732.80 104.95 C 730.30 109.63 728.35 114.57 726.05 119.35 C 712.43 119.29 698.80 119.44 685.18 119.25 C 686.93 114.49 691.25 110.42 690.53 104.99 C 690.25 101.62 691.27 98.32 691.03 94.96 C 690.74 89.96 690.82 84.92 691.87 80.01 C 693.60 71.89 695.15 63.57 699.10 56.18 C 702.16 55.28 704.62 53.17 706.89 51.02 C 708.31 50.87 709.01 50.13 708.99 48.80 Z" />
<path fill="#f86d70" stroke="#f86d70" stroke-width="0.09375" opacity="1.00" d=" M 787.71 95.99 C 790.56 91.81 793.97 87.07 799.28 86.11 C 799.55 86.39 800.10 86.97 800.37 87.26 C 795.89 89.79 791.70 92.77 787.71 95.99 Z" />
<path fill="#f86d70" stroke="#f86d70" stroke-width="0.09375" opacity="1.00" d=" M 895.67 460.64 C 897.50 459.65 899.70 459.73 901.74 459.61 C 902.28 459.72 903.35 459.95 903.89 460.06 C 904.90 461.43 906.69 461.45 908.17 460.85 C 908.60 460.89 909.45 460.96 909.88 461.00 C 910.68 462.12 911.75 462.46 913.09 462.01 L 913.94 461.92 C 914.52 462.17 915.69 462.68 916.27 462.93 L 917.18 463.31 C 917.34 463.39 917.68 463.57 917.85 463.65 C 918.41 464.04 919.53 464.81 920.08 465.20 C 920.90 466.23 921.57 467.26 922.39 468.35 C 922.44 468.43 922.54 468.58 922.59 468.66 C 923.81 470.67 924.93 472.75 925.99 474.86 C 926.25 475.41 926.77 476.51 927.03 477.05 C 927.66 479.00 928.32 480.94 928.98 482.89 C 929.22 483.45 929.69 484.57 929.92 485.13 C 929.93 485.57 929.93 486.46 929.94 486.90 C 930.20 487.45 930.73 488.53 930.99 489.08 C 930.97 489.55 930.92 490.49 930.90 490.95 C 931.20 491.47 931.79 492.51 932.09 493.03 C 932.07 493.50 932.03 494.43 932.01 494.89 C 932.24 495.45 932.70 496.57 932.94 497.13 C 933.21 498.40 933.53 499.68 933.84 500.97 C 934.13 501.49 934.73 502.54 935.03 503.06 C 936.59 506.87 938.83 510.39 939.98 514.37 C 940.23 517.04 943.38 516.66 944.87 515.25 C 945.40 515.16 946.47 514.98 947.00 514.89 C 948.31 515.30 950.43 515.60 950.98 513.89 L 951.97 514.07 C 953.29 514.52 954.32 514.16 955.06 512.99 C 955.53 513.01 956.47 513.04 956.95 513.05 C 957.49 512.78 958.56 512.22 959.10 511.95 L 959.98 512.03 C 960.56 511.85 961.73 511.49 962.31 511.31 C 964.38 510.65 966.21 509.47 967.93 508.15 C 969.35 508.19 970.11 507.49 970.20 506.05 C 970.64 505.71 971.53 505.04 971.97 504.71 C 972.78 504.68 974.40 504.61 975.21 504.58 C 976.06 505.62 976.93 506.65 977.85 507.66 C 978.38 507.53 979.43 507.27 979.96 507.14 C 979.06 507.55 978.37 508.18 977.89 509.01 L 977.62 509.80 C 977.97 510.07 978.66 510.62 979.01 510.90 L 978.90 511.94 C 979.21 512.46 979.82 513.51 980.13 514.03 C 980.38 514.92 980.63 515.83 980.88 516.75 C 981.09 518.22 981.29 519.70 981.48 521.19 C 967.76 525.89 954.08 530.72 940.27 535.13 C 938.02 535.34 935.77 535.47 933.53 535.60 C 933.75 550.13 936.10 564.56 936.10 579.09 C 936.31 585.47 928.34 586.81 923.82 584.28 C 920.25 582.43 916.67 580.63 913.04 578.94 C 908.59 577.21 903.67 576.53 899.04 577.92 C 897.79 577.57 896.73 577.86 895.86 578.79 C 888.87 580.66 882.56 584.31 875.93 587.11 C 872.93 588.37 869.71 588.91 866.55 589.56 C 868.95 582.88 870.44 575.90 871.05 568.83 C 871.94 563.23 871.93 557.53 872.98 551.96 L 871.46 552.51 C 871.76 552.22 872.36 551.63 872.66 551.34 C 872.67 550.85 872.69 549.88 872.69 549.39 C 872.56 549.15 872.29 548.66 872.16 548.42 C 872.83 547.34 873.50 546.26 874.17 545.18 C 874.42 544.65 874.91 543.58 875.16 543.04 C 875.18 542.88 875.24 542.55 875.26 542.39 C 876.95 539.64 878.36 536.70 879.06 533.53 L 879.19 533.16 C 880.19 532.32 880.51 531.26 880.16 529.97 C 881.09 528.02 880.83 525.97 880.00 524.05 C 879.94 523.28 879.81 521.74 879.75 520.97 C 879.55 520.51 879.15 519.58 878.96 519.11 C 878.90 518.34 878.80 516.80 878.75 516.03 C 878.54 515.53 878.11 514.55 877.90 514.06 C 878.35 512.68 878.32 511.32 877.83 510.00 C 880.17 507.45 879.06 503.90 878.79 500.85 C 881.32 496.41 882.71 491.46 884.11 486.58 C 884.43 485.42 884.74 484.26 885.06 483.10 C 885.29 482.54 885.73 481.41 885.96 480.85 C 886.88 478.22 887.91 475.64 888.94 473.05 C 889.22 472.51 889.77 471.43 890.05 470.89 C 891.84 467.44 893.20 463.68 895.67 460.64 Z" />
</g>
<g id="#6c3b46d6">
<path fill="#6c3b46" stroke="#6c3b46" stroke-width="0.09375" opacity="0.84" d=" M 706.89 51.02 C 706.86 49.58 707.56 48.85 708.99 48.80 C 709.01 50.13 708.31 50.87 706.89 51.02 Z" />
</g>
<g id="#d76a6ddd">
<path fill="#d76a6d" stroke="#d76a6d" stroke-width="0.09375" opacity="0.87" d=" M 727.83 53.45 C 729.78 55.24 731.64 57.12 733.50 59.02 C 730.63 58.47 728.41 56.33 727.83 53.45 Z" />
</g>
<g id="#df6265ff">
<path fill="#df6265" stroke="#df6265" stroke-width="0.09375" opacity="1.00" d=" M 738.93 60.30 C 739.52 59.34 740.21 58.46 741.02 57.66 C 741.44 57.54 742.30 57.31 742.73 57.19 C 745.61 60.63 747.90 64.50 750.06 68.42 C 749.26 68.38 747.66 68.30 746.86 68.26 C 743.43 67.34 740.81 64.78 738.65 62.09 C 738.72 61.64 738.86 60.75 738.93 60.30 Z" />
<path fill="#df6265" stroke="#df6265" stroke-width="0.09375" opacity="1.00" d=" M 756.93 86.91 C 757.23 86.75 757.82 86.44 758.12 86.29 C 758.89 87.58 759.48 87.41 759.89 85.78 L 761.00 85.67 C 764.16 85.86 766.89 87.85 770.07 87.90 C 773.04 88.00 775.97 87.41 778.91 87.04 C 777.85 88.48 776.74 89.90 775.66 91.31 C 775.59 91.41 775.44 91.61 775.36 91.71 C 774.44 92.92 773.52 94.13 772.62 95.34 C 772.56 95.42 772.44 95.58 772.38 95.66 C 771.45 96.87 770.56 98.09 769.65 99.29 C 769.58 99.39 769.43 99.59 769.36 99.69 C 768.44 100.88 767.53 102.08 766.64 103.29 C 766.57 103.38 766.43 103.58 766.36 103.67 C 765.55 104.74 764.75 105.82 763.98 106.90 C 758.69 100.99 751.36 97.37 746.52 91.05 C 746.58 90.22 746.69 88.56 746.75 87.72 C 748.55 87.60 750.37 87.46 752.18 87.29 C 752.60 87.26 753.45 87.20 753.87 87.16 C 754.52 88.59 756.58 88.53 756.93 86.91 Z" />
<path fill="#df6265" stroke="#df6265" stroke-width="0.09375" opacity="1.00" d=" M 873.05 514.99 C 873.63 509.84 876.08 505.18 878.79 500.85 C 879.06 503.90 880.17 507.45 877.83 510.00 C 876.38 511.04 876.37 513.07 877.90 514.06 C 878.11 514.55 878.54 515.53 878.75 516.03 C 877.26 516.50 877.60 518.67 878.96 519.11 C 879.15 519.58 879.55 520.51 879.75 520.97 C 878.08 521.34 878.77 523.55 880.00 524.05 C 880.83 525.97 881.09 528.02 880.16 529.97 C 878.82 530.68 878.50 531.74 879.19 533.16 L 879.06 533.53 C 876.95 536.00 874.82 538.95 875.26 542.39 C 875.24 542.55 875.18 542.88 875.16 543.04 L 874.31 543.29 C 874.28 543.76 874.21 544.71 874.17 545.18 C 873.50 546.26 872.83 547.34 872.16 548.42 C 868.65 543.43 867.60 536.89 869.61 531.10 C 871.38 525.88 872.41 520.46 873.05 514.99 Z" />
</g>
<g id="#0f0f1580">
<path fill="#0f0f15" stroke="#0f0f15" stroke-width="0.09375" opacity="0.50" d=" M 736.85 60.98 C 737.37 60.81 738.41 60.47 738.93 60.30 C 738.86 60.75 738.72 61.64 738.65 62.09 C 737.51 62.88 736.69 62.62 736.19 61.31 L 736.85 60.98 Z" />
<path fill="#0f0f15" stroke="#0f0f15" stroke-width="0.09375" opacity="0.50" d=" M 740.37 144.97 C 740.88 148.32 740.60 151.71 740.64 155.08 C 740.65 271.60 740.56 388.12 740.67 504.63 C 630.12 504.81 519.57 504.62 409.02 504.72 C 307.79 504.60 206.56 504.84 105.34 504.61 C 104.24 503.32 104.38 501.56 104.33 500.00 C 104.36 404.66 104.36 309.32 104.33 213.99 C 104.53 191.23 104.06 168.46 104.55 145.71 C 104.85 181.80 104.60 217.90 104.67 253.99 C 104.68 335.64 104.72 417.30 104.66 498.95 C 104.75 500.50 104.35 502.25 105.44 503.57 C 105.80 503.75 106.50 504.11 106.85 504.29 C 211.89 504.33 316.93 504.32 421.97 504.31 C 528.06 504.22 634.16 504.48 740.25 504.20 C 740.63 490.47 740.28 476.74 740.39 463.01 C 740.40 357.00 740.40 250.98 740.37 144.97 Z" />
<path fill="#0f0f15" stroke="#0f0f15" stroke-width="0.09375" opacity="0.50" d=" M 1037.95 420.13 C 1039.55 420.14 1041.16 420.17 1042.79 420.20 C 1042.96 426.11 1042.86 432.03 1042.85 437.94 C 1041.17 438.10 1039.50 438.15 1037.84 438.09 C 1037.54 432.11 1037.33 426.09 1037.95 420.13 Z" />
<path fill="#0f0f15" stroke="#0f0f15" stroke-width="0.09375" opacity="0.50" d=" M 1012.91 422.05 C 1014.53 422.09 1016.16 422.15 1017.80 422.21 C 1017.92 427.14 1017.82 432.06 1017.82 436.99 C 1016.17 437.12 1014.51 437.17 1012.88 437.12 C 1012.44 432.11 1012.52 427.06 1012.91 422.05 Z" />
<path fill="#0f0f15" stroke="#0f0f15" stroke-width="0.09375" opacity="0.50" d=" M 1023.58 447.69 C 1026.17 445.02 1031.12 445.77 1032.99 448.93 C 1034.27 451.39 1033.80 454.28 1033.85 456.96 C 1029.90 457.44 1025.90 457.47 1021.95 457.07 C 1021.00 453.96 1021.02 450.05 1023.58 447.69 Z" />
</g>
<g id="#3f3d56ff">
<path fill="#3f3d56" stroke="#3f3d56" stroke-width="0.09375" opacity="1.00" d=" M 796.26 75.73 C 796.66 77.60 796.80 79.50 796.96 81.39 C 801.02 81.90 805.06 82.66 808.96 83.97 C 809.64 85.16 810.66 85.56 812.01 85.18 C 815.63 85.13 818.81 83.43 822.01 81.95 L 822.85 81.96 C 822.77 83.48 823.54 84.15 825.16 83.96 C 825.53 84.40 826.28 85.28 826.66 85.72 C 834.71 95.77 838.09 108.48 840.50 120.89 C 843.54 135.75 845.54 150.82 846.43 165.96 C 847.46 186.29 847.74 206.95 843.14 226.91 C 838.93 244.59 828.86 260.01 819.28 275.18 C 810.95 288.09 803.57 301.88 799.97 316.91 C 795.83 333.21 795.61 351.33 803.47 366.59 C 810.25 379.90 824.02 387.67 831.57 400.43 C 837.77 410.61 840.42 422.40 842.92 433.92 C 847.25 454.36 851.65 475.02 851.37 496.02 C 850.94 531.01 838.50 565.48 817.55 593.39 C 800.24 616.67 776.52 635.07 749.75 646.22 C 732.71 653.43 715.03 658.98 697.85 665.81 C 682.95 671.86 668.06 678.84 656.00 689.69 C 653.00 686.76 649.70 684.16 646.62 681.31 C 654.82 675.10 663.08 668.90 672.32 664.29 C 686.73 656.70 702.14 651.33 717.38 645.71 C 735.94 639.09 754.72 632.29 771.15 621.19 C 811.67 594.06 837.91 546.78 839.34 498.02 C 839.89 478.03 835.80 458.33 831.69 438.88 C 829.39 428.34 827.38 417.49 822.06 407.96 C 817.10 399.21 809.01 392.96 802.33 385.61 C 792.75 375.41 787.18 361.88 785.66 348.05 C 783.62 329.13 788.01 309.97 795.76 292.74 C 804.37 273.44 818.36 257.11 826.84 237.73 C 832.52 224.96 834.34 210.87 834.85 197.01 C 835.78 169.49 833.28 141.82 826.90 115.02 C 824.61 105.72 821.31 95.63 813.18 89.81 C 809.16 87.04 804.18 85.37 799.28 86.11 C 793.97 87.07 790.56 91.81 787.71 95.99 C 779.54 105.85 771.97 116.22 764.42 126.55 C 764.66 129.70 766.16 132.72 765.96 135.96 C 765.96 267.50 765.91 399.05 765.99 530.59 C 758.98 530.77 751.98 530.63 744.97 530.68 C 521.98 530.64 298.99 530.76 76.00 530.62 C 76.06 400.43 76.00 270.25 76.03 140.06 C 76.12 136.73 75.68 133.27 76.72 130.04 C 78.67 124.03 84.66 119.52 91.03 119.59 C 302.01 119.60 513.00 119.59 723.98 119.59 C 734.02 119.74 744.07 119.24 754.10 119.90 C 757.52 115.67 760.75 111.28 763.98 106.90 C 764.75 105.82 765.55 104.74 766.36 103.67 C 766.43 103.58 766.57 103.38 766.64 103.29 C 767.53 102.08 768.44 100.88 769.36 99.69 C 769.43 99.59 769.58 99.39 769.65 99.29 C 770.56 98.09 771.45 96.87 772.38 95.66 C 772.44 95.58 772.56 95.42 772.62 95.34 C 773.52 94.13 774.44 92.92 775.36 91.71 C 775.44 91.61 775.59 91.41 775.66 91.31 C 776.74 89.90 777.85 88.48 778.91 87.04 C 779.30 86.50 780.09 85.42 780.48 84.88 C 784.99 84.92 789.51 85.24 793.96 86.07 C 796.25 83.08 797.07 79.43 796.26 75.73 M 104.55 145.71 C 104.06 168.46 104.53 191.23 104.33 213.99 C 104.36 309.32 104.36 404.66 104.33 500.00 C 104.38 501.56 104.24 503.32 105.34 504.61 C 206.56 504.84 307.79 504.60 409.02 504.72 C 519.57 504.62 630.12 504.81 740.67 504.63 C 740.56 388.12 740.65 271.60 740.64 155.08 C 740.60 151.71 740.88 148.32 740.37 144.97 C 691.92 144.30 643.45 144.77 594.99 144.64 C 434.32 144.63 273.65 144.63 112.98 144.64 C 110.15 144.71 107.17 144.44 104.55 145.71 Z" />
<path fill="#3f3d56" stroke="#3f3d56" stroke-width="0.09375" opacity="1.00" d=" M 936.30 443.66 C 944.84 444.43 953.39 446.77 960.73 451.31 C 962.97 452.83 965.28 454.26 967.59 455.71 L 968.23 456.18 C 968.36 456.27 968.60 456.46 968.73 456.55 C 971.94 459.12 974.95 462.01 977.29 465.43 C 981.81 471.77 985.18 478.80 987.91 486.08 C 989.00 489.00 990.07 491.93 991.07 494.90 C 991.80 497.98 992.50 501.08 993.56 504.07 C 992.64 504.33 991.73 504.57 990.83 504.82 C 990.34 504.84 989.37 504.88 988.89 504.90 C 987.47 504.52 985.88 504.67 985.05 505.99 C 984.57 506.04 983.62 506.12 983.14 506.16 C 982.57 506.35 981.41 506.71 980.84 506.90 L 979.96 507.14 C 979.43 507.27 978.38 507.53 977.85 507.66 C 976.93 506.65 976.06 505.62 975.21 504.58 C 974.51 503.19 972.72 503.70 971.97 504.71 C 971.53 505.04 970.64 505.71 970.20 506.05 C 968.82 506.09 968.06 506.79 967.93 508.15 C 966.21 509.47 964.38 510.65 962.31 511.31 C 961.84 511.31 960.89 511.32 960.42 511.32 L 959.98 512.03 L 959.10 511.95 C 958.56 512.22 957.49 512.78 956.95 513.05 C 956.47 513.04 955.53 513.01 955.06 512.99 C 953.66 512.46 952.63 512.82 951.97 514.07 L 950.98 513.89 C 949.55 513.41 947.98 513.77 947.00 514.89 C 946.47 514.98 945.40 515.16 944.87 515.25 C 943.25 514.82 941.64 514.41 939.98 514.37 C 938.83 510.39 936.59 506.87 935.03 503.06 C 934.73 502.54 934.13 501.49 933.84 500.97 C 933.53 499.68 933.21 498.40 932.94 497.13 C 932.70 496.57 932.24 495.45 932.01 494.89 C 932.03 494.43 932.07 493.50 932.09 493.03 C 931.79 492.51 931.20 491.47 930.90 490.95 C 930.92 490.49 930.97 489.55 930.99 489.08 C 930.73 488.53 930.20 487.45 929.94 486.90 C 929.93 486.46 929.93 485.57 929.92 485.13 C 929.69 484.57 929.22 483.45 928.98 482.89 C 928.32 480.94 927.66 479.00 927.03 477.05 C 926.77 476.51 926.25 475.41 925.99 474.86 C 924.93 472.75 923.81 470.67 922.59 468.66 C 922.54 468.58 922.44 468.43 922.39 468.35 C 921.57 467.26 920.90 466.23 920.08 465.20 C 920.98 461.81 922.23 458.51 923.90 455.42 C 925.82 454.74 927.63 453.80 929.31 452.63 C 929.41 452.56 929.61 452.41 929.71 452.34 C 932.74 450.18 934.74 446.97 936.30 443.66 Z" />
<path fill="#3f3d56" stroke="#3f3d56" stroke-width="0.09375" opacity="1.00" d=" M 891.62 454.76 C 895.14 452.61 899.14 451.50 903.02 450.19 C 903.77 450.45 905.28 450.97 906.04 451.23 C 906.07 451.68 906.12 452.57 906.15 453.02 C 906.02 453.55 905.76 454.60 905.63 455.13 C 905.54 455.29 905.37 455.61 905.28 455.77 C 904.17 457.12 902.97 458.38 901.74 459.61 C 899.70 459.73 897.50 459.65 895.67 460.64 C 893.20 463.68 891.84 467.44 890.05 470.89 C 889.77 471.43 889.22 472.51 888.94 473.05 C 887.91 475.64 886.88 478.22 885.96 480.85 C 885.73 481.41 885.29 482.54 885.06 483.10 C 884.74 484.26 884.43 485.42 884.11 486.58 C 882.56 482.53 880.95 478.35 880.98 473.95 C 880.92 466.30 885.07 458.74 891.62 454.76 Z" />
<path fill="#3f3d56" stroke="#3f3d56" stroke-width="0.09375" opacity="1.00" d=" M 980.88 516.75 C 982.85 517.49 984.82 518.29 986.76 519.18 C 987.25 519.44 988.23 519.96 988.72 520.23 C 984.91 524.31 980.00 527.16 974.65 528.68 C 961.11 533.48 947.55 538.25 934.04 543.12 C 933.82 540.69 933.69 538.25 933.69 535.82 C 935.88 535.68 938.11 535.63 940.27 535.13 C 954.08 530.72 967.76 525.89 981.48 521.19 C 981.29 519.70 981.09 518.22 980.88 516.75 Z" />
<path fill="#3f3d56" stroke="#3f3d56" stroke-width="0.09375" opacity="1.00" d=" M 845.33 592.34 C 852.70 578.26 861.03 564.55 871.46 552.51 L 872.98 551.96 C 871.93 557.53 871.94 563.23 871.05 568.83 C 870.58 571.25 870.57 573.91 868.99 575.94 C 861.37 586.48 855.88 598.32 849.85 609.80 C 843.12 623.46 835.51 638.35 838.20 654.06 C 839.57 659.73 843.09 664.55 846.57 669.12 C 846.40 669.78 846.06 671.10 845.89 671.76 C 844.27 675.41 842.31 678.92 841.29 682.81 C 839.80 680.92 838.45 678.94 837.15 676.93 C 832.89 670.74 828.28 664.49 826.56 657.03 C 824.41 647.06 826.02 636.69 829.23 627.13 C 833.29 614.97 839.54 603.72 845.33 592.34 Z" />
<path fill="#3f3d56" stroke="#3f3d56" stroke-width="0.09375" opacity="1.00" d=" M 899.04 577.92 C 903.67 576.53 908.59 577.21 913.04 578.94 L 912.71 579.89 C 911.19 581.34 911.34 583.55 912.70 585.06 L 913.14 585.93 C 912.48 587.61 912.59 589.43 913.42 591.04 C 914.09 595.36 914.00 599.75 913.41 604.07 C 912.59 605.94 912.29 608.09 913.25 609.99 L 912.64 610.91 C 911.58 612.02 911.33 613.78 912.25 615.08 L 911.66 616.05 C 910.21 617.70 910.41 620.02 911.23 621.93 C 910.98 622.44 910.47 623.46 910.21 623.97 C 909.60 625.24 909.55 626.57 910.05 627.97 C 907.61 633.56 904.79 638.97 902.55 644.65 C 901.29 647.99 898.75 650.55 896.57 653.29 C 894.43 656.34 893.08 659.87 890.91 662.90 C 888.87 665.13 885.52 665.37 883.23 667.25 C 881.53 669.91 880.31 672.85 878.66 675.55 L 877.08 674.75 C 875.73 673.27 873.67 673.42 872.03 674.21 C 871.53 674.11 870.55 673.91 870.06 673.81 C 869.03 672.55 867.34 672.42 865.96 673.05 C 860.30 671.15 855.58 667.53 850.67 664.28 C 854.47 659.56 859.97 656.44 863.16 651.21 C 864.73 648.52 867.53 646.98 869.51 644.66 C 870.92 640.89 869.12 636.53 870.93 632.87 C 872.83 630.84 876.15 630.96 878.00 628.87 C 879.91 625.96 878.71 622.34 878.48 619.14 C 877.27 611.96 881.81 605.29 880.76 598.13 C 879.91 594.17 877.68 590.70 875.93 587.11 C 882.56 584.31 888.87 580.66 895.86 578.79 C 897.26 579.57 898.32 579.28 899.04 577.92 Z" />
<path fill="#3f3d56" stroke="#3f3d56" stroke-width="0.09375" opacity="1.00" d=" M 633.42 592.68 C 637.42 592.51 641.43 592.50 645.44 592.68 C 643.70 610.66 635.55 629.94 618.60 638.38 C 605.91 644.33 591.52 643.34 577.90 642.82 C 566.17 642.51 554.43 640.44 543.56 635.93 C 531.69 630.95 518.55 632.37 506.02 632.43 C 505.41 629.69 504.93 626.93 504.67 624.14 C 504.63 623.24 504.57 621.43 504.53 620.52 C 515.32 620.38 526.24 619.48 536.92 621.49 C 545.18 623.04 552.66 627.19 560.89 628.85 C 569.46 630.70 578.26 630.89 587.00 631.14 C 597.24 631.39 608.48 631.46 617.20 625.26 C 627.48 617.73 631.72 604.81 633.42 592.68 Z" />
<path fill="#3f3d56" stroke="#3f3d56" stroke-width="0.09375" opacity="1.00" d=" M 826.86 718.30 C 827.10 718.19 827.60 717.99 827.85 717.88 C 828.44 722.10 831.05 725.44 834.42 727.89 C 818.21 735.66 800.38 738.98 782.87 742.39 C 750.93 748.71 718.54 752.80 686.01 754.23 C 678.85 754.50 671.67 754.16 664.59 753.10 C 666.97 749.54 668.83 745.68 670.53 741.77 C 675.00 742.21 679.50 742.47 683.99 742.31 C 715.15 741.09 746.17 737.23 776.79 731.38 C 793.72 728.12 810.89 725.07 826.86 718.30 Z" />
</g>
<g id="#705c6ada">
<path fill="#705c6a" stroke="#705c6a" stroke-width="0.09375" opacity="0.85" d=" M 822.85 81.96 C 824.02 82.02 824.79 82.69 825.16 83.96 C 823.54 84.15 822.77 83.48 822.85 81.96 Z" />
</g>
<g id="#715b66cb">
<path fill="#715b66" stroke="#715b66" stroke-width="0.09375" opacity="0.80" d=" M 808.96 83.97 C 810.36 83.50 811.38 83.90 812.01 85.18 C 810.66 85.56 809.64 85.16 808.96 83.97 Z" />
</g>
<g id="#b34e51c6">
<path fill="#b34e51" stroke="#b34e51" stroke-width="0.09375" opacity="0.78" d=" M 758.12 86.29 C 758.56 86.16 759.45 85.91 759.89 85.78 C 759.48 87.41 758.89 87.58 758.12 86.29 Z" />
</g>
<g id="#b75052ca">
<path fill="#b75052" stroke="#b75052" stroke-width="0.09375" opacity="0.79" d=" M 753.87 87.16 C 754.64 87.10 756.17 86.97 756.93 86.91 C 756.58 88.53 754.52 88.59 753.87 87.16 Z" />
</g>
<g id="#98474cc6">
<path fill="#98474c" stroke="#98474c" stroke-width="0.09375" opacity="0.78" d=" M 775.36 91.71 C 775.44 91.61 775.59 91.41 775.66 91.31 C 775.59 91.41 775.44 91.61 775.36 91.71 Z" />
</g>
<g id="#99474bc6">
<path fill="#99474b" stroke="#99474b" stroke-width="0.09375" opacity="0.78" d=" M 772.38 95.66 C 772.44 95.58 772.56 95.42 772.62 95.34 C 772.56 95.42 772.44 95.58 772.38 95.66 Z" />
</g>
<g id="#94454ac4">
<path fill="#94454a" stroke="#94454a" stroke-width="0.09375" opacity="0.77" d=" M 769.36 99.69 C 769.43 99.59 769.58 99.39 769.65 99.29 C 769.58 99.39 769.43 99.59 769.36 99.69 Z" />
</g>
<g id="#8e434ac2">
<path fill="#8e434a" stroke="#8e434a" stroke-width="0.09375" opacity="0.76" d=" M 766.36 103.67 C 766.43 103.58 766.57 103.38 766.64 103.29 C 766.57 103.38 766.43 103.58 766.36 103.67 Z" />
</g>
<g id="#33333480">
<path fill="#333334" stroke="#333334" stroke-width="0.09375" opacity="0.50" d=" M 960.73 382.01 C 960.41 374.33 967.38 367.39 975.04 367.70 C 1007.71 367.57 1040.38 367.71 1073.05 367.62 C 1077.03 367.64 1081.09 367.38 1085.00 368.41 C 1090.11 369.95 1093.95 374.79 1094.52 380.08 C 1094.87 383.38 1094.66 386.71 1094.70 390.03 C 1094.69 422.36 1094.72 454.69 1094.68 487.02 C 1094.80 492.12 1092.12 497.20 1087.67 499.75 C 1084.46 501.69 1080.59 501.69 1076.98 501.70 C 1059.32 501.60 1041.67 501.68 1024.02 501.67 C 1014.18 501.85 1004.31 501.26 994.49 501.90 C 993.02 503.93 996.91 504.15 998.13 504.90 C 995.70 504.59 993.25 504.67 990.83 504.82 C 991.73 504.57 992.64 504.33 993.56 504.07 C 992.50 501.08 991.80 497.98 991.07 494.90 C 991.28 495.43 991.70 496.50 991.91 497.03 C 1004.62 492.48 1017.37 488.02 1030.08 483.47 C 1032.70 482.63 1035.24 480.79 1035.85 477.96 C 1037.20 473.12 1031.78 468.00 1027.03 469.96 C 1013.70 474.40 1000.52 479.31 987.27 483.99 C 987.43 484.51 987.75 485.56 987.91 486.08 C 985.18 478.80 981.81 471.77 977.29 465.43 C 978.73 465.74 980.10 465.13 981.47 464.69 C 988.48 462.11 995.56 459.68 1002.61 457.16 C 1004.23 460.29 1007.11 463.25 1010.92 463.05 C 1021.61 463.10 1032.30 462.98 1043.00 463.08 C 1044.93 462.94 1047.28 463.38 1048.79 461.81 C 1054.23 456.53 1058.39 449.90 1060.67 442.65 C 1061.40 438.49 1061.11 434.20 1060.84 430.01 C 1059.42 421.64 1054.79 414.15 1049.26 407.86 C 1047.44 405.85 1044.52 406.02 1042.06 405.96 C 1032.37 405.94 1022.69 406.06 1013.01 405.90 C 1011.26 406.04 1009.24 405.65 1007.76 406.76 C 999.72 413.95 994.31 424.15 993.87 435.03 C 993.72 438.41 994.83 441.65 995.99 444.79 C 987.11 448.05 978.11 450.97 969.30 454.37 C 968.87 454.70 968.02 455.37 967.59 455.71 C 965.28 454.26 962.97 452.83 960.73 451.31 C 960.71 428.21 960.66 405.11 960.73 382.01 Z" />
<path fill="#333334" stroke="#333334" stroke-width="0.09375" opacity="0.50" d=" M 499.95 653.06 C 502.74 654.85 504.95 657.34 507.05 659.88 C 504.72 657.56 502.47 655.16 499.95 653.06 Z" />
</g>
<g id="#2e2e2f80">
<path fill="#2e2e2f" stroke="#2e2e2f" stroke-width="0.09375" opacity="0.50" d=" M 1007.76 406.76 C 1009.24 405.65 1011.26 406.04 1013.01 405.90 C 1022.69 406.06 1032.37 405.94 1042.06 405.96 C 1044.52 406.02 1047.44 405.85 1049.26 407.86 C 1054.79 414.15 1059.42 421.64 1060.84 430.01 C 1061.11 434.20 1061.40 438.49 1060.67 442.65 C 1058.39 449.90 1054.23 456.53 1048.79 461.81 C 1047.28 463.38 1044.93 462.94 1043.00 463.08 C 1032.30 462.98 1021.61 463.10 1010.92 463.05 C 1007.11 463.25 1004.23 460.29 1002.61 457.16 C 1006.05 455.90 1009.52 454.66 1013.03 453.56 C 1011.99 448.97 1010.33 444.55 1008.49 440.23 C 1004.35 441.84 1000.16 443.30 995.99 444.79 C 994.83 441.65 993.72 438.41 993.87 435.03 C 994.31 424.15 999.72 413.95 1007.76 406.76 M 1037.95 420.13 C 1037.33 426.09 1037.54 432.11 1037.84 438.09 C 1039.50 438.15 1041.17 438.10 1042.85 437.94 C 1042.86 432.03 1042.96 426.11 1042.79 420.20 C 1041.16 420.17 1039.55 420.14 1037.95 420.13 M 1012.91 422.05 C 1012.52 427.06 1012.44 432.11 1012.88 437.12 C 1014.51 437.17 1016.17 437.12 1017.82 436.99 C 1017.82 432.06 1017.92 427.14 1017.80 422.21 C 1016.16 422.15 1014.53 422.09 1012.91 422.05 M 1023.58 447.69 C 1021.02 450.05 1021.00 453.96 1021.95 457.07 C 1025.90 457.47 1029.90 457.44 1033.85 456.96 C 1033.80 454.28 1034.27 451.39 1032.99 448.93 C 1031.12 445.77 1026.17 445.02 1023.58 447.69 Z" />
</g>
<g id="#584854d2">
<path fill="#584854" stroke="#584854" stroke-width="0.09375" opacity="0.82" d=" M 915.92 437.79 C 916.69 436.47 917.37 436.52 917.96 437.96 C 917.45 437.91 916.43 437.83 915.92 437.79 Z" />
</g>
<g id="#d0d2d5ff">
<path fill="#d0d2d5" stroke="#d0d2d5" stroke-width="0.09375" opacity="1.00" d=" M 995.99 444.79 C 1000.16 443.30 1004.35 441.84 1008.49 440.23 C 1010.33 444.55 1011.99 448.97 1013.03 453.56 C 1009.52 454.66 1006.05 455.90 1002.61 457.16 C 995.56 459.68 988.48 462.11 981.47 464.69 C 980.10 465.13 978.73 465.74 977.29 465.43 C 974.95 462.01 971.94 459.12 968.73 456.55 C 968.60 456.46 968.36 456.27 968.23 456.18 L 967.59 455.71 C 968.02 455.37 968.87 454.70 969.30 454.37 C 978.11 450.97 987.11 448.05 995.99 444.79 Z" />
<path fill="#d0d2d5" stroke="#d0d2d5" stroke-width="0.09375" opacity="1.00" d=" M 987.27 483.99 C 1000.52 479.31 1013.70 474.40 1027.03 469.96 C 1031.78 468.00 1037.20 473.12 1035.85 477.96 C 1035.24 480.79 1032.70 482.63 1030.08 483.47 C 1017.37 488.02 1004.62 492.48 991.91 497.03 C 991.70 496.50 991.28 495.43 991.07 494.90 C 990.07 491.93 989.00 489.00 987.91 486.08 C 987.75 485.56 987.43 484.51 987.27 483.99 Z" />
<path fill="#d0d2d5" stroke="#d0d2d5" stroke-width="0.09375" opacity="1.00" d=" M 76.02 530.79 C 306.00 530.83 535.98 530.86 765.96 530.78 C 765.88 546.55 766.03 562.32 765.89 578.09 C 765.90 585.21 760.08 591.52 753.08 592.43 C 718.37 592.24 683.65 592.45 648.94 592.33 C 638.96 591.39 628.98 592.71 618.99 592.36 C 569.65 592.30 520.32 592.51 470.98 592.03 C 461.01 592.08 451.01 591.77 441.06 592.59 C 441.81 594.21 442.69 595.79 444.00 597.05 C 450.66 603.77 457.48 610.34 464.01 617.19 C 465.08 618.70 466.24 620.15 467.57 621.46 C 475.50 629.19 483.23 637.12 491.10 644.91 C 493.97 647.71 496.60 650.80 499.95 653.06 C 502.47 655.16 504.72 657.56 507.05 659.88 C 507.27 660.12 507.73 660.59 507.95 660.83 L 507.78 661.87 C 495.86 661.71 483.94 662.56 472.02 662.31 C 459.33 661.94 446.64 661.73 433.95 661.91 C 401.07 662.42 368.18 661.32 335.31 662.58 C 335.07 662.16 334.58 661.32 334.33 660.90 C 335.32 652.55 336.27 644.20 337.22 635.85 C 338.83 621.43 340.51 607.02 342.14 592.60 C 260.75 592.59 179.36 592.59 97.97 592.60 C 93.53 592.53 88.85 593.08 84.68 591.19 C 79.27 588.77 75.77 582.90 76.02 577.00 C 76.04 561.60 76.02 546.20 76.02 530.79 M 423.27 544.01 L 422.66 544.03 C 418.34 543.96 413.81 546.17 412.02 550.26 L 411.88 550.62 C 408.87 552.72 409.02 556.68 409.09 559.95 C 408.64 566.55 413.86 573.07 420.41 574.04 L 420.71 574.21 C 427.13 576.96 434.54 572.62 438.21 567.21 L 436.55 567.60 C 436.64 567.09 436.81 566.08 436.89 565.58 L 438.45 566.24 C 439.88 562.86 440.63 559.01 439.55 555.43 C 439.15 554.04 438.17 553.45 436.62 553.68 L 437.30 554.30 C 436.27 554.80 435.32 555.43 434.46 556.18 C 433.57 556.08 431.78 555.89 430.88 555.79 C 431.24 555.48 431.95 554.86 432.30 554.55 C 435.50 555.58 436.98 552.53 437.29 549.94 C 434.35 548.46 433.29 544.25 429.43 544.94 L 428.95 545.03 L 428.86 544.20 C 428.41 544.19 427.52 544.17 427.07 544.16 L 425.82 543.98 C 426.38 542.19 422.53 542.26 423.27 544.01 Z" />
<path fill="#d0d2d5" stroke="#d0d2d5" stroke-width="0.09375" opacity="1.00" d=" M 303.85 663.95 C 313.88 663.95 323.90 663.92 333.93 663.96 C 341.94 664.13 349.96 663.96 357.98 664.04 C 408.94 663.75 459.90 664.16 510.86 663.91 C 520.67 663.97 530.49 663.93 540.30 663.94 C 540.33 665.81 540.36 667.69 540.41 669.58 C 519.59 669.64 498.78 669.94 477.97 669.72 C 419.99 669.56 362.01 669.61 304.04 669.70 C 303.97 667.77 303.91 665.86 303.85 663.95 Z" />
</g>
<g id="#a67f83cc">
<path fill="#a67f83" stroke="#a67f83" stroke-width="0.09375" opacity="0.80" d=" M 913.15 445.16 C 913.31 444.56 913.63 443.37 913.79 442.77 C 913.63 443.37 913.31 444.56 913.15 445.16 Z" />
</g>
<g id="#e1ababff">
<path fill="#e1abab" stroke="#e1abab" stroke-width="0.09375" opacity="1.00" d=" M 907.89 451.15 L 908.76 451.06 C 909.01 451.58 909.52 452.61 909.77 453.13 C 909.98 454.69 912.03 456.13 913.09 454.37 C 913.32 454.54 913.77 454.88 914.00 455.05 C 914.39 456.41 916.67 456.85 917.04 455.23 C 919.25 455.97 921.62 455.87 923.90 455.42 C 922.23 458.51 920.98 461.81 920.08 465.20 C 919.53 464.81 918.41 464.04 917.85 463.65 C 917.68 463.57 917.34 463.39 917.18 463.31 L 916.27 462.93 C 915.69 462.68 914.52 462.17 913.94 461.92 L 913.09 462.01 C 912.34 460.79 911.27 460.45 909.88 461.00 C 909.45 460.96 908.60 460.89 908.17 460.85 C 907.04 459.63 905.34 459.59 903.89 460.06 C 903.35 459.95 902.28 459.72 901.74 459.61 C 902.97 458.38 904.17 457.12 905.28 455.77 C 905.37 455.61 905.54 455.29 905.63 455.13 C 905.76 454.60 906.02 453.55 906.15 453.02 C 906.20 452.59 906.32 451.73 906.37 451.30 C 906.75 451.26 907.51 451.19 907.89 451.15 Z" />
</g>
<g id="#9a787ed0">
<path fill="#9a787e" stroke="#9a787e" stroke-width="0.09375" opacity="0.82" d=" M 929.31 452.63 C 929.41 452.56 929.61 452.41 929.71 452.34 C 929.61 452.41 929.41 452.56 929.31 452.63 Z" />
</g>
<g id="#c49494d9">
<path fill="#c49494" stroke="#c49494" stroke-width="0.09375" opacity="0.85" d=" M 909.77 453.13 C 911.02 453.11 912.12 453.52 913.09 454.37 C 912.03 456.13 909.98 454.69 909.77 453.13 Z" />
</g>
<g id="#a88182cd">
<path fill="#a88182" stroke="#a88182" stroke-width="0.09375" opacity="0.80" d=" M 905.28 455.77 C 905.37 455.61 905.54 455.29 905.63 455.13 C 905.54 455.29 905.37 455.61 905.28 455.77 Z" />
</g>
<g id="#b88b8bc9">
<path fill="#b88b8b" stroke="#b88b8b" stroke-width="0.09375" opacity="0.79" d=" M 914.00 455.05 C 914.76 455.09 916.28 455.18 917.04 455.23 C 916.67 456.85 914.39 456.41 914.00 455.05 Z" />
</g>
<g id="#61606dc2">
<path fill="#61606d" stroke="#61606d" stroke-width="0.09375" opacity="0.76" d=" M 968.23 456.18 C 968.36 456.27 968.60 456.46 968.73 456.55 C 968.60 456.46 968.36 456.27 968.23 456.18 Z" />
</g>
<g id="#bb6667c8">
<path fill="#bb6667" stroke="#bb6667" stroke-width="0.09375" opacity="0.78" d=" M 903.89 460.06 C 905.34 459.59 907.04 459.63 908.17 460.85 C 906.69 461.45 904.90 461.43 903.89 460.06 Z" />
</g>
<g id="#bd6365c9">
<path fill="#bd6365" stroke="#bd6365" stroke-width="0.09375" opacity="0.79" d=" M 909.88 461.00 C 911.27 460.45 912.34 460.79 913.09 462.01 C 911.75 462.46 910.68 462.12 909.88 461.00 Z" />
</g>
<g id="#be6466ca">
<path fill="#be6466" stroke="#be6466" stroke-width="0.09375" opacity="0.79" d=" M 913.94 461.92 C 914.52 462.17 915.69 462.68 916.27 462.93 C 915.69 462.68 914.52 462.17 913.94 461.92 Z" />
</g>
<g id="#b46a6cc4">
<path fill="#b46a6c" stroke="#b46a6c" stroke-width="0.09375" opacity="0.77" d=" M 917.18 463.31 C 917.34 463.39 917.68 463.57 917.85 463.65 C 917.68 463.57 917.34 463.39 917.18 463.31 Z" />
</g>
<g id="#84434bc1">
<path fill="#84434b" stroke="#84434b" stroke-width="0.09375" opacity="0.76" d=" M 922.39 468.35 C 922.44 468.43 922.54 468.58 922.59 468.66 C 922.54 468.58 922.44 468.43 922.39 468.35 Z" />
</g>
<g id="#9c4c54cf">
<path fill="#9c4c54" stroke="#9c4c54" stroke-width="0.09375" opacity="0.81" d=" M 888.94 473.05 C 889.22 472.51 889.77 471.43 890.05 470.89 C 889.77 471.43 889.22 472.51 888.94 473.05 Z" />
</g>
<g id="#9a4b53cd">
<path fill="#9a4b53" stroke="#9a4b53" stroke-width="0.09375" opacity="0.80" d=" M 925.99 474.86 C 926.25 475.41 926.77 476.51 927.03 477.05 C 926.77 476.51 926.25 475.41 925.99 474.86 Z" />
</g>
<g id="#954951c8">
<path fill="#954951" stroke="#954951" stroke-width="0.09375" opacity="0.78" d=" M 885.06 483.10 C 885.29 482.54 885.73 481.41 885.96 480.85 C 885.73 481.41 885.29 482.54 885.06 483.10 Z" />
</g>
<g id="#7a424dc9">
<path fill="#7a424d" stroke="#7a424d" stroke-width="0.09375" opacity="0.79" d=" M 928.98 482.89 C 929.22 483.45 929.69 484.57 929.92 485.13 C 929.69 484.57 929.22 483.45 928.98 482.89 Z" />
</g>
<g id="#8d474fc5">
<path fill="#8d474f" stroke="#8d474f" stroke-width="0.09375" opacity="0.77" d=" M 929.94 486.90 C 930.20 487.45 930.73 488.53 930.99 489.08 C 930.73 488.53 930.20 487.45 929.94 486.90 Z" />
</g>
<g id="#974950c5">
<path fill="#974950" stroke="#974950" stroke-width="0.09375" opacity="0.77" d=" M 930.90 490.95 C 931.20 491.47 931.79 492.51 932.09 493.03 C 931.79 492.51 931.20 491.47 930.90 490.95 Z" />
</g>
<g id="#9d4c52c7">
<path fill="#9d4c52" stroke="#9d4c52" stroke-width="0.09375" opacity="0.78" d=" M 932.01 494.89 C 932.24 495.45 932.70 496.57 932.94 497.13 C 932.70 496.57 932.24 495.45 932.01 494.89 Z" />
</g>
<g id="#964a53ce">
<path fill="#964a53" stroke="#964a53" stroke-width="0.09375" opacity="0.81" d=" M 933.84 500.97 C 934.13 501.49 934.73 502.54 935.03 503.06 C 934.73 502.54 934.13 501.49 933.84 500.97 Z" />
</g>
<g id="#b65358d0">
<path fill="#b65358" stroke="#b65358" stroke-width="0.09375" opacity="0.82" d=" M 971.97 504.71 C 972.72 503.70 974.51 503.19 975.21 504.58 C 974.40 504.61 972.78 504.68 971.97 504.71 Z" />
</g>
<g id="#9b787ecd">
<path fill="#9b787e" stroke="#9b787e" stroke-width="0.09375" opacity="0.80" d=" M 985.05 505.99 C 985.88 504.67 987.47 504.52 988.89 504.90 C 988.47 506.63 986.33 506.32 985.05 505.99 Z" />
</g>
<g id="#c4585dd9">
<path fill="#c4585d" stroke="#c4585d" stroke-width="0.09375" opacity="0.85" d=" M 967.93 508.15 C 968.06 506.79 968.82 506.09 970.20 506.05 C 970.11 507.49 969.35 508.19 967.93 508.15 Z" />
</g>
<g id="#81666fc6">
<path fill="#81666f" stroke="#81666f" stroke-width="0.09375" opacity="0.78" d=" M 980.84 506.90 C 981.41 506.71 982.57 506.35 983.14 506.16 C 982.57 506.35 981.41 506.71 980.84 506.90 Z" />
</g>
<g id="#c48385ca">
<path fill="#c48385" stroke="#c48385" stroke-width="0.09375" opacity="0.79" d=" M 977.89 509.01 C 978.17 509.48 978.73 510.43 979.01 510.90 C 978.66 510.62 977.97 510.07 977.62 509.80 L 977.89 509.01 Z" />
</g>
<g id="#c25558df">
<path fill="#c25558" stroke="#c25558" stroke-width="0.09375" opacity="0.87" d=" M 877.90 514.06 C 876.37 513.07 876.38 511.04 877.83 510.00 C 878.32 511.32 878.35 512.68 877.90 514.06 Z" />
</g>
<g id="#76414cca">
<path fill="#76414c" stroke="#76414c" stroke-width="0.09375" opacity="0.79" d=" M 960.42 511.32 C 960.89 511.32 961.84 511.31 962.31 511.31 C 961.73 511.49 960.56 511.85 959.98 512.03 L 960.42 511.32 Z" />
</g>
<g id="#974a50c6">
<path fill="#974a50" stroke="#974a50" stroke-width="0.09375" opacity="0.78" d=" M 956.95 513.05 C 957.49 512.78 958.56 512.22 959.10 511.95 C 958.56 512.22 957.49 512.78 956.95 513.05 Z" />
</g>
<g id="#c47f80c9">
<path fill="#c47f80" stroke="#c47f80" stroke-width="0.09375" opacity="0.79" d=" M 978.90 511.94 C 979.21 512.46 979.82 513.51 980.13 514.03 C 979.82 513.51 979.21 512.46 978.90 511.94 Z" />
</g>
<g id="#86454eca">
<path fill="#86454e" stroke="#86454e" stroke-width="0.09375" opacity="0.79" d=" M 951.97 514.07 C 952.63 512.82 953.66 512.46 955.06 512.99 C 954.32 514.16 953.29 514.52 951.97 514.07 Z" />
</g>
<g id="#a84f55cc">
<path fill="#a84f55" stroke="#a84f55" stroke-width="0.09375" opacity="0.80" d=" M 939.98 514.37 C 941.64 514.41 943.25 514.82 944.87 515.25 C 943.38 516.66 940.23 517.04 939.98 514.37 Z" />
</g>
<g id="#964a52cb">
<path fill="#964a52" stroke="#964a52" stroke-width="0.09375" opacity="0.80" d=" M 947.00 514.89 C 947.98 513.77 949.55 513.41 950.98 513.89 C 950.43 515.60 948.31 515.30 947.00 514.89 Z" />
</g>
<g id="#b74f52c9">
<path fill="#b74f52" stroke="#b74f52" stroke-width="0.09375" opacity="0.79" d=" M 878.96 519.11 C 877.60 518.67 877.26 516.50 878.75 516.03 C 878.80 516.80 878.90 518.34 878.96 519.11 Z" />
</g>
<g id="#b34e51c9">
<path fill="#b34e51" stroke="#b34e51" stroke-width="0.09375" opacity="0.79" d=" M 880.00 524.05 C 878.77 523.55 878.08 521.34 879.75 520.97 C 879.81 521.74 879.94 523.28 880.00 524.05 Z" />
</g>
<g id="#b85053cc">
<path fill="#b85053" stroke="#b85053" stroke-width="0.09375" opacity="0.80" d=" M 879.19 533.16 C 878.50 531.74 878.82 530.68 880.16 529.97 C 880.51 531.26 880.19 532.32 879.19 533.16 Z" />
</g>
<g id="#c55759dd">
<path fill="#c55759" stroke="#c55759" stroke-width="0.09375" opacity="0.87" d=" M 875.26 542.39 C 874.82 538.95 876.95 536.00 879.06 533.53 C 878.36 536.70 876.95 539.64 875.26 542.39 Z" />
</g>
<g id="#ada896d3">
<path fill="#ada896" stroke="#ada896" stroke-width="0.09375" opacity="0.83" d=" M 423.27 544.01 C 422.53 542.26 426.38 542.19 425.82 543.98 C 425.18 543.99 423.90 544.00 423.27 544.01 Z" />
</g>
<g id="#ba5154cb">
<path fill="#ba5154" stroke="#ba5154" stroke-width="0.09375" opacity="0.80" d=" M 874.31 543.29 L 875.16 543.04 C 874.91 543.58 874.42 544.65 874.17 545.18 C 874.21 544.71 874.28 543.76 874.31 543.29 Z" />
</g>
<g id="#dbbf6aff">
<path fill="#dbbf6a" stroke="#dbbf6a" stroke-width="0.09375" opacity="1.00" d=" M 422.66 544.03 L 423.27 544.01 C 423.90 544.00 425.18 543.99 425.82 543.98 L 427.07 544.16 C 427.54 544.38 428.48 544.82 428.95 545.03 L 429.43 544.94 C 430.53 545.84 431.65 546.72 432.79 547.59 L 432.49 548.63 C 433.04 548.62 434.16 548.59 434.71 548.57 C 435.27 549.56 435.84 550.54 436.43 551.53 C 434.95 552.38 433.55 553.38 432.30 554.55 C 431.95 554.86 431.24 555.48 430.88 555.79 C 428.93 557.05 427.14 558.54 425.49 560.18 C 428.88 560.00 431.96 558.41 434.46 556.18 C 435.32 555.43 436.27 554.80 437.30 554.30 C 437.66 554.61 438.38 555.25 438.74 555.57 C 439.28 558.69 438.98 561.89 438.22 564.96 C 434.96 564.93 431.68 564.93 428.43 565.22 C 430.31 566.50 432.49 567.18 434.78 566.77 C 435.39 567.12 436.00 567.49 436.61 567.87 C 434.61 569.53 432.75 571.41 430.46 572.67 C 427.44 574.17 423.97 573.96 420.71 574.21 L 420.41 574.04 C 417.76 572.26 414.85 570.68 412.87 568.11 C 410.98 565.44 409.88 562.25 409.30 559.05 C 409.86 556.16 411.02 553.43 411.88 550.62 L 412.02 550.26 C 415.20 547.61 418.89 545.70 422.66 544.03 Z" />
<path fill="#dbbf6a" stroke="#dbbf6a" stroke-width="0.09375" opacity="1.00" d=" M 149.86 616.78 C 153.14 615.60 156.62 616.83 159.89 617.45 C 163.98 618.67 168.48 619.18 171.95 621.88 C 167.84 624.95 163.15 627.08 158.85 629.85 C 154.48 632.59 149.49 634.40 145.67 637.96 C 157.32 635.22 168.35 630.09 180.08 627.70 C 184.75 629.58 186.85 635.07 189.62 639.02 L 188.38 639.99 C 185.28 641.70 181.73 642.61 179.13 645.14 C 176.97 647.21 173.37 647.24 171.92 650.08 C 174.85 649.67 177.57 648.51 180.22 647.27 C 181.27 647.37 182.44 647.83 183.42 647.18 C 186.14 645.65 189.12 644.69 192.08 643.76 C 196.24 653.32 198.01 664.75 193.33 674.46 C 191.79 679.41 187.53 683.56 182.20 683.91 C 178.04 676.74 172.62 669.61 164.58 666.61 C 164.24 666.41 163.54 666.00 163.20 665.80 C 160.50 663.88 157.17 663.45 153.96 663.22 C 153.35 663.16 152.13 663.04 151.52 662.98 C 145.57 663.94 139.75 662.08 134.46 659.52 C 128.29 654.78 124.61 645.79 115.83 645.34 L 115.43 645.30 C 112.58 644.78 109.78 645.76 107.00 646.26 C 109.82 640.34 112.95 634.40 117.69 629.77 C 124.58 622.81 133.67 618.54 143.17 616.49 C 145.40 616.70 147.68 617.79 149.86 616.78 Z" />
<path fill="#dbbf6a" stroke="#dbbf6a" stroke-width="0.09375" opacity="1.00" d=" M 583.83 676.00 C 597.87 669.03 614.70 667.25 629.60 672.53 C 632.84 673.22 635.26 675.79 638.57 676.27 C 640.80 678.68 644.52 678.66 646.62 681.31 C 649.70 684.16 653.00 686.76 656.00 689.69 C 658.23 691.92 660.40 694.23 662.20 696.83 C 664.56 700.70 666.60 704.75 668.34 708.93 C 661.96 707.52 654.94 707.25 649.06 710.51 C 642.99 713.49 640.65 720.46 635.35 724.33 C 629.27 729.01 621.75 732.09 614.01 732.06 C 609.83 732.23 605.49 731.17 601.49 732.81 L 601.32 732.85 C 595.11 733.21 589.99 736.96 585.24 740.59 C 581.24 742.94 577.53 745.87 574.80 749.67 C 572.05 753.04 571.26 757.62 567.94 760.59 C 562.58 757.29 556.60 753.85 553.93 747.85 C 552.73 745.55 552.80 742.82 551.45 740.59 C 551.21 739.37 550.99 738.16 550.77 736.96 C 549.23 726.47 551.32 715.63 555.18 705.84 C 564.61 708.08 573.60 711.92 583.10 713.90 C 574.96 709.38 567.09 704.40 558.91 699.97 C 559.07 699.32 559.40 698.03 559.57 697.39 C 564.10 693.05 566.85 685.76 573.72 684.75 C 579.00 686.49 584.43 687.81 589.39 690.44 C 599.56 692.27 609.21 696.21 619.20 698.81 C 617.00 697.41 614.75 696.07 612.92 694.21 C 609.17 693.39 606.00 691.17 603.14 688.72 C 601.48 688.14 599.67 687.86 598.29 686.71 C 595.01 684.18 591.29 682.33 587.67 680.35 C 586.85 678.79 585.76 677.69 583.95 678.64 C 583.92 677.98 583.86 676.66 583.83 676.00 Z" />
</g>
<g id="#776f558f">
<path fill="#776f55" stroke="#776f55" stroke-width="0.09375" opacity="0.56" d=" M 427.07 544.16 C 427.52 544.17 428.41 544.19 428.86 544.20 L 428.95 545.03 C 428.48 544.82 427.54 544.38 427.07 544.16 Z" />
</g>
<g id="#613c4acb">
<path fill="#613c4a" stroke="#613c4a" stroke-width="0.09375" opacity="0.80" d=" M 895.86 578.79 C 896.73 577.86 897.79 577.57 899.04 577.92 C 898.32 579.28 897.26 579.57 895.86 578.79 Z" />
</g>
<g id="#39374dff">
<path fill="#39374d" stroke="#39374d" stroke-width="0.09375" opacity="1.00" d=" M 913.04 578.94 C 916.67 580.63 920.25 582.43 923.82 584.28 C 924.21 584.63 925.00 585.33 925.39 585.68 C 923.07 595.32 922.20 605.25 920.85 615.06 C 919.68 623.28 926.92 629.76 926.46 637.90 C 925.98 641.90 922.37 644.80 922.19 648.90 C 921.77 654.74 921.87 660.62 921.76 666.48 C 920.15 666.88 918.58 667.34 917.00 667.80 C 916.49 668.11 915.45 668.73 914.94 669.04 L 914.03 668.96 C 912.67 668.41 911.61 668.74 910.86 669.94 L 910.05 670.11 C 908.37 669.54 906.61 669.64 905.02 670.34 C 902.38 671.15 899.61 670.90 896.95 670.38 C 897.14 664.69 897.98 658.89 896.57 653.29 C 898.75 650.55 901.29 647.99 902.55 644.65 C 904.79 638.97 907.61 633.56 910.05 627.97 C 911.37 627.02 911.73 624.91 910.21 623.97 C 910.47 623.46 910.98 622.44 911.23 621.93 C 912.49 620.17 912.26 617.98 911.66 616.05 L 912.25 615.08 C 913.27 613.94 913.50 612.20 912.64 610.91 L 913.25 609.99 C 914.76 608.28 914.25 605.94 913.41 604.07 C 914.00 599.75 914.09 595.36 913.42 591.04 C 914.50 589.44 914.56 587.36 913.14 585.93 L 912.70 585.06 C 913.22 583.36 913.24 581.57 912.71 579.89 L 913.04 578.94 Z" />
</g>
<g id="#2f2d40ce">
<path fill="#2f2d40" stroke="#2f2d40" stroke-width="0.09375" opacity="0.81" d=" M 912.70 585.06 C 911.34 583.55 911.19 581.34 912.71 579.89 C 913.24 581.57 913.22 583.36 912.70 585.06 Z" />
<path fill="#2f2d40" stroke="#2f2d40" stroke-width="0.09375" opacity="0.81" d=" M 911.23 621.93 C 910.41 620.02 910.21 617.70 911.66 616.05 C 912.26 617.98 912.49 620.17 911.23 621.93 Z" />
</g>
<g id="#2e2d3fcb">
<path fill="#2e2d3f" stroke="#2e2d3f" stroke-width="0.09375" opacity="0.80" d=" M 913.14 585.93 C 914.56 587.36 914.50 589.44 913.42 591.04 C 912.59 589.43 912.48 587.61 913.14 585.93 Z" />
</g>
<g id="#858789aa">
<path fill="#858789" stroke="#858789" stroke-width="0.09375" opacity="0.67" d=" M 441.06 592.59 C 451.01 591.77 461.01 592.08 470.98 592.03 C 520.32 592.51 569.65 592.30 618.99 592.36 C 628.98 592.71 638.96 591.39 648.94 592.33 C 683.65 592.45 718.37 592.24 753.08 592.43 C 749.07 592.93 745.03 592.70 741.01 592.72 C 709.16 592.69 677.30 592.77 645.44 592.68 C 641.43 592.50 637.42 592.51 633.42 592.68 C 588.96 592.80 544.51 592.59 500.06 592.79 C 480.76 592.61 461.46 592.84 442.17 592.69 C 442.34 593.24 442.70 594.33 442.88 594.87 C 446.56 599.24 450.95 602.96 454.87 607.12 C 457.93 610.46 461.73 613.19 464.01 617.19 C 457.48 610.34 450.66 603.77 444.00 597.05 C 442.69 595.79 441.81 594.21 441.06 592.59 Z" />
</g>
<g id="#bbbdbfff">
<path fill="#bbbdbf" stroke="#bbbdbf" stroke-width="0.09375" opacity="1.00" d=" M 442.17 592.69 C 461.46 592.84 480.76 592.61 500.06 592.79 C 501.61 603.24 503.40 613.65 504.67 624.14 C 504.93 626.93 505.41 629.69 506.02 632.43 C 506.31 633.87 506.57 635.33 506.80 636.80 C 508.00 645.26 509.45 653.69 510.59 662.16 C 509.93 661.83 508.61 661.16 507.95 660.83 C 507.73 660.59 507.27 660.12 507.05 659.88 C 504.95 657.34 502.74 654.85 499.95 653.06 C 496.60 650.80 493.97 647.71 491.10 644.91 C 483.23 637.12 475.50 629.19 467.57 621.46 C 466.24 620.15 465.08 618.70 464.01 617.19 C 461.73 613.19 457.93 610.46 454.87 607.12 C 450.95 602.96 446.56 599.24 442.88 594.87 C 442.70 594.33 442.34 593.24 442.17 592.69 Z" />
</g>
<g id="#2f2d40cd">
<path fill="#2f2d40" stroke="#2f2d40" stroke-width="0.09375" opacity="0.80" d=" M 913.41 604.07 C 914.25 605.94 914.76 608.28 913.25 609.99 C 912.29 608.09 912.59 605.94 913.41 604.07 Z" />
</g>
<g id="#2f2d3fcd">
<path fill="#2f2d3f" stroke="#2f2d3f" stroke-width="0.09375" opacity="0.80" d=" M 912.25 615.08 C 911.33 613.78 911.58 612.02 912.64 610.91 C 913.50 612.20 913.27 613.94 912.25 615.08 Z" />
</g>
<g id="#2e2d3fca">
<path fill="#2e2d3f" stroke="#2e2d3f" stroke-width="0.09375" opacity="0.79" d=" M 910.21 623.97 C 911.73 624.91 911.37 627.02 910.05 627.97 C 909.55 626.57 909.60 625.24 910.21 623.97 Z" />
</g>
<g id="#0000001a">
<path fill="#000000" stroke="#000000" stroke-width="0.09375" opacity="0.10" d=" M 284.03 637.81 C 301.70 635.78 319.57 638.23 337.22 635.85 C 336.27 644.20 335.32 652.55 334.33 660.90 C 334.20 661.91 334.06 662.93 333.93 663.96 C 323.90 663.92 313.88 663.95 303.85 663.95 C 303.91 665.86 303.97 667.77 304.04 669.70 C 362.01 669.61 419.99 669.56 477.97 669.72 C 498.78 669.94 519.59 669.64 540.41 669.58 C 540.36 667.69 540.33 665.81 540.30 663.94 C 530.49 663.93 520.67 663.97 510.86 663.91 C 510.79 663.47 510.65 662.60 510.59 662.16 C 509.45 653.69 508.00 645.26 506.80 636.80 C 509.81 636.02 512.94 635.87 516.03 636.30 C 522.66 637.12 529.35 636.80 536.02 636.99 C 538.57 637.09 541.15 636.83 543.56 635.93 C 554.43 640.44 566.17 642.51 577.90 642.82 C 591.52 643.34 605.91 644.33 618.60 638.38 C 627.86 641.34 637.70 639.05 647.16 640.59 C 665.77 641.45 684.38 642.36 702.96 643.83 C 707.81 643.98 712.84 643.62 717.38 645.71 C 702.14 651.33 686.73 656.70 672.32 664.29 C 663.08 668.90 654.82 675.10 646.62 681.31 C 644.52 678.66 640.80 678.68 638.57 676.27 C 635.26 675.79 632.84 673.22 629.60 672.53 C 614.70 667.25 597.87 669.03 583.83 676.00 C 583.86 676.66 583.92 677.98 583.95 678.64 C 585.76 677.69 586.85 678.79 587.67 680.35 C 591.29 682.33 595.01 684.18 598.29 686.71 C 599.67 687.86 601.48 688.14 603.14 688.72 C 606.00 691.17 609.17 693.39 612.92 694.21 C 614.75 696.07 617.00 697.41 619.20 698.81 C 609.21 696.21 599.56 692.27 589.39 690.44 C 584.43 687.81 579.00 686.49 573.72 684.75 C 566.85 685.76 564.10 693.05 559.57 697.39 C 559.40 698.03 559.07 699.32 558.91 699.97 C 549.27 700.09 539.61 699.83 530.01 700.82 C 516.35 701.17 502.68 700.82 489.02 701.18 C 480.35 702.05 471.64 701.80 462.95 701.86 C 431.97 701.88 400.99 701.90 370.02 701.79 C 352.11 700.16 334.08 701.68 316.14 700.61 C 303.10 699.60 290.01 700.25 276.95 699.70 C 266.55 698.43 256.04 699.56 245.62 698.48 C 239.44 697.84 233.22 698.05 227.02 697.92 C 187.36 695.91 147.70 694.12 108.12 690.56 C 83.69 688.38 59.24 685.96 35.06 681.70 C 28.22 680.80 21.57 678.94 14.89 677.25 C 9.44 676.00 4.08 673.76 0.00 669.83 L 0.00 667.02 C 3.19 664.68 6.54 662.48 10.36 661.34 C 19.09 658.67 28.02 656.73 37.01 655.15 C 58.89 651.60 80.93 649.25 102.98 647.09 C 104.40 646.99 105.76 647.47 107.13 647.75 C 104.79 654.55 103.68 661.88 104.96 669.02 C 105.67 673.53 108.83 677.06 111.25 680.76 C 115.29 682.87 118.83 686.40 123.79 686.02 C 125.11 686.76 126.58 687.05 128.09 686.88 C 130.46 686.66 132.59 688.03 134.95 688.02 C 144.61 688.40 154.28 688.43 163.94 688.10 C 169.83 688.05 175.54 686.39 181.15 684.75 C 179.24 680.63 176.63 676.81 173.28 673.73 C 170.56 671.12 167.01 669.53 164.58 666.61 C 172.62 669.61 178.04 676.74 182.20 683.91 C 187.53 683.56 191.79 679.41 193.33 674.46 C 198.01 664.75 196.24 653.32 192.08 643.76 C 189.12 644.69 186.14 645.65 183.42 647.18 C 182.44 647.83 181.27 647.37 180.22 647.27 C 177.57 648.51 174.85 649.67 171.92 650.08 C 173.37 647.24 176.97 647.21 179.13 645.14 C 181.73 642.61 185.28 641.70 188.38 639.99 C 193.94 641.88 199.92 640.80 205.65 640.51 C 212.86 639.49 220.17 640.41 227.39 639.47 C 235.22 638.50 243.14 639.45 251.00 638.68 C 261.96 637.38 273.03 638.33 284.03 637.81 Z" />
<path fill="#000000" stroke="#000000" stroke-width="0.09375" opacity="0.10" d=" M 697.85 665.81 C 715.03 658.98 732.71 653.43 749.75 646.22 C 753.23 648.42 757.46 648.00 761.38 648.54 C 777.68 650.01 793.90 652.29 810.10 654.63 C 815.60 655.35 820.94 657.29 826.56 657.03 C 828.28 664.49 832.89 670.74 837.15 676.93 C 820.71 681.29 803.89 683.91 787.02 685.90 C 754.24 689.92 721.30 692.52 688.34 694.47 C 679.64 695.41 670.76 694.89 662.20 696.83 C 660.40 694.23 658.23 691.92 656.00 689.69 C 668.06 678.84 682.95 671.86 697.85 665.81 Z" />
<path fill="#000000" stroke="#000000" stroke-width="0.09375" opacity="0.10" d=" M 723.05 718.79 C 737.32 717.28 751.70 718.65 765.98 717.28 C 782.67 716.85 799.37 717.18 816.07 717.00 C 819.68 717.11 823.53 716.51 826.86 718.30 C 810.89 725.07 793.72 728.12 776.79 731.38 C 746.17 737.23 715.15 741.09 683.99 742.31 C 679.50 742.47 675.00 742.21 670.53 741.77 C 671.14 739.95 670.61 737.98 671.17 736.18 C 672.84 731.53 672.17 726.42 670.94 721.75 C 675.48 720.37 680.26 721.32 684.90 720.64 C 691.29 719.70 697.77 720.19 704.18 719.40 C 710.44 718.71 716.76 719.15 723.05 718.79 Z" />
<path fill="#000000" stroke="#000000" stroke-width="0.09375" opacity="0.10" d=" M 863.73 718.17 C 871.52 717.54 879.22 719.26 887.00 718.98 C 893.35 718.74 899.64 719.76 905.97 720.12 C 905.88 724.50 904.48 729.30 906.63 733.40 C 909.90 737.50 915.72 735.64 920.15 735.14 C 927.90 733.29 936.45 733.67 943.40 729.28 C 947.82 726.71 952.59 724.82 957.38 723.04 C 961.19 724.09 965.17 724.06 969.07 724.58 C 995.51 727.56 1022.06 730.58 1047.88 737.18 C 1054.97 738.83 1061.82 741.47 1068.37 744.63 C 1071.91 746.33 1075.56 749.41 1075.68 753.63 C 1073.98 757.95 1069.64 760.55 1065.67 762.54 C 1049.16 769.66 1031.25 772.44 1013.67 775.57 C 970.72 782.05 927.34 785.07 884.00 787.00 C 874.65 786.81 865.37 788.21 856.02 788.00 C 850.85 788.17 845.49 787.18 840.51 789.00 L 760.51 789.00 C 755.15 787.33 749.48 788.15 743.98 788.01 C 736.31 788.29 728.72 786.86 721.06 787.07 C 712.35 787.19 703.70 785.98 695.01 785.97 C 661.24 783.94 627.43 781.39 593.95 776.35 C 577.41 773.98 560.90 770.98 544.91 766.08 C 538.84 763.95 532.66 761.52 527.73 757.28 C 524.80 755.05 525.41 750.29 528.19 748.19 C 533.42 743.86 539.97 741.48 546.35 739.38 C 547.95 738.84 549.36 737.87 550.77 736.96 C 550.99 738.16 551.21 739.37 551.45 740.59 C 552.80 742.82 552.73 745.55 553.93 747.85 C 556.60 753.85 562.58 757.29 567.94 760.59 C 571.26 757.62 572.05 753.04 574.80 749.67 C 577.53 745.87 581.24 742.94 585.24 740.59 C 589.99 736.96 595.11 733.21 601.32 732.85 C 592.50 737.10 583.29 741.45 576.75 749.00 C 574.42 752.80 571.71 756.37 569.70 760.35 C 572.43 761.26 575.00 763.10 578.00 762.86 C 580.52 762.59 582.71 764.09 585.15 764.41 C 587.07 764.31 589.02 763.33 590.94 763.97 C 596.11 765.68 601.64 764.93 606.99 765.18 C 614.87 765.02 622.79 765.46 630.64 764.65 C 638.55 764.54 646.26 762.45 653.91 760.64 C 657.37 757.93 662.37 757.34 664.59 753.10 C 671.67 754.16 678.85 754.50 686.01 754.23 C 718.54 752.80 750.93 748.71 782.87 742.39 C 800.38 738.98 818.21 735.66 834.42 727.89 C 835.45 727.78 836.45 727.97 837.41 728.45 C 848.60 733.51 860.68 736.56 872.91 737.71 C 876.18 738.11 880.35 737.25 881.71 733.84 C 882.49 732.27 881.76 730.25 880.01 729.82 C 873.93 727.04 867.34 724.14 863.73 718.17 Z" />
</g>
<g id="#ffbe00ff">
<path fill="#ffbe00" stroke="#ffbe00" stroke-width="0.09375" opacity="1.00" d=" M 115.43 645.30 L 115.83 645.34 C 118.12 647.44 121.55 647.73 123.60 650.17 C 129.32 655.95 135.18 663.24 143.96 663.75 C 146.47 663.42 149.49 665.12 151.52 662.98 C 152.13 663.04 153.35 663.16 153.96 663.22 C 156.60 665.28 160.04 665.26 163.20 665.80 C 163.54 666.00 164.24 666.41 164.58 666.61 C 167.01 669.53 170.56 671.12 173.28 673.73 C 176.63 676.81 179.24 680.63 181.15 684.75 C 175.54 686.39 169.83 688.05 163.94 688.10 C 154.28 688.43 144.61 688.40 134.95 688.02 C 132.59 688.03 130.46 686.66 128.09 686.88 C 126.58 687.05 125.11 686.76 123.79 686.02 C 118.83 686.40 115.29 682.87 111.25 680.76 C 108.83 677.06 105.67 673.53 104.96 669.02 C 103.68 661.88 104.79 654.55 107.13 647.75 L 107.28 647.32 C 108.61 646.77 109.96 646.28 111.31 645.79 C 112.72 645.94 114.15 646.02 115.43 645.30 Z" />
<path fill="#ffbe00" stroke="#ffbe00" stroke-width="0.09375" opacity="1.00" d=" M 649.20 711.95 C 655.10 708.23 662.83 707.91 669.08 710.99 C 668.91 713.21 669.01 715.52 670.62 717.25 C 670.69 718.74 670.76 720.24 670.94 721.75 C 672.17 726.42 672.84 731.53 671.17 736.18 C 670.61 737.98 671.14 739.95 670.53 741.77 C 668.83 745.68 666.97 749.54 664.59 753.10 C 662.37 757.34 657.37 757.93 653.91 760.64 C 646.26 762.45 638.55 764.54 630.64 764.65 C 622.79 765.46 614.87 765.02 606.99 765.18 C 601.64 764.93 596.11 765.68 590.94 763.97 C 589.02 763.33 587.07 764.31 585.15 764.41 C 582.71 764.09 580.52 762.59 578.00 762.86 C 575.00 763.10 572.43 761.26 569.70 760.35 C 571.71 756.37 574.42 752.80 576.75 749.00 C 583.29 741.45 592.50 737.10 601.32 732.85 L 601.49 732.81 C 605.65 733.02 609.82 733.02 613.98 733.03 C 622.69 733.18 631.27 729.53 637.66 723.71 C 641.39 719.69 644.52 714.97 649.20 711.95 Z" />
</g>
<g id="#b4b6b8eb">
<path fill="#b4b6b8" stroke="#b4b6b8" stroke-width="0.09375" opacity="0.92" d=" M 333.93 663.96 C 334.06 662.93 334.20 661.91 334.33 660.90 C 334.58 661.32 335.07 662.16 335.31 662.58 C 368.18 661.32 401.07 662.42 433.95 661.91 C 446.64 661.73 459.33 661.94 472.02 662.31 C 483.94 662.56 495.86 661.71 507.78 661.87 L 507.95 660.83 C 508.61 661.16 509.93 661.83 510.59 662.16 C 510.65 662.60 510.79 663.47 510.86 663.91 C 459.90 664.16 408.94 663.75 357.98 664.04 C 349.96 663.96 341.94 664.13 333.93 663.96 Z" />
</g>
<g id="#272637c7">
<path fill="#272637" stroke="#272637" stroke-width="0.09375" opacity="0.78" d=" M 914.94 669.04 C 915.45 668.73 916.49 668.11 917.00 667.80 C 916.49 668.11 915.45 668.73 914.94 669.04 Z" />
</g>
<g id="#282637cb">
<path fill="#282637" stroke="#282637" stroke-width="0.09375" opacity="0.80" d=" M 910.86 669.94 C 911.61 668.74 912.67 668.41 914.03 668.96 C 913.24 670.11 912.18 670.43 910.86 669.94 Z" />
</g>
<g id="#282737cc">
<path fill="#282737" stroke="#282737" stroke-width="0.09375" opacity="0.80" d=" M 905.02 670.34 C 906.61 669.64 908.37 669.54 910.05 670.11 C 908.66 671.45 906.45 671.75 905.02 670.34 Z" />
</g>
<g id="#2b293bcb">
<path fill="#2b293b" stroke="#2b293b" stroke-width="0.09375" opacity="0.80" d=" M 865.96 673.05 C 867.34 672.42 869.03 672.55 870.06 673.81 C 868.63 674.41 866.93 674.38 865.96 673.05 Z" />
</g>
<g id="#292839cd">
<path fill="#292839" stroke="#292839" stroke-width="0.09375" opacity="0.80" d=" M 872.03 674.21 C 873.67 673.42 875.73 673.27 877.08 674.75 C 875.37 675.38 873.50 675.29 872.03 674.21 Z" />
</g>
</svg>
