<?xml version="1.0" encoding="UTF-8" ?>
<!DOCTYPE svg PUBLIC "-//W3C//DTD SVG 1.1//EN" "http://www.w3.org/Graphics/SVG/1.1/DTD/svg11.dtd">
<svg width="814pt" height="778pt" viewBox="0 0 814 778" version="1.1" xmlns="http://www.w3.org/2000/svg">
<g id="#0d0d0d1a">
<path fill="#0d0d0d" stroke="#0d0d0d" stroke-width="0.09375" opacity="0.10" d=" M 384.17 0.00 L 814.00 0.00 L 814.00 336.92 C 811.77 336.87 809.53 336.77 807.35 337.20 C 806.61 347.66 807.53 358.18 806.83 368.65 L 806.15 369.32 C 806.22 248.82 806.17 128.32 806.16 7.82 C 667.49 7.84 528.81 7.71 390.14 7.88 L 389.55 8.46 C 377.11 22.07 364.82 35.82 352.34 49.40 C 348.43 49.27 344.45 48.72 340.58 49.50 C 337.34 51.18 335.26 54.34 332.87 56.98 L 332.14 57.00 C 303.37 57.00 274.61 57.00 245.85 57.00 C 243.23 57.06 240.60 56.86 237.99 57.11 C 223.35 73.12 208.86 89.26 194.25 105.29 C 190.12 105.16 185.99 104.99 181.86 105.02 C 193.89 91.03 206.56 77.61 218.78 63.79 C 223.47 59.17 227.18 53.56 232.32 49.41 C 235.17 48.96 238.08 49.21 240.96 49.18 C 271.30 49.25 301.65 49.10 332.00 49.22 C 334.52 49.12 337.19 49.60 339.61 48.73 C 343.03 46.13 345.53 42.56 348.41 39.41 C 360.45 26.38 372.06 12.96 384.17 0.00 Z" />
</g>
<g id="#ffffffff">
<path fill="#ffffff" stroke="#ffffff" stroke-width="0.09375" opacity="1.00" d=" M 390.14 7.88 C 528.81 7.71 667.49 7.84 806.16 7.82 C 806.17 128.32 806.22 248.82 806.15 369.32 C 806.09 464.61 806.18 559.89 806.15 655.18 C 758.08 655.22 710.01 655.18 661.94 655.20 C 659.32 655.19 656.70 655.18 654.10 655.21 C 545.72 655.24 437.34 655.21 328.96 655.23 C 324.78 655.06 320.52 655.70 316.41 654.76 C 316.33 649.50 316.46 644.23 316.38 638.97 C 316.53 610.01 316.25 581.04 316.47 552.09 L 316.99 551.63 C 317.01 502.75 316.99 453.86 317.00 404.98 C 316.82 403.64 317.40 402.12 316.67 400.93 C 316.27 398.66 316.36 396.34 316.38 394.05 C 316.40 356.71 316.26 319.36 316.34 282.02 C 317.20 269.68 316.56 257.31 316.84 244.96 C 316.94 242.20 316.76 239.45 316.35 236.73 C 316.38 215.49 316.30 194.25 316.38 173.02 C 317.25 159.35 316.77 145.64 316.93 131.95 C 316.16 120.53 316.14 109.04 316.57 97.60 C 318.02 97.26 319.53 97.21 321.03 97.19 C 335.32 97.27 349.62 97.33 363.92 97.15 C 364.68 103.99 363.95 110.89 364.30 117.76 C 382.53 118.26 400.80 117.82 419.04 117.97 C 476.70 117.96 534.35 117.98 592.01 117.97 C 595.59 117.94 599.19 118.12 602.77 117.81 C 602.86 104.56 602.92 91.30 602.75 78.05 C 591.89 77.25 580.95 77.95 570.06 77.72 C 512.71 77.75 455.37 77.62 398.02 77.78 C 397.66 70.59 397.95 63.39 397.63 56.21 C 395.60 55.87 393.54 55.83 391.50 55.55 C 389.59 46.83 390.60 37.80 390.36 28.94 C 390.09 22.11 390.90 15.20 389.55 8.46 L 390.14 7.88 M 668.22 78.30 C 667.93 91.70 667.77 105.18 668.30 118.57 C 697.77 118.56 727.24 118.54 756.71 118.59 C 757.08 105.17 756.98 91.69 756.76 78.26 C 727.24 78.27 697.73 78.21 668.22 78.30 M 668.10 141.03 C 667.97 154.32 667.96 167.63 668.10 180.92 C 676.71 181.41 685.36 180.98 693.98 181.13 C 714.93 180.95 735.91 181.45 756.84 180.90 C 756.99 167.62 756.90 154.33 756.86 141.05 C 752.24 140.66 747.59 140.95 742.97 140.87 C 718.01 140.97 693.05 140.67 668.10 141.03 M 364.90 187.96 C 364.63 201.27 364.64 214.62 364.90 227.92 C 406.91 228.32 448.95 227.98 490.97 228.10 C 507.17 227.90 523.41 228.47 539.59 227.80 C 539.66 214.63 539.53 201.46 539.64 188.30 C 536.17 187.36 532.51 188.02 528.97 187.85 C 474.28 187.92 419.58 187.68 364.90 187.96 M 668.31 203.38 C 667.79 216.79 667.98 230.29 668.18 243.72 C 697.69 243.77 727.21 243.76 756.72 243.71 C 757.01 230.29 757.06 216.81 756.69 203.40 C 727.23 203.44 697.77 203.50 668.31 203.38 M 364.01 352.01 C 363.99 402.00 363.99 452.00 364.01 501.99 C 495.34 502.01 626.66 502.01 757.99 501.99 C 758.01 452.00 758.01 402.00 757.99 352.01 C 626.66 351.99 495.34 351.99 364.01 352.01 Z" />
</g>
<g id="#eeeeeeff">
<path fill="#eeeeee" stroke="#eeeeee" stroke-width="0.09375" opacity="1.00" d=" M 352.34 49.40 C 364.82 35.82 377.11 22.07 389.55 8.46 C 390.90 15.20 390.09 22.11 390.36 28.94 C 390.60 37.80 389.59 46.83 391.50 55.55 C 393.54 55.83 395.60 55.87 397.63 56.21 C 397.95 63.39 397.66 70.59 398.02 77.78 C 395.45 77.85 392.87 77.87 390.34 78.28 C 390.08 81.83 390.46 85.40 390.02 88.95 C 381.42 89.20 372.78 88.59 364.22 89.29 C 363.53 91.85 363.75 94.53 363.92 97.15 C 349.62 97.33 335.32 97.27 321.03 97.19 C 319.53 97.21 318.02 97.26 316.57 97.60 C 316.14 109.04 316.16 120.53 316.93 131.95 C 316.77 145.64 317.25 159.35 316.38 173.02 C 316.30 194.25 316.38 215.49 316.35 236.73 C 313.55 236.90 310.75 237.01 307.95 237.03 L 307.05 237.01 C 307.36 213.70 307.18 190.40 307.10 167.09 C 310.02 167.22 312.98 167.40 315.89 166.99 C 316.35 153.71 316.16 140.37 315.95 127.08 C 313.31 126.70 310.64 126.84 307.99 126.90 L 307.07 126.89 C 307.32 113.93 307.14 100.96 307.15 88.00 C 306.83 85.30 308.92 83.38 310.47 81.47 C 317.68 73.31 325.41 65.59 332.14 57.00 L 332.87 56.98 C 337.10 57.00 341.33 57.01 345.57 56.99 C 347.83 54.47 350.11 51.96 352.34 49.40 Z" />
<path fill="#eeeeee" stroke="#eeeeee" stroke-width="0.09375" opacity="1.00" d=" M 237.99 57.11 C 240.60 56.86 243.23 57.06 245.85 57.00 C 245.59 80.30 245.95 103.60 245.98 126.90 C 243.40 126.90 240.81 126.86 238.26 127.22 C 237.99 131.03 238.49 134.88 237.84 138.67 C 229.31 139.11 220.67 138.04 212.21 139.14 C 211.81 141.45 211.83 143.81 211.96 146.15 L 211.99 146.95 C 198.32 146.74 184.66 146.97 170.99 146.80 C 168.77 146.78 166.53 146.80 164.34 147.25 C 164.05 159.10 164.27 170.96 164.26 182.82 C 161.20 182.78 158.15 182.79 155.09 182.88 C 155.22 167.93 155.13 152.97 155.11 138.01 C 155.27 136.62 154.95 134.98 155.88 133.80 C 161.67 126.57 168.41 120.19 174.19 112.94 L 174.94 112.92 C 179.14 112.78 183.48 113.27 187.61 112.69 C 189.82 110.22 191.99 107.72 194.25 105.29 C 208.86 89.26 223.35 73.12 237.99 57.11 Z" />
<path fill="#eeeeee" stroke="#eeeeee" stroke-width="0.09375" opacity="1.00" d=" M 82.39 113.25 C 84.73 112.50 87.41 113.14 89.88 112.94 C 89.63 119.02 89.70 125.10 90.41 131.14 C 89.93 135.08 90.03 139.02 90.61 142.95 C 90.95 156.25 90.64 169.57 90.88 182.87 C 88.27 182.83 85.63 182.73 83.04 183.14 C 82.52 186.88 83.01 190.68 82.51 194.42 C 74.01 195.09 65.45 194.07 56.96 194.90 C 56.51 197.48 56.65 200.12 56.83 202.73 C 40.90 201.76 24.90 202.85 8.95 202.17 C 9.06 199.47 8.69 196.72 9.12 194.07 C 33.48 167.07 57.90 140.13 82.39 113.25 Z" />
</g>
<g id="#19191932">
<path fill="#191919" stroke="#191919" stroke-width="0.09375" opacity="0.20" d=" M 340.58 49.50 C 344.45 48.72 348.43 49.27 352.34 49.40 C 350.11 51.96 347.83 54.47 345.57 56.99 C 341.33 57.01 337.10 57.00 332.87 56.98 C 335.26 54.34 337.34 51.18 340.58 49.50 Z" />
</g>
<g id="#fafafaff">
<path fill="#fafafa" stroke="#fafafa" stroke-width="0.09375" opacity="1.00" d=" M 245.85 57.00 C 274.61 57.00 303.37 57.00 332.14 57.00 C 325.41 65.59 317.68 73.31 310.47 81.47 C 308.92 83.38 306.83 85.30 307.15 88.00 C 307.14 100.96 307.32 113.93 307.07 126.89 C 286.70 126.90 266.34 126.88 245.98 126.90 C 245.95 103.60 245.59 80.30 245.85 57.00 Z" />
<path fill="#fafafa" stroke="#fafafa" stroke-width="0.09375" opacity="1.00" d=" M 89.88 112.94 C 117.99 112.94 146.09 112.94 174.19 112.94 C 168.41 120.19 161.67 126.57 155.88 133.80 C 154.95 134.98 155.27 136.62 155.11 138.01 C 155.13 152.97 155.22 167.93 155.09 182.88 C 133.69 182.76 112.28 182.82 90.88 182.87 C 90.64 169.57 90.95 156.25 90.61 142.95 C 90.03 139.02 89.93 135.08 90.41 131.14 C 89.70 125.10 89.63 119.02 89.88 112.94 Z" />
<path fill="#fafafa" stroke="#fafafa" stroke-width="0.09375" opacity="1.00" d=" M 164.34 147.25 C 166.53 146.80 168.77 146.78 170.99 146.80 C 184.66 146.97 198.32 146.74 211.99 146.95 C 212.44 153.60 211.86 160.27 212.26 166.91 C 215.49 167.33 218.77 167.14 222.02 167.15 C 250.38 167.11 278.74 167.21 307.10 167.09 C 307.18 190.40 307.36 213.70 307.05 237.01 C 275.69 237.18 244.32 236.82 212.97 237.18 C 212.30 244.76 212.84 252.41 212.67 260.02 C 212.77 265.68 212.33 271.37 212.94 277.01 C 214.94 277.31 216.98 277.31 219.01 277.31 C 248.36 277.21 277.71 277.40 307.06 277.22 C 307.66 303.14 307.16 329.09 307.28 355.02 C 307.18 370.34 307.47 385.67 307.14 401.00 C 275.10 401.01 243.06 400.98 211.02 401.02 C 210.99 451.34 210.99 501.66 211.02 551.98 C 243.26 552.03 275.51 551.97 307.75 552.01 C 307.43 581.00 307.56 610.00 307.62 638.99 C 307.68 650.31 307.24 661.66 307.78 672.96 C 321.52 673.44 335.29 673.02 349.04 673.17 C 450.73 673.11 552.41 673.24 654.10 673.10 C 654.08 683.53 654.13 693.95 654.09 704.38 C 604.97 704.42 555.86 704.39 506.74 704.39 C 504.06 704.39 501.37 704.39 498.70 704.40 C 390.48 704.38 282.27 704.39 174.06 704.39 C 170.84 704.29 167.53 704.78 164.39 703.92 C 164.20 698.93 164.42 693.94 164.30 688.95 C 164.30 661.63 164.61 634.29 164.06 606.98 C 164.69 595.69 164.16 584.32 164.34 573.00 C 164.34 540.64 164.34 508.29 164.34 475.93 C 164.16 469.62 164.73 463.27 164.01 456.99 C 164.58 452.00 164.34 446.99 164.34 441.99 C 164.31 405.70 163.98 369.42 164.27 333.14 C 164.45 319.72 164.44 306.30 164.27 292.88 C 164.20 269.64 164.10 246.39 164.27 223.15 C 164.43 209.71 164.46 196.26 164.26 182.82 C 164.27 170.96 164.05 159.10 164.34 147.25 Z" />
<path fill="#fafafa" stroke="#fafafa" stroke-width="0.09375" opacity="1.00" d=" M 8.95 202.17 C 24.90 202.85 40.90 201.76 56.83 202.73 C 56.89 209.44 56.49 216.17 56.97 222.87 C 59.96 223.19 62.97 223.09 65.97 223.09 C 95.68 223.00 125.38 223.16 155.09 223.03 C 155.25 246.35 155.24 269.66 155.11 292.97 C 126.40 292.85 97.69 292.98 68.98 292.93 C 65.09 292.96 61.16 292.65 57.29 293.19 C 57.18 306.42 57.13 319.67 57.31 332.90 C 60.51 333.35 63.76 333.18 66.98 333.20 C 96.37 333.13 125.76 333.27 155.15 333.11 C 155.42 374.40 155.23 415.70 155.11 457.00 C 121.74 457.01 88.38 456.97 55.02 457.02 C 54.99 507.00 54.99 556.99 55.02 606.98 C 88.59 607.04 122.16 606.97 155.73 607.02 C 155.36 634.35 155.54 661.69 155.57 689.02 C 155.72 700.05 155.03 711.13 155.82 722.11 C 170.21 722.62 184.62 722.14 199.02 722.34 C 298.91 722.24 398.80 722.45 498.69 722.23 C 498.66 734.93 498.75 747.64 498.64 760.34 C 335.41 760.30 172.18 760.36 8.94 760.31 C 8.89 704.42 9.01 648.53 8.93 592.64 C 8.94 549.37 9.00 506.11 8.94 462.84 C 8.94 375.95 8.95 289.06 8.95 202.17 Z" />
</g>
<g id="#d5d5d5ff">
<path fill="#d5d5d5" stroke="#d5d5d5" stroke-width="0.09375" opacity="1.00" d=" M 390.34 78.28 C 392.87 77.87 395.45 77.85 398.02 77.78 C 397.86 84.12 398.40 90.49 397.80 96.82 C 392.22 97.49 386.59 96.94 380.99 97.07 C 375.72 96.92 370.41 97.46 365.16 96.82 C 364.61 94.67 364.72 92.41 365.15 90.26 C 373.34 89.66 381.59 90.54 389.79 89.82 L 390.02 88.95 C 390.46 85.40 390.08 81.83 390.34 78.28 Z" />
<path fill="#d5d5d5" stroke="#d5d5d5" stroke-width="0.09375" opacity="1.00" d=" M 238.26 127.22 C 240.81 126.86 243.40 126.90 245.98 126.90 C 245.65 133.46 246.38 140.07 245.71 146.61 C 239.50 147.01 233.28 146.69 227.06 146.79 C 222.03 146.66 216.91 147.34 211.96 146.15 C 211.83 143.81 211.81 141.45 212.21 139.14 C 220.67 138.04 229.31 139.11 237.84 138.67 C 238.49 134.88 237.99 131.03 238.26 127.22 Z" />
<path fill="#d5d5d5" stroke="#d5d5d5" stroke-width="0.09375" opacity="1.00" d=" M 307.99 126.90 C 310.64 126.84 313.31 126.70 315.95 127.08 C 316.16 140.37 316.35 153.71 315.89 166.99 C 312.98 167.40 310.02 167.22 307.10 167.09 C 306.86 159.73 308.04 152.41 307.85 145.04 C 307.82 139.00 307.77 132.95 307.99 126.90 Z" />
<path fill="#d5d5d5" stroke="#d5d5d5" stroke-width="0.09375" opacity="1.00" d=" M 83.04 183.14 C 85.63 182.73 88.27 182.83 90.88 182.87 C 90.45 189.40 91.43 195.99 90.47 202.47 C 79.30 203.19 68.04 202.64 56.83 202.73 C 56.65 200.12 56.51 197.48 56.96 194.90 C 65.45 194.07 74.01 195.09 82.51 194.42 C 83.01 190.68 82.52 186.88 83.04 183.14 Z" />
<path fill="#d5d5d5" stroke="#d5d5d5" stroke-width="0.09375" opacity="1.00" d=" M 155.09 182.88 C 158.15 182.79 161.20 182.78 164.26 182.82 C 164.46 196.26 164.43 209.71 164.27 223.15 C 161.21 223.14 158.15 223.11 155.09 223.03 C 155.17 209.65 155.28 196.26 155.09 182.88 Z" />
<path fill="#d5d5d5" stroke="#d5d5d5" stroke-width="0.09375" opacity="1.00" d=" M 307.95 237.03 C 310.75 237.01 313.55 236.90 316.35 236.73 C 315.51 250.10 316.56 263.53 315.85 276.91 C 313.23 277.32 310.58 277.20 307.95 277.19 C 307.75 263.81 307.72 250.42 307.95 237.03 Z" />
<path fill="#d5d5d5" stroke="#d5d5d5" stroke-width="0.09375" opacity="1.00" d=" M 155.11 292.97 C 158.16 292.91 161.21 292.89 164.27 292.88 C 164.44 306.30 164.45 319.72 164.27 333.14 C 161.23 333.17 158.19 333.16 155.15 333.11 C 155.16 319.73 155.28 306.35 155.11 292.97 Z" />
</g>
<g id="#e0e0e0ff">
<path fill="#e0e0e0" stroke="#e0e0e0" stroke-width="0.09375" opacity="1.00" d=" M 398.02 77.78 C 455.37 77.62 512.71 77.75 570.06 77.72 C 580.95 77.95 591.89 77.25 602.75 78.05 C 602.92 91.30 602.86 104.56 602.77 117.81 C 599.19 118.12 595.59 117.94 592.01 117.97 C 534.35 117.98 476.70 117.96 419.04 117.97 C 400.80 117.82 382.53 118.26 364.30 117.76 C 363.95 110.89 364.68 103.99 363.92 97.15 C 363.75 94.53 363.53 91.85 364.22 89.29 C 372.78 88.59 381.42 89.20 390.02 88.95 L 389.79 89.82 C 381.59 90.54 373.34 89.66 365.15 90.26 C 364.72 92.41 364.61 94.67 365.16 96.82 C 370.41 97.46 375.72 96.92 380.99 97.07 C 386.59 96.94 392.22 97.49 397.80 96.82 C 398.40 90.49 397.86 84.12 398.02 77.78 Z" />
<path fill="#e0e0e0" stroke="#e0e0e0" stroke-width="0.09375" opacity="1.00" d=" M 668.22 78.30 C 697.73 78.21 727.24 78.27 756.76 78.26 C 756.98 91.69 757.08 105.17 756.71 118.59 C 727.24 118.54 697.77 118.56 668.30 118.57 C 667.77 105.18 667.93 91.70 668.22 78.30 Z" />
<path fill="#e0e0e0" stroke="#e0e0e0" stroke-width="0.09375" opacity="1.00" d=" M 245.98 126.90 C 266.34 126.88 286.70 126.90 307.07 126.89 L 307.99 126.90 C 307.77 132.95 307.82 139.00 307.85 145.04 C 308.04 152.41 306.86 159.73 307.10 167.09 C 278.74 167.21 250.38 167.11 222.02 167.15 C 218.77 167.14 215.49 167.33 212.26 166.91 C 211.86 160.27 212.44 153.60 211.99 146.95 L 211.96 146.15 C 216.91 147.34 222.03 146.66 227.06 146.79 C 233.28 146.69 239.50 147.01 245.71 146.61 C 246.38 140.07 245.65 133.46 245.98 126.90 Z" />
<path fill="#e0e0e0" stroke="#e0e0e0" stroke-width="0.09375" opacity="1.00" d=" M 668.10 141.03 C 693.05 140.67 718.01 140.97 742.97 140.87 C 747.59 140.95 752.24 140.66 756.86 141.05 C 756.90 154.33 756.99 167.62 756.84 180.90 C 735.91 181.45 714.93 180.95 693.98 181.13 C 685.36 180.98 676.71 181.41 668.10 180.92 C 667.96 167.63 667.97 154.32 668.10 141.03 Z" />
<path fill="#e0e0e0" stroke="#e0e0e0" stroke-width="0.09375" opacity="1.00" d=" M 90.88 182.87 C 112.28 182.82 133.69 182.76 155.09 182.88 C 155.28 196.26 155.17 209.65 155.09 223.03 C 125.38 223.16 95.68 223.00 65.97 223.09 C 62.97 223.09 59.96 223.19 56.97 222.87 C 56.49 216.17 56.89 209.44 56.83 202.73 C 68.04 202.64 79.30 203.19 90.47 202.47 C 91.43 195.99 90.45 189.40 90.88 182.87 Z" />
<path fill="#e0e0e0" stroke="#e0e0e0" stroke-width="0.09375" opacity="1.00" d=" M 364.90 187.96 C 419.58 187.68 474.28 187.92 528.97 187.85 C 532.51 188.02 536.17 187.36 539.64 188.30 C 539.53 201.46 539.66 214.63 539.59 227.80 C 523.41 228.47 507.17 227.90 490.97 228.10 C 448.95 227.98 406.91 228.32 364.90 227.92 C 364.64 214.62 364.63 201.27 364.90 187.96 Z" />
<path fill="#e0e0e0" stroke="#e0e0e0" stroke-width="0.09375" opacity="1.00" d=" M 668.31 203.38 C 697.77 203.50 727.23 203.44 756.69 203.40 C 757.06 216.81 757.01 230.29 756.72 243.71 C 727.21 243.76 697.69 243.77 668.18 243.72 C 667.98 230.29 667.79 216.79 668.31 203.38 Z" />
<path fill="#e0e0e0" stroke="#e0e0e0" stroke-width="0.09375" opacity="1.00" d=" M 212.97 237.18 C 244.32 236.82 275.69 237.18 307.05 237.01 L 307.95 237.03 C 307.72 250.42 307.75 263.81 307.95 277.19 L 307.06 277.22 C 277.71 277.40 248.36 277.21 219.01 277.31 C 216.98 277.31 214.94 277.31 212.94 277.01 C 212.33 271.37 212.77 265.68 212.67 260.02 C 212.84 252.41 212.30 244.76 212.97 237.18 Z" />
<path fill="#e0e0e0" stroke="#e0e0e0" stroke-width="0.09375" opacity="1.00" d=" M 57.29 293.19 C 61.16 292.65 65.09 292.96 68.98 292.93 C 97.69 292.98 126.40 292.85 155.11 292.97 C 155.28 306.35 155.16 319.73 155.15 333.11 C 125.76 333.27 96.37 333.13 66.98 333.20 C 63.76 333.18 60.51 333.35 57.31 332.90 C 57.13 319.67 57.18 306.42 57.29 293.19 Z" />
</g>
<g id="#0e0e0e1c">
<path fill="#0e0e0e" stroke="#0e0e0e" stroke-width="0.09375" opacity="0.11" d=" M 75.83 105.86 C 76.92 104.83 78.66 105.34 80.01 105.13 C 113.71 105.27 147.41 105.01 181.10 105.26 C 179.10 107.86 177.10 110.45 174.94 112.92 L 174.19 112.94 C 146.09 112.94 117.99 112.94 89.88 112.94 C 87.41 113.14 84.73 112.50 82.39 113.25 C 57.90 140.13 33.48 167.07 9.12 194.07 C 8.69 196.72 9.06 199.47 8.95 202.17 C 8.95 289.06 8.94 375.95 8.94 462.84 L 8.05 463.17 C 7.80 456.19 8.36 449.18 7.76 442.22 C 5.19 441.79 2.58 441.93 0.00 441.99 L 0.00 189.50 C 8.44 181.40 15.69 172.16 23.75 163.69 C 41.06 144.37 58.56 125.21 75.83 105.86 Z" />
</g>
<g id="#1a1a1a32">
<path fill="#1a1a1a" stroke="#1a1a1a" stroke-width="0.09375" opacity="0.20" d=" M 181.10 105.26 L 181.86 105.02 C 185.99 104.99 190.12 105.16 194.25 105.29 C 191.99 107.72 189.82 110.22 187.61 112.69 C 183.48 113.27 179.14 112.78 174.94 112.92 C 177.10 110.45 179.10 107.86 181.10 105.26 Z" />
</g>
<g id="#edededff">
<path fill="#ededed" stroke="#ededed" stroke-width="0.09375" opacity="1.00" d=" M 155.09 223.03 C 158.15 223.11 161.21 223.14 164.27 223.15 C 164.10 246.39 164.20 269.64 164.27 292.88 C 161.21 292.89 158.16 292.91 155.11 292.97 C 155.24 269.66 155.25 246.35 155.09 223.03 Z" />
</g>
<g id="#eaeaeaff">
<path fill="#eaeaea" stroke="#eaeaea" stroke-width="0.09375" opacity="1.00" d=" M 316.35 236.73 C 316.76 239.45 316.94 242.20 316.84 244.96 C 316.56 257.31 317.20 269.68 316.34 282.02 C 316.26 319.36 316.40 356.71 316.38 394.05 C 316.36 396.34 316.27 398.66 316.67 400.93 C 313.49 401.04 310.31 400.96 307.14 401.00 C 307.47 385.67 307.18 370.34 307.28 355.02 C 307.16 329.09 307.66 303.14 307.06 277.22 L 307.95 277.19 C 310.58 277.20 313.23 277.32 315.85 276.91 C 316.56 263.53 315.51 250.10 316.35 236.73 Z" />
<path fill="#eaeaea" stroke="#eaeaea" stroke-width="0.09375" opacity="1.00" d=" M 155.15 333.11 C 158.19 333.16 161.23 333.17 164.27 333.14 C 163.98 369.42 164.31 405.70 164.34 441.99 C 164.34 446.99 164.58 452.00 164.01 456.99 C 161.04 456.97 158.07 456.98 155.11 457.00 C 155.23 415.70 155.42 374.40 155.15 333.11 Z" />
</g>
<g id="#13131325">
<path fill="#131313" stroke="#131313" stroke-width="0.09375" opacity="0.15" d=" M 807.35 337.20 C 809.53 336.77 811.77 336.87 814.00 336.92 L 814.00 415.99 C 811.62 415.98 809.26 415.97 806.89 415.98 C 806.69 400.20 806.56 384.42 806.83 368.65 C 807.53 358.18 806.61 347.66 807.35 337.20 Z" />
</g>
<g id="#c29d00ff">
<path fill="#c29d00" stroke="#c29d00" stroke-width="0.09375" opacity="1.00" d=" M 364.01 352.01 C 495.34 351.99 626.66 351.99 757.99 352.01 C 758.01 402.00 758.01 452.00 757.99 501.99 C 626.66 502.01 495.34 502.01 364.01 501.99 C 363.99 452.00 363.99 402.00 364.01 352.01 Z" />
<path fill="#c29d00" stroke="#c29d00" stroke-width="0.09375" opacity="1.00" d=" M 211.02 401.02 C 243.06 400.98 275.10 401.01 307.14 401.00 C 310.31 400.96 313.49 401.04 316.67 400.93 C 317.40 402.12 316.82 403.64 317.00 404.98 C 316.99 453.86 317.01 502.75 316.99 551.63 L 316.47 552.09 C 313.56 551.91 310.66 552.01 307.75 552.01 C 275.51 551.97 243.26 552.03 211.02 551.98 C 210.99 501.66 210.99 451.34 211.02 401.02 Z" />
<path fill="#c29d00" stroke="#c29d00" stroke-width="0.09375" opacity="1.00" d=" M 55.02 457.02 C 88.38 456.97 121.74 457.01 155.11 457.00 C 158.07 456.98 161.04 456.97 164.01 456.99 C 164.73 463.27 164.16 469.62 164.34 475.93 C 164.34 508.29 164.34 540.64 164.34 573.00 C 164.16 584.32 164.69 595.69 164.06 606.98 C 161.28 607.02 158.50 606.97 155.73 607.02 C 122.16 606.97 88.59 607.04 55.02 606.98 C 54.99 556.99 54.99 507.00 55.02 457.02 Z" />
</g>
<g id="#20202040">
<path fill="#202020" stroke="#202020" stroke-width="0.09375" opacity="0.25" d=" M 806.15 369.32 L 806.83 368.65 C 806.56 384.42 806.69 400.20 806.89 415.98 C 806.66 432.64 806.82 449.30 806.97 465.96 C 806.72 485.33 806.94 504.70 807.06 524.06 C 806.82 549.71 807.18 575.36 807.05 601.01 C 807.31 610.92 806.77 620.85 807.33 630.74 C 809.53 631.03 811.76 631.00 814.00 631.03 L 814.00 673.12 C 763.35 673.17 712.69 673.04 662.05 673.18 C 661.61 689.51 662.14 705.88 661.87 722.22 C 614.25 722.49 566.62 722.25 519.00 722.34 C 514.86 722.43 510.70 722.07 506.59 722.54 C 506.27 741.02 506.71 759.51 506.43 778.00 L 0.00 778.00 L 0.00 715.07 C 2.57 715.02 5.15 714.92 7.70 715.25 C 8.32 729.17 7.73 743.13 8.03 757.06 C 8.02 758.22 8.32 759.31 8.94 760.31 C 172.18 760.36 335.41 760.30 498.64 760.34 C 498.75 747.64 498.66 734.93 498.69 722.23 C 501.16 721.91 504.51 723.22 506.44 721.40 C 506.79 715.74 506.24 710.05 506.74 704.39 C 555.86 704.39 604.97 704.42 654.09 704.38 C 654.13 693.95 654.08 683.53 654.10 673.10 C 656.66 673.06 659.24 673.13 661.79 672.77 C 662.19 666.92 661.80 661.06 661.94 655.20 C 710.01 655.18 758.08 655.22 806.15 655.18 C 806.18 559.89 806.09 464.61 806.15 369.32 Z" />
</g>
<g id="#1515152b">
<path fill="#151515" stroke="#151515" stroke-width="0.09375" opacity="0.17" d=" M 806.89 415.98 C 809.26 415.97 811.62 415.98 814.00 415.99 L 814.00 466.05 C 811.65 466.02 809.31 465.99 806.97 465.96 C 806.82 449.30 806.66 432.64 806.89 415.98 Z" />
</g>
<g id="#11111124">
<path fill="#111111" stroke="#111111" stroke-width="0.09375" opacity="0.14" d=" M 0.00 441.99 C 2.58 441.93 5.19 441.79 7.76 442.22 C 8.36 449.18 7.80 456.19 8.05 463.17 C 7.76 470.39 8.40 477.64 7.76 484.85 C 5.19 485.24 2.58 485.08 0.00 485.00 L 0.00 441.99 Z" />
</g>
<g id="#1616162c">
<path fill="#161616" stroke="#161616" stroke-width="0.09375" opacity="0.17" d=" M 8.05 463.17 L 8.94 462.84 C 9.00 506.11 8.94 549.37 8.93 592.64 C 8.56 594.06 8.08 595.48 7.99 596.97 C 7.69 607.53 8.27 618.12 7.66 628.66 C 5.12 628.98 2.56 628.99 0.00 629.09 L 0.00 485.00 C 2.58 485.08 5.19 485.24 7.76 484.85 C 8.40 477.64 7.76 470.39 8.05 463.17 Z" />
</g>
<g id="#18181830">
<path fill="#181818" stroke="#181818" stroke-width="0.09375" opacity="0.19" d=" M 806.97 465.96 C 809.31 465.99 811.65 466.02 814.00 466.05 L 814.00 524.01 C 811.68 524.04 809.37 524.06 807.06 524.06 C 806.94 504.70 806.72 485.33 806.97 465.96 Z" />
</g>
<g id="#1c1c1c38">
<path fill="#1c1c1c" stroke="#1c1c1c" stroke-width="0.09375" opacity="0.22" d=" M 807.06 524.06 C 809.37 524.06 811.68 524.04 814.00 524.01 L 814.00 631.03 C 811.76 631.00 809.53 631.03 807.33 630.74 C 806.77 620.85 807.31 610.92 807.05 601.01 C 807.18 575.36 806.82 549.71 807.06 524.06 Z" />
</g>
<g id="#dededeff">
<path fill="#dedede" stroke="#dedede" stroke-width="0.09375" opacity="1.00" d=" M 307.75 552.01 C 310.66 552.01 313.56 551.91 316.47 552.09 C 316.25 581.04 316.53 610.01 316.38 638.97 C 313.46 638.97 310.54 638.97 307.62 638.99 C 307.56 610.00 307.43 581.00 307.75 552.01 Z" />
<path fill="#dedede" stroke="#dedede" stroke-width="0.09375" opacity="1.00" d=" M 155.73 607.02 C 158.50 606.97 161.28 607.02 164.06 606.98 C 164.61 634.29 164.30 661.63 164.30 688.95 C 161.39 688.97 158.48 689.00 155.57 689.02 C 155.54 661.69 155.36 634.35 155.73 607.02 Z" />
</g>
<g id="#1b1b1b37">
<path fill="#1b1b1b" stroke="#1b1b1b" stroke-width="0.09375" opacity="0.22" d=" M 7.99 596.97 C 8.08 595.48 8.56 594.06 8.93 592.64 C 9.01 648.53 8.89 704.42 8.94 760.31 C 8.32 759.31 8.02 758.22 8.03 757.06 C 7.73 743.13 8.32 729.17 7.70 715.25 C 5.15 714.92 2.57 715.02 0.00 715.07 L 0.00 629.09 C 2.56 628.99 5.12 628.98 7.66 628.66 C 8.27 618.12 7.69 607.53 7.99 596.97 Z" />
</g>
<g id="#dbdbdbff">
<path fill="#dbdbdb" stroke="#dbdbdb" stroke-width="0.09375" opacity="1.00" d=" M 307.62 638.99 C 310.54 638.97 313.46 638.97 316.38 638.97 C 316.46 644.23 316.33 649.50 316.41 654.76 C 320.52 655.70 324.78 655.06 328.96 655.23 C 437.34 655.21 545.72 655.24 654.10 655.21 C 654.11 661.18 654.12 667.14 654.10 673.10 C 552.41 673.24 450.73 673.11 349.04 673.17 C 335.29 673.02 321.52 673.44 307.78 672.96 C 307.24 661.66 307.68 650.31 307.62 638.99 Z" />
<path fill="#dbdbdb" stroke="#dbdbdb" stroke-width="0.09375" opacity="1.00" d=" M 155.57 689.02 C 158.48 689.00 161.39 688.97 164.30 688.95 C 164.42 693.94 164.20 698.93 164.39 703.92 C 167.53 704.78 170.84 704.29 174.06 704.39 C 282.27 704.39 390.48 704.38 498.70 704.40 C 498.68 710.34 498.70 716.28 498.69 722.23 C 398.80 722.45 298.91 722.24 199.02 722.34 C 184.62 722.14 170.21 722.62 155.82 722.11 C 155.03 711.13 155.72 700.05 155.57 689.02 Z" />
</g>
<g id="#3636366c">
<path fill="#363636" stroke="#363636" stroke-width="0.09375" opacity="0.42" d=" M 654.10 655.21 C 656.70 655.18 659.32 655.19 661.94 655.20 C 661.80 661.06 662.19 666.92 661.79 672.77 C 659.24 673.13 656.66 673.06 654.10 673.10 C 654.12 667.14 654.11 661.18 654.10 655.21 Z" />
<path fill="#363636" stroke="#363636" stroke-width="0.09375" opacity="0.42" d=" M 498.70 704.40 C 501.37 704.39 504.06 704.39 506.74 704.39 C 506.24 710.05 506.79 715.74 506.44 721.40 C 504.51 723.22 501.16 721.91 498.69 722.23 C 498.70 716.28 498.68 710.34 498.70 704.40 Z" />
</g>
</svg>
